SplineFontDB: 3.0
FontName: Crimson-Roman
FullName: Crimson
FamilyName: Crimson
Weight: Roman
Copyright: Copyright (c) 2010, Sebastian Kosch (sebastian@aldusleaf.org),\nwith Reserved Font Name "Crimson".\nThis Font Software is licensed under the SIL Open Font License, Version 1.1.\nThis license is available with a FAQ at: http://scripts.sil.org/OFL
Version: 0.2
ItalicAngle: 0
UnderlinePosition: -112
UnderlineWidth: 47
Ascent: 717
Descent: 307
sfntRevision: 0x00004cc7
LayerCount: 2
Layer: 0 0 "Back"  1
Layer: 1 0 "Fore"  0
NeedsXUIDChange: 1
XUID: [1021 559 149143806 1270264]
FSType: 0
OS2Version: 3
OS2_WeightWidthSlopeOnly: 0
OS2_UseTypoMetrics: 1
CreationTime: 1270926789
ModificationTime: 1316897841
PfmFamily: 17
TTFWeight: 400
TTFWidth: 5
LineGap: 92
VLineGap: 0
Panose: 2 0 5 3 0 0 0 0 0 0
OS2TypoAscent: 1026
OS2TypoAOffset: 0
OS2TypoDescent: -271
OS2TypoDOffset: 0
OS2TypoLinegap: 0
OS2WinAscent: 1026
OS2WinAOffset: 0
OS2WinDescent: 271
OS2WinDOffset: 0
HheadAscent: 1026
HheadAOffset: 0
HheadDescent: -271
HheadDOffset: 0
OS2SubXSize: 666
OS2SubYSize: 716
OS2SubXOff: 0
OS2SubYOff: 143
OS2SupXSize: 666
OS2SupYSize: 716
OS2SupXOff: 0
OS2SupYOff: 490
OS2StrikeYSize: 50
OS2StrikeYPos: 264
OS2FamilyClass: 258
OS2Vendor: 'PfEd'
OS2CodePages: 20000001.00000000
OS2UnicodeRanges: 80000043.40000062.00000000.00000000
Lookup: 1 0 0 "'c2sc' Capitals to Small Capitals in Latin lookup 0"  {"'c2sc' Capitals to Small Capitals in Latin lookup 0 subtable"  } ['c2sc' ('DFLT' <'dflt' > 'latn' <'dflt' > ) ]
Lookup: 1 0 0 "'pnum' Proportional Numbers lookup 12"  {"'pnum' Proportional Numbers lookup 12-1" ("prop" ) } ['pnum' ('DFLT' <'dflt' > 'grek' <'dflt' > 'latn' <'AZE ' 'CRT ' 'DEU ' 'FRA ' 'ITA ' 'MOL ' 'ROM ' 'TRK ' 'dflt' > ) ]
Lookup: 1 0 0 "'zero' Slashed Zero lookup 11"  {"'zero' Slashed Zero lookup 11-1"  } ['zero' ('DFLT' <'dflt' > 'grek' <'dflt' > 'latn' <'AZE ' 'CRT ' 'DEU ' 'FRA ' 'ITA ' 'MOL ' 'ROM ' 'TRK ' 'dflt' > ) ]

StartChar: exclam
Encoding: 33 33 1
Width: 243
Flags: W
HStem: -11 110<74.2305 160.537> 622 20G<106 137.5>
VStem: 62 110<1.23046 87.5371> 72 94<327.09 632.2>
LayerCount: 2
Fore
SplineSet
62 45 m 0xe0
 62 75 88 99 118 99 c 0
 148 99 172 75 172 45 c 0
 172 15 148 -11 118 -11 c 0
 88 -11 62 15 62 45 c 0xe0
122 642 m 0
 153 642 166 610 166 584 c 0
 166 556 152 422 131 172 c 1
 127 164 124 160 115 159 c 1
 110 161 105 164 102 170 c 1
 88 331 72 533 72 584 c 0xd0
 72 612 90 642 122 642 c 0
EndSplineSet
Validated: 513
Substitution2: "'sinf' Scientific Inferiors lookup 5-1" exclam.sinf
Substitution2: "'sups' Superscript lookup 6-1" exclam.ssup
Substitution2: "'smcp' Lowercase to Small Capitals lookup 2-1" exclam.sc
Substitution2: "'subs' Subscript lookup 1-1" exclam.subs
Substitution2: "'ordn' Ordinals lookup 0-1" exclam.ordn
EndChar

StartChar: quotedbl
Encoding: 34 34 2
Width: 279
Flags: W
HStem: 473 226<71.0952 99.855 191.095 219.855>
VStem: 36 78<523.482 685.326> 156 78<523.482 685.326>
LayerCount: 2
Fore
SplineSet
208 699 m 0
 220 699 226 696 234 686 c 1
 234 657 226 544 220 492 c 1
 217 486 208 477 200 473 c 1
 197 473 193 475 191 479 c 1
 170 551 156 601 156 629 c 0
 156 657 176 699 208 699 c 0
88 699 m 0
 100 699 106 696 114 686 c 1
 114 657 106 544 100 492 c 1
 97 486 88 477 80 473 c 1
 77 473 73 475 71 479 c 1
 50 551 36 601 36 629 c 0
 36 657 56 699 88 699 c 0
EndSplineSet
Validated: 513
Substitution2: "'smcp' Lowercase to Small Capitals lookup 2-1" quotedbl.sc
EndChar

StartChar: numbersign
Encoding: 35 35 3
Width: 480
Flags: W
HStem: 178 49<56.3456 389.303> 369 49<83.4526 417.211>
LayerCount: 2
Fore
SplineSet
410.63 369 m 1
 251.63 369 251.63 369 81.6299 369 c 1
 69.6299 369 77.6299 414 90.6299 418 c 9
 416.63 418 l 17
 430.63 418 423.63 375 410.63 369 c 1
382.63 178 m 1
 223.63 178 223.63 178 53.6299 178 c 1
 41.6299 178 50.6299 223 63.6299 227 c 9
 389.63 227 l 17
 403.63 227 395.63 184 382.63 178 c 1
370.63 528 m 1
 298.63 77 l 2
 297.63 73 289.63 64 274.63 64 c 0
 264.63 64 263.63 68 263.63 68 c 1
 335.63 518 l 1
 338.63 527 338.63 531 357.63 531 c 0
 366.63 531 367.63 530 370.63 528 c 1
209.63 528 m 1
 136.63 77 l 2
 135.63 73 128.63 64 113.63 64 c 0
 103.63 64 102.63 68 102.63 68 c 1
 174.63 518 l 1
 177.63 527 177.63 531 196.63 531 c 0
 205.63 531 206.63 530 209.63 528 c 1
EndSplineSet
Validated: 549
Substitution2: "'smcp' Lowercase to Small Capitals lookup 2-1" numbersign.sc
EndChar

StartChar: dollar
Encoding: 36 36 4
Width: 500
Flags: W
HStem: -10 36<218.435 311.473> 604 35<185.151 278.766>
VStem: 49 38<113.977 176.088> 67 77<435.029 550.873> 170 35<-48.3816 -8.51413> 290 35<639.634 680.877> 362 84<85.5952 206.996> 377 35<470.001 527.286>
LayerCount: 2
Fore
SplineSet
255 639 m 0xde
 315 639 337 626 400 612 c 1
 412 561 412 501 412 475 c 1
 411 472 404 470 401 470 c 0
 397 470 379 468 377 478 c 0
 371 526 325 604 249 604 c 0
 165 604 144 546 144 500 c 0xdd
 144 423 216 391 279 351 c 0
 342 311 446 261 446 166 c 0
 446 60 348 -10 245 -10 c 0
 180 -10 119 8 72 18 c 1
 60 75 49 154 49 165 c 1
 51 171 67 177 74 177 c 0
 79 177 85.7027 174.27 87 168 c 0xee
 93 139 120 26 247 26 c 0
 307 26 362 65 362 140 c 0
 362 220 300 240 234 278 c 0
 160 321 67 373 67 470 c 0
 67 572 159 639 255 639 c 0xde
290 683 m 17
 298 683 325 683 325 676 c 9
 205 -52 l 17
 196 -52 170 -50 170 -43 c 9
 290 683 l 17
EndSplineSet
Validated: 517
Substitution2: "'smcp' Lowercase to Small Capitals lookup 2-1" dollar.sc
EndChar

StartChar: percent
Encoding: 37 37 5
Width: 666
Flags: W
HStem: -7 25<448.434 518.549> 289 24<435.266 504.513> 325 25<160.003 228.1> 621 24<146.377 215.599>
VStem: 37 64<408.045 571.079> 268 66<399.6 570.458> 325 64<76.045 237.871> 556 66<66.3943 238.458>
LayerCount: 2
Fore
SplineSet
183 621 m 0xfd
 124 621 101 555 101 496 c 0
 101 427 143 350 193 350 c 0
 251 350 268 418 268 476 c 0
 268 543 236 621 183 621 c 0xfd
187 645 m 0
 274 645 334 571 334 484 c 0
 334 404 278 325 187 325 c 0
 104 325 37 396 37 484 c 0
 37 573 98 645 187 645 c 0
472 289 m 0
 413 289 389 223 389 164 c 0xfb
 389 95 432 18 482 18 c 0
 540 18 556 86 556 144 c 0
 556 211 525 289 472 289 c 0
476 313 m 0
 563 313 622 239 622 152 c 0
 622 72 567 -7 475 -7 c 0
 392 -7 325 64 325 152 c 0
 325 241 387 313 476 313 c 0
595 624 m 1
 112 0 l 2
 108 -5 91 -12 79 -12 c 0
 65 -12 62 -3 61 -1 c 1
 543 624 l 2
 548 630 557 636 563 636 c 0
 592 636 586 633 595 624 c 1
EndSplineSet
Validated: 513
Substitution2: "'sinf' Scientific Inferiors lookup 5-1" percent.sinf
Substitution2: "'sups' Superscript lookup 6-1" percent.ssup
Substitution2: "'smcp' Lowercase to Small Capitals lookup 2-1" percent.sc
Substitution2: "'subs' Subscript lookup 1-1" percent.subs
Substitution2: "'ordn' Ordinals lookup 0-1" percent.ordn
EndChar

StartChar: ampersand
Encoding: 38 38 6
Width: 678
Flags: W
HStem: -3 43<194.243 337.066 509.5 602.13> 289 23<458.686 501.938 592.031 650.236> 620 36<257.399 350.509>
VStem: 48 86<94.0843 236.46> 156 73<445.099 592.5> 380 68<465.283 594.712>
LayerCount: 2
Fore
SplineSet
401 95 m 1
 336 161 237 314 237 314 c 1
 183 277 134 244 134 172 c 0
 134 78 203 40 276 40 c 0
 316 40 369 61 401 95 c 1
308 620 m 0
 265 620 229 589 229 543 c 0
 229 494 249 443 281 385 c 1
 343 421 380 453 380 530 c 0
 380 575 353 620 308 620 c 0
303 656 m 0
 391 656 448 616 448 544 c 0
 448 454 375 400 299 353 c 1
 341 282 397 210 447 154 c 1
 484 210 504 261 504 271 c 0
 504 291 466 287 459 289 c 1
 456 295 456 308 460 312 c 1
 539 312 l 2
 574 312 603 315 649 317 c 1
 652 315 651 289 648 289 c 1
 631 289 590 279 579 272 c 0
 574 269 536 194 475 123 c 1
 520 76 549 45 573 45 c 0
 594 45 620 78 625 91 c 1
 636 91 648 80 648 73 c 1
 644 64 616 0 539 0 c 0
 480 0 424 72 424 72 c 1
 376 30 308 -3 242 -3 c 0
 125 -3 48 57 48 158 c 0
 48 254 130 307 214 350 c 1
 186 398 156 450 156 519 c 0
 156 595 219 656 303 656 c 0
EndSplineSet
Validated: 1
Substitution2: "'smcp' Lowercase to Small Capitals lookup 2-1" ampersand.sc
EndChar

StartChar: quotesingle
Encoding: 39 39 7
Width: 159
Flags: W
HStem: 473 226<71.0952 99.855>
VStem: 36 78<523.482 685.326>
LayerCount: 2
Fore
SplineSet
88 699 m 0
 100 699 106 696 114 686 c 1
 114 657 106 544 100 492 c 1
 97 486 88 477 80 473 c 1
 77 473 73 475 71 479 c 1
 50 551 36 601 36 629 c 0
 36 657 56 699 88 699 c 0
EndSplineSet
Validated: 1
Substitution2: "'smcp' Lowercase to Small Capitals lookup 2-1" quotesingle.sc
EndChar

StartChar: parenleft
Encoding: 40 40 8
Width: 258
Flags: W
VStem: 34 73<122.806 447.394>
LayerCount: 2
Fore
SplineSet
107 285 m 0
 107 128 159 -47 253 -130 c 1
 254 -130 241 -146 234 -150 c 1
 117 -58 34 91 34 285 c 0
 34 480 117 627 234 719 c 1
 241 715 254 699 253 699 c 1
 159 616 107 443 107 285 c 0
EndSplineSet
Validated: 513
Substitution2: "'sinf' Scientific Inferiors lookup 5-1" parenleft.sinf
Substitution2: "'sups' Superscript lookup 6-1" parenleft.ssup
Substitution2: "'smcp' Lowercase to Small Capitals lookup 2-1" parenleft.sc
Substitution2: "'subs' Subscript lookup 1-1" parenleft.subs
Substitution2: "'ordn' Ordinals lookup 0-1" parenleft.ordn
EndChar

StartChar: parenright
Encoding: 41 41 9
Width: 258
Flags: W
VStem: 149.055 73<122.806 447.394>
LayerCount: 2
Fore
SplineSet
222.055 285 m 0
 222.055 91 139.055 -58 22.0547 -150 c 1
 15.0547 -146 2.05469 -130 3.05469 -130 c 1
 97.0547 -47 149.055 128 149.055 285 c 0
 149.055 443 97.0547 616 3.05469 699 c 1
 2.05469 699 15.0547 715 22.0547 719 c 1
 139.055 627 222.055 480 222.055 285 c 0
EndSplineSet
Validated: 513
Substitution2: "'sinf' Scientific Inferiors lookup 5-1" parenright.sinf
Substitution2: "'sups' Superscript lookup 6-1" parenright.ssup
Substitution2: "'smcp' Lowercase to Small Capitals lookup 2-1" parenright.sc
Substitution2: "'subs' Subscript lookup 1-1" parenright.subs
Substitution2: "'ordn' Ordinals lookup 0-1" parenright.ordn
EndChar

StartChar: asterisk
Encoding: 42 42 10
Width: 446
Flags: W
HStem: 390 61<309.708 393.559> 434 65<38.0898 148.571>
VStem: 129.583 57<572.979 660.875> 208.583 25<420.999 450.228>
LayerCount: 2
Fore
SplineSet
301.583 613 m 0x70
 318.583 632 342.583 640 357.583 625 c 0
 373.583 609 370.583 586 351.583 569 c 0
 316.583 537 282.583 532 254.583 505 c 1
 254.583 505 248.583 496 249.583 491 c 0
 250.583 486 254.583 483 259.583 481 c 0
 294.583 465 322.583 471 366.583 451 c 0
 389.583 441 404.583 421 395.583 402 c 0
 385.583 382 362.583 378 340.583 390 c 0xb0
 298.583 413 283.583 444 249.583 462 c 1
 249.583 462 240.583 467 235.583 465 c 0
 229.583 462 230.583 457 229.583 452 c 0
 225.583 414 238.583 389 233.583 341 c 0
 230.583 316 216.583 296 195.583 299 c 0
 173.583 302 162.583 322 167.583 347 c 0
 176.583 394 201.583 419 208.583 457 c 1
 208.583 457 209.583 466 205.583 470 c 0
 202.583 474 197.583 474 192.583 473 c 0
 155.583 465 135.583 444 87.583 434 c 0
 63.583 429 38.583 436 35.583 457 c 0
 31.583 479 48.583 496 73.583 499 c 0
 121.583 505 150.583 489 189.583 494 c 1
 189.583 494 198.583 497 200.583 502 c 0
 202.583 507 201.583 511 198.583 516 c 0
 179.583 549 153.583 562 129.583 604 c 0
 117.583 626 117.583 650 135.583 660 c 0
 155.583 670 175.583 660 186.583 637 c 0
 206.583 593 200.583 560 217.583 525 c 1
 217.583 525 222.583 515 227.583 514 c 0
 232.583 513 236.583 516 240.583 520 c 0
 266.583 548 269.583 577 301.583 613 c 0x70
EndSplineSet
Validated: 545
Substitution2: "'smcp' Lowercase to Small Capitals lookup 2-1" asterisk.sc
EndChar

StartChar: plus
Encoding: 43 43 11
Width: 544
Flags: W
HStem: 218 56<35.4861 242 298 507.076>
VStem: 242 56<7.125 218 274 480.966>
LayerCount: 2
Fore
SplineSet
242 474 m 1
 258 480 278 485 285 485 c 0
 295 485 298 479 298 479 c 1
 298 274 l 29
 378 274 422 274 502 274 c 20
 506 274 511 270 511 262 c 4
 511 245.721 503 226 495 218 c 5
 420 218 298 218 298 218 c 29
 298 218 298 93 298 16 c 1
 286 7 265 5 255 5 c 0
 248 5 242 10 242 14 c 2
 242 218 l 29
 37 218 l 5
 37 218 31 218 31 228 c 4
 31 232 36 266 46 274 c 5
 126.168 274 242 274 242 274 c 13
 242 274 242 455 242 474 c 1
EndSplineSet
Validated: 513
Substitution2: "'sinf' Scientific Inferiors lookup 5-1" plus.sinf
Substitution2: "'sups' Superscript lookup 6-1" plus.ssup
Substitution2: "'smcp' Lowercase to Small Capitals lookup 2-1" plus.sc
Substitution2: "'subs' Subscript lookup 1-1" plus.subs
Substitution2: "'ordn' Ordinals lookup 0-1" plus.ordn
EndChar

StartChar: comma
Encoding: 44 44 12
Width: 199
Flags: W
HStem: -139 262
VStem: 77 70<-26.8236 65>
LayerCount: 2
Fore
SplineSet
103 123 m 0
 111 123 122 120 129 116 c 1
 136 104 147 84 147 46 c 0
 147 -11 80 -111 29 -139 c 1
 22 -139 14 -124 14 -118 c 1
 34 -103 77 -71 77 -7 c 0
 77 26 44 35 44 74 c 0
 44 95 67 123 103 123 c 0
EndSplineSet
Validated: 513
Substitution2: "'smcp' Lowercase to Small Capitals lookup 2-1" comma.sc
Substitution2: "'c2sc' Capitals to Small Capitals in Latin lookup 0 subtable" comma.sc
Substitution2: "'sinf' Scientific Inferiors lookup 5-1" comma.sinf
Substitution2: "'sups' Superscript lookup 6-1" comma.ssup
Substitution2: "'subs' Subscript lookup 1-1" comma.subs
Substitution2: "'ordn' Ordinals lookup 0-1" comma.ordn
EndChar

StartChar: hyphen
Encoding: 45 45 13
Width: 378
Flags: W
HStem: 210 63<77.002 311.131>
VStem: 55 261
LayerCount: 2
Fore
SplineSet
68 261 m 1
 68 261 276 272 309 273 c 0
 313 273 316 272 316 264 c 0
 316 247 311 227 303 210 c 1
 256 207 153 203 62 199 c 0
 57 199 55 201 55 210 c 0
 55 229 61 246 68 261 c 1
EndSplineSet
Validated: 513
Substitution2: "'sinf' Scientific Inferiors lookup 5-1" hyphen.sinf
Substitution2: "'sups' Superscript lookup 6-1" hyphen.ssup
Substitution2: "'smcp' Lowercase to Small Capitals lookup 2-1" hyphen.sc
Substitution2: "'subs' Subscript lookup 1-1" hyphen.subs
Substitution2: "'ordn' Ordinals lookup 0-1" hyphen.ordn
EndChar

StartChar: slash
Encoding: 47 47 14
Width: 415
Flags: W
LayerCount: 2
Fore
SplineSet
368 761 m 4
 376 761 380 755 381 752 c 5
 86 -12 l 6
 83 -19 70 -35 47 -35 c 4
 32 -35 29 -28 29 -28 c 5
 328 746 l 5
 329 749 344 761 368 761 c 4
EndSplineSet
Validated: 513
Substitution2: "'frac' Diagonal Fractions lookup 10 subtable" fraction
Substitution2: "'sinf' Scientific Inferiors lookup 5-1" slash.sinf
Substitution2: "'sups' Superscript lookup 6-1" slash.ssup
Substitution2: "'smcp' Lowercase to Small Capitals lookup 2-1" slash.sc
Substitution2: "'subs' Subscript lookup 1-1" slash.subs
Substitution2: "'ordn' Ordinals lookup 0-1" slash.ordn
EndChar

StartChar: zero
Encoding: 48 48 15
Width: 490
Flags: W
HStem: -3 37<195.809 290.186> 604 37<200.815 294.765>
VStem: 27 88<173.11 465.617> 375 88<171.948 470.875>
LayerCount: 2
Fore
SplineSet
250 604 m 0
 166 604 115 477 115 320 c 0
 115 163 166 34 240 34 c 0
 329 34 375 168 375 325 c 0
 375 482 324 604 250 604 c 0
245 641 m 0
 385 641 463 493 463 319 c 0
 463 145 383 -3 245 -3 c 0
 109 -3 27 145 27 319 c 0
 27 493 107 641 245 641 c 0
EndSplineSet
Validated: 513
Substitution2: "'pnum' Proportional Numbers lookup 12-1" zero.prop
Substitution2: "'zero' Slashed Zero lookup 11-1" slashedzero
Substitution2: "'sinf' Scientific Inferiors lookup 5-1" zero.sinf
Substitution2: "'sups' Superscript lookup 6-1" zero.ssup
Substitution2: "'onum' Oldstyle Figures lookup 3-1" zero.onum
Substitution2: "'smcp' Lowercase to Small Capitals lookup 2-1" zero.sc
Substitution2: "'subs' Subscript lookup 1-1" zero.subs
Substitution2: "'ordn' Ordinals lookup 0-1" zero.ordn
EndChar

StartChar: one
Encoding: 49 49 16
Width: 490
Flags: W
HStem: -3 29<147.291 213.171 304.604 370.484> 622 20G<293.388 299.888>
VStem: 219.888 79<32.7426 557.993>
LayerCount: 2
Fore
SplineSet
219.888 116 m 2
 219.888 520 l 2
 219.888 549 212.888 558 198.888 558 c 0
 183.888 558 144.888 544 128.888 538 c 1
 123.888 542 118.888 548 118.888 555 c 0
 118.888 557 117.888 560 120.888 561 c 0
 202.888 598 291.888 642 294.888 642 c 2
 296.888 642 l 2
 302.888 642 305.888 631 306.888 626 c 1
 306.888 626 298.888 590 298.888 529 c 2
 298.888 116 l 2
 298.888 86 298.888 58 303.888 42 c 0
 306.888 31 355.888 26 367.888 26 c 1
 371.888 21 372.888 2 367.888 -3 c 1
 326.888 -1 295.888 2 256.888 2 c 0
 217.888 2 190.888 -1 149.888 -3 c 1
 144.888 2 145.888 21 149.888 26 c 1
 161.888 26 210.888 31 213.888 42 c 0
 218.888 58 219.888 86 219.888 116 c 2
EndSplineSet
Validated: 513
Substitution2: "'pnum' Proportional Numbers lookup 12-1" one.prop
Substitution2: "'sinf' Scientific Inferiors lookup 5-1" one.sinf
Substitution2: "'sups' Superscript lookup 6-1" one.ssup
Substitution2: "'onum' Oldstyle Figures lookup 3-1" one.onum
Substitution2: "'smcp' Lowercase to Small Capitals lookup 2-1" one.sc
Substitution2: "'subs' Subscript lookup 1-1" one.subs
Substitution2: "'ordn' Ordinals lookup 0-1" one.ordn
EndChar

StartChar: two
Encoding: 50 50 17
Width: 490
Flags: W
HStem: 0 73<135.5 386.105> 577 65<158.35 279.125>
VStem: 54.5 19<497.173 503.317> 325.5 85<378.152 530.573>
LayerCount: 2
Fore
SplineSet
450.5 150 m 1
 430.5 101 402.5 18 396.5 0 c 9
 396.5 0 56.5 0 49.5 0 c 1
 45.5 2 39.5 10 39.5 14 c 1
 123.5 107 220.5 221 278.5 306 c 0
 319.5 366 325.5 407 325.5 456 c 0
 325.5 525 279.5 577 215.5 577 c 0
 135.5 577 85.5 511 73.5 491 c 1
 65.5 491 54.5 503 54.5 507 c 1
 61.5 532 133.5 642 238.5 642 c 0
 334.5 642 410.5 560 410.5 475 c 0
 410.5 418 388.5 367 353.5 324 c 0
 282.5 237 180.5 123 135.5 73 c 9
 334.5 73 l 2
 374.5 73 397.5 98 418.5 150 c 0
 420.5 155 424.5 156 430.5 156 c 0
 434.5 156 446.5 153 450.5 150 c 1
EndSplineSet
Validated: 513
Substitution2: "'pnum' Proportional Numbers lookup 12-1" two.prop
Substitution2: "'sinf' Scientific Inferiors lookup 5-1" two.sinf
Substitution2: "'sups' Superscript lookup 6-1" two.ssup
Substitution2: "'onum' Oldstyle Figures lookup 3-1" two.onum
Substitution2: "'smcp' Lowercase to Small Capitals lookup 2-1" two.sc
Substitution2: "'subs' Subscript lookup 1-1" two.subs
Substitution2: "'ordn' Ordinals lookup 0-1" two.ordn
EndChar

StartChar: three
Encoding: 51 51 18
Width: 490
Flags: W
HStem: -5 40<159.683 281.616> 318 30<152.3 201.758> 589 53<169.851 277.645>
VStem: 311 75<445.646 556.049> 347 86<125.145 267.945>
LayerCount: 2
Fore
SplineSet
254 642 m 0xf0
 305 642 386 596 386 514 c 0xf0
 386 449 328 400 293 379 c 1
 338 379 433 304 433 218 c 0
 433 81 303 -5 178 -5 c 0
 151 -5 108 2 76 18 c 1
 70 22 57 40 57 56 c 0
 57 85 76 104 98 104 c 0
 126 104 138 76 154 60 c 0
 173 41 201 35 228 35 c 0
 281 35 347 75 347 190 c 0xe8
 347 271 284 331 218 331 c 0
 197 331 170 321 158 318 c 1
 154 323 152 330 152 338 c 0
 152 342 152 345 154 348 c 1
 234 366 311 410 311 496 c 0
 311 549 270 589 213 589 c 0
 150 589 109 530 100 523 c 1
 94 523 88 536 88 545 c 1
 119 591 176 642 254 642 c 0xf0
EndSplineSet
Validated: 513
Substitution2: "'pnum' Proportional Numbers lookup 12-1" three.prop
Substitution2: "'sinf' Scientific Inferiors lookup 5-1" three.sinf
Substitution2: "'sups' Superscript lookup 6-1" three.ssup
Substitution2: "'onum' Oldstyle Figures lookup 3-1" three.onum
Substitution2: "'smcp' Lowercase to Small Capitals lookup 2-1" three.sc
Substitution2: "'subs' Subscript lookup 1-1" three.subs
Substitution2: "'ordn' Ordinals lookup 0-1" three.ordn
EndChar

StartChar: four
Encoding: 52 52 19
Width: 490
Flags: W
HStem: -6 21G<339 370.5> 174 57<91 314 393 464.961> 624 20G<374 383>
VStem: 314 79<-5.44241 174 231 524>
LayerCount: 2
Fore
SplineSet
378 644 m 0
 388 644 393 634 393 626 c 2
 393 231 l 25
 453 231 l 18
 459 231 467 211 467 190 c 0
 467 181 465 177 463 174 c 1
 437 174 393 174 393 174 c 25
 393 -1 l 1
 393 -1 390 -6 351 -6 c 0
 327 -6 314 -5 314 2 c 2
 314 174 l 25
 32 174 l 1
 25 178 23 187 23 193 c 1
 348 619 l 2
 354 627 370 644 378 644 c 0
314 524 m 25
 91 231 l 25
 314 231 l 25
 314 524 l 25
EndSplineSet
Validated: 513
Substitution2: "'pnum' Proportional Numbers lookup 12-1" four.prop
Substitution2: "'sinf' Scientific Inferiors lookup 5-1" four.sinf
Substitution2: "'sups' Superscript lookup 6-1" four.ssup
Substitution2: "'onum' Oldstyle Figures lookup 3-1" four.onum
Substitution2: "'smcp' Lowercase to Small Capitals lookup 2-1" four.sc
Substitution2: "'subs' Subscript lookup 1-1" four.subs
Substitution2: "'ordn' Ordinals lookup 0-1" four.ordn
EndChar

StartChar: five
Encoding: 53 53 20
Width: 490
Flags: W
HStem: -5 40<159.683 281.616> 339 56<139.696 274.065> 556 79<171.062 372.682> 624 20G<301 395>
VStem: 347 86<126.942 266.661>
LayerCount: 2
Fore
SplineSet
244 395 m 0xe8
 351 395 433 303 433 218 c 0
 433 81 303 -5 178 -5 c 0
 151 -5 108 2 76 18 c 1
 70 22 57 40 57 56 c 0
 57 85 76 104 98 104 c 0
 126 104 138 76 154 60 c 0
 173 41 201 35 228 35 c 0
 281 35 347 74 347 190 c 0
 347 252 302 339 186 339 c 3
 165 339 118 332 102 324 c 1
 98 324 95 331 95 338 c 1
 117 450 142 574 153 635 c 1
 224 635 301 635 301 635 c 2xe8
 342 635 392 644 392 644 c 17xd8
 398 640 404 638 404 633 c 0
 404 627 392 583 374 562 c 1
 346 559 311 556 259 556 c 2
 259 556 188 556 175 556 c 1
 163 496 151 432 139 376 c 1
 167 387 217 395 244 395 c 0xe8
EndSplineSet
Validated: 513
Substitution2: "'pnum' Proportional Numbers lookup 12-1" five.prop
Substitution2: "'sinf' Scientific Inferiors lookup 5-1" five.sinf
Substitution2: "'sups' Superscript lookup 6-1" five.ssup
Substitution2: "'onum' Oldstyle Figures lookup 3-1" five.onum
Substitution2: "'smcp' Lowercase to Small Capitals lookup 2-1" five.sc
Substitution2: "'subs' Subscript lookup 1-1" five.subs
Substitution2: "'ordn' Ordinals lookup 0-1" five.ordn
EndChar

StartChar: six
Encoding: 54 54 21
Width: 490
Flags: W
HStem: -6 33<203.675 298.359> 346 49<179.515 304.657> 618 29<382.73 417.018>
VStem: 45.5 86<119.341 313.338> 359.5 85<110.219 284.317>
LayerCount: 2
Fore
SplineSet
136.5 306 m 1
 133.5 285 131.5 262 131.5 238 c 0
 131.5 148 170.5 27 250.5 27 c 0
 313.5 27 359.5 94 359.5 184 c 0
 359.5 269 323.5 346 233.5 346 c 0
 204.5 346 169.5 342 136.5 306 c 1
261.5 395 m 0
 401.5 395 444.5 275 444.5 203 c 0
 444.5 91 355.5 -6 241.5 -6 c 0
 120.5 -6 45.5 112 45.5 220 c 0
 45.5 322 78.5 416 141.5 485 c 0
 212.5 563 325.5 625 409.5 647 c 1
 418.5 647 421.5 624 421.5 618 c 1
 337.5 591 189.5 527 144.5 350 c 1
 179.5 379 227.5 395 261.5 395 c 0
EndSplineSet
Validated: 513
Substitution2: "'pnum' Proportional Numbers lookup 12-1" six.prop
Substitution2: "'sinf' Scientific Inferiors lookup 5-1" six.sinf
Substitution2: "'sups' Superscript lookup 6-1" six.ssup
Substitution2: "'onum' Oldstyle Figures lookup 3-1" six.onum
Substitution2: "'smcp' Lowercase to Small Capitals lookup 2-1" six.sc
Substitution2: "'subs' Subscript lookup 1-1" six.subs
Substitution2: "'ordn' Ordinals lookup 0-1" six.ordn
EndChar

StartChar: seven
Encoding: 55 55 22
Width: 490
Flags: W
HStem: -5 21G<144.5 154.5> 560 73<90.1464 392>
LayerCount: 2
Fore
SplineSet
381 633 m 2
 407 633 442 636 448 636 c 0
 454 636 455 632 455 627 c 0
 455 614 439 588 426 560 c 2
 163 -2 l 1
 161 -4 157 -5 152 -5 c 0
 137 -5 108 4 108 13 c 1
 211 169 392 560 392 560 c 9
 138 560 l 2
 98 560 82 536 67 483 c 0
 66 478 61 477 55 477 c 0
 51 477 39 480 35 483 c 1
 52 537 69 601 76 633 c 9
 381 633 l 2
EndSplineSet
Validated: 513
Substitution2: "'pnum' Proportional Numbers lookup 12-1" seven.prop
Substitution2: "'sinf' Scientific Inferiors lookup 5-1" seven.sinf
Substitution2: "'sups' Superscript lookup 6-1" seven.ssup
Substitution2: "'onum' Oldstyle Figures lookup 3-1" seven.onum
Substitution2: "'smcp' Lowercase to Small Capitals lookup 2-1" seven.sc
Substitution2: "'subs' Subscript lookup 1-1" seven.subs
Substitution2: "'ordn' Ordinals lookup 0-1" seven.ordn
EndChar

StartChar: eight
Encoding: 56 56 23
Width: 490
Flags: W
HStem: -9 36<188.972 306.825> 608 35<199.182 294.328>
VStem: 56.5 79<77.0132 225.193> 84.5 74<430.437 556.213> 342.5 72<424.076 561.8> 352.5 81<86.3009 203.234>
LayerCount: 2
Fore
SplineSet
244.5 27 m 0xe4
 310.5 27 352.5 70 352.5 138 c 0
 352.5 221 238.5 287 224.5 295 c 0
 222.5 296 221.5 297 218.5 297 c 0
 217.5 297 215.5 297 214.5 296 c 0
 159.5 261 135.5 221 135.5 157 c 0
 135.5 75 191.5 27 244.5 27 c 0xe4
244.5 608 m 0
 196.5 608 158.5 558 158.5 498 c 0
 158.5 421 224.5 386 262.5 364 c 0
 264.5 363 266.5 362 268.5 362 c 0
 270.5 362 271.5 362 274.5 364 c 0
 315.5 391 342.5 431 342.5 486 c 0xd8
 342.5 544 304.5 608 244.5 608 c 0
250.5 643 m 0
 339.5 643 414.5 589 414.5 496 c 0xd8
 414.5 418 348.5 373 302.5 344 c 1
 298.5 343 299.5 340 302.5 338 c 0
 362.5 304 433.5 239 433.5 167 c 0
 433.5 67 342.5 -9 242.5 -9 c 0
 132.5 -9 56.5 57 56.5 154 c 0xe4
 56.5 242 147.5 293 186.5 318 c 0
 189.5 320 188.5 323 186.5 324 c 0
 144.5 349 84.5 406 84.5 480 c 0
 84.5 565 162.5 643 250.5 643 c 0
EndSplineSet
Validated: 513
Substitution2: "'pnum' Proportional Numbers lookup 12-1" eight.prop
Substitution2: "'sinf' Scientific Inferiors lookup 5-1" eight.sinf
Substitution2: "'sups' Superscript lookup 6-1" eight.ssup
Substitution2: "'onum' Oldstyle Figures lookup 3-1" eight.onum
Substitution2: "'smcp' Lowercase to Small Capitals lookup 2-1" eight.sc
Substitution2: "'subs' Subscript lookup 1-1" eight.subs
Substitution2: "'ordn' Ordinals lookup 0-1" eight.ordn
EndChar

StartChar: nine
Encoding: 57 57 24
Width: 490
Flags: W
HStem: -6 29<72.9823 107.27> 246 49<185.343 310.485> 614 33<191.641 286.325>
VStem: 45.5 85<356.683 530.781> 358.5 86<327.662 521.659>
LayerCount: 2
Fore
SplineSet
353.5 335 m 1
 356.5 356 358.5 379 358.5 403 c 0
 358.5 493 319.5 614 239.5 614 c 0
 176.5 614 130.5 547 130.5 457 c 0
 130.5 372 166.5 295 256.5 295 c 0
 285.5 295 320.5 299 353.5 335 c 1
68.5 23 m 1
 152.5 50 300.5 114 345.5 291 c 1
 310.5 262 262.5 246 228.5 246 c 0
 88.5 246 45.5 366 45.5 438 c 0
 45.5 550 134.5 647 248.5 647 c 0
 369.5 647 444.5 529 444.5 421 c 0
 444.5 319 411.5 225 348.5 156 c 0
 277.5 78 164.5 16 80.5 -6 c 1
 71.5 -6 68.5 17 68.5 23 c 1
EndSplineSet
Validated: 513
Substitution2: "'pnum' Proportional Numbers lookup 12-1" nine.prop
Substitution2: "'sinf' Scientific Inferiors lookup 5-1" nine.sinf
Substitution2: "'sups' Superscript lookup 6-1" nine.ssup
Substitution2: "'onum' Oldstyle Figures lookup 3-1" nine.onum
Substitution2: "'smcp' Lowercase to Small Capitals lookup 2-1" nine.sc
Substitution2: "'subs' Subscript lookup 1-1" nine.subs
Substitution2: "'ordn' Ordinals lookup 0-1" nine.ordn
EndChar

StartChar: colon
Encoding: 58 58 25
Width: 227
Flags: W
HStem: -11 110<67.2305 153.537> 321 110<67.2305 153.537>
VStem: 55 110<1.23046 87.5371 333.23 419.537>
LayerCount: 2
Fore
SplineSet
55 45 m 0
 55 75 81 99 111 99 c 0
 141 99 165 75 165 45 c 0
 165 15 141 -11 111 -11 c 0
 81 -11 55 15 55 45 c 0
55 377 m 0
 55 407 81 431 111 431 c 0
 141 431 165 407 165 377 c 0
 165 347 141 321 111 321 c 0
 81 321 55 347 55 377 c 0
EndSplineSet
Validated: 513
Substitution2: "'sinf' Scientific Inferiors lookup 5-1" colon.sinf
Substitution2: "'sups' Superscript lookup 6-1" colon.ssup
Substitution2: "'smcp' Lowercase to Small Capitals lookup 2-1" colon.sc
Substitution2: "'subs' Subscript lookup 1-1" colon.subs
Substitution2: "'ordn' Ordinals lookup 0-1" colon.ordn
EndChar

StartChar: semicolon
Encoding: 59 59 26
Width: 232
Flags: W
HStem: 321 110<70.2305 156.537>
VStem: 65 103<25.9041 111.105 332.398 420.324> 98 70<-26.8236 65>
LayerCount: 2
Fore
SplineSet
124 123 m 0xc0
 132 123 143 120 150 116 c 1
 157 104 168 84 168 46 c 0xc0
 168 -11 101 -111 50 -139 c 1
 43 -139 35 -124 35 -118 c 1
 55 -103 98 -71 98 -7 c 0xa0
 98 26 65 35 65 74 c 0
 65 95 88 123 124 123 c 0xc0
58 377 m 0
 58 407 84 431 114 431 c 0
 144 431 168 407 168 377 c 0
 168 347 144 321 114 321 c 0
 84 321 58 347 58 377 c 0
EndSplineSet
Validated: 513
Substitution2: "'sinf' Scientific Inferiors lookup 5-1" semicolon.sinf
Substitution2: "'sups' Superscript lookup 6-1" semicolon.ssup
Substitution2: "'smcp' Lowercase to Small Capitals lookup 2-1" semicolon.sc
Substitution2: "'subs' Subscript lookup 1-1" semicolon.subs
Substitution2: "'ordn' Ordinals lookup 0-1" semicolon.ordn
EndChar

StartChar: less
Encoding: 60 60 27
Width: 496
Flags: W
HStem: 410 20G<421.5 423.5>
LayerCount: 2
Fore
SplineSet
444 35 m 0
 444 28 434 -15 428 -15 c 0
 427 -15 425 -14 423 -13 c 2
 48 177 l 2
 33 185 30 200 30 217 c 0
 30 228 38 236 48 241 c 2
 417 428 l 2
 419 429 421 430 422 430 c 0
 425 430 432 420 439 383 c 0
 440 377 436 374 436 374 c 1
 110 209 l 1
 441 41 l 1
 441 41 444 40 444 35 c 0
EndSplineSet
Validated: 513
Substitution2: "'sinf' Scientific Inferiors lookup 5-1" less.sinf
Substitution2: "'sups' Superscript lookup 6-1" less.ssup
Substitution2: "'smcp' Lowercase to Small Capitals lookup 2-1" less.sc
Substitution2: "'subs' Subscript lookup 1-1" less.subs
Substitution2: "'ordn' Ordinals lookup 0-1" less.ordn
EndChar

StartChar: equal
Encoding: 61 61 28
Width: 558
Flags: W
HStem: 120 55<73.2964 477.998> 264 55<73.2964 477.998>
LayerCount: 2
Fore
SplineSet
471 120 m 1
 310 120 237 120 65 120 c 1
 53 120 67 170 81 175 c 9
 484 175 l 17
 498 175 485 127 471 120 c 1
471 264 m 1
 310 264 237 264 65 264 c 1
 53 264 67 314 81 319 c 9
 484 319 l 17
 498 319 485 271 471 264 c 1
EndSplineSet
Validated: 545
Substitution2: "'sinf' Scientific Inferiors lookup 5-1" equal.sinf
Substitution2: "'sups' Superscript lookup 6-1" equal.ssup
Substitution2: "'smcp' Lowercase to Small Capitals lookup 2-1" equal.sc
Substitution2: "'subs' Subscript lookup 1-1" equal.subs
Substitution2: "'ordn' Ordinals lookup 0-1" equal.ordn
EndChar

StartChar: greater
Encoding: 62 62 29
Width: 495
Flags: W
HStem: 410 20G<66 68.5>
LayerCount: 2
Fore
SplineSet
46 35 m 0
 46 39 49 41 49 41 c 1
 380 209 l 1
 55 374 l 1
 55 374 52 375 52 382 c 0
 52 400 64 430 68 430 c 0
 69 430 71 429 73 428 c 2
 443 241 l 2
 453 236 460 228 460 217 c 0
 460 200 458 185 443 177 c 2
 68 -13 l 2
 66 -14 64 -15 63 -15 c 0
 57 -15 46 27 46 35 c 0
EndSplineSet
Validated: 513
Substitution2: "'sinf' Scientific Inferiors lookup 5-1" greater.sinf
Substitution2: "'sups' Superscript lookup 6-1" greater.ssup
Substitution2: "'smcp' Lowercase to Small Capitals lookup 2-1" greater.sc
Substitution2: "'subs' Subscript lookup 1-1" greater.subs
Substitution2: "'ordn' Ordinals lookup 0-1" greater.ordn
EndChar

StartChar: question
Encoding: 63 63 30
Width: 357
Flags: W
HStem: -11 110<72.2305 158.537> 548 94<61.7663 180.549> 569 73<80.3395 189.566>
VStem: 60 110<1.23046 87.5371> 93 29<159.288 241.239> 257 50<432.623 535.531>
LayerCount: 2
Fore
SplineSet
60 45 m 0x94
 60 75 86 99 116 99 c 0
 146 99 170 75 170 45 c 0
 170 15 146 -11 116 -11 c 0
 86 -11 60 15 60 45 c 0x94
97 548 m 0xd4
 83 548 53 565 53 598 c 0
 53 613 57 628 62 635 c 1
 72 640 89 642 110 642 c 0
 176 642 307 574 307 457 c 0
 307 389 281 347 206 304 c 0
 179 288 134 253 128 242 c 0
 119 226 122 195 122 172 c 1
 118 164 115 160 106 159 c 1
 101 161 96 164 93 170 c 1xcc
 88 191 85 234 85 261 c 0
 85 335 133 361 170 385 c 0
 219 416 257 439 257 487 c 0
 257 539 221 569 183 569 c 0xb4
 130 569 123 548 97 548 c 0xd4
EndSplineSet
Validated: 545
Substitution2: "'sinf' Scientific Inferiors lookup 5-1" question.sinf
Substitution2: "'sups' Superscript lookup 6-1" question.ssup
Substitution2: "'smcp' Lowercase to Small Capitals lookup 2-1" question.sc
Substitution2: "'subs' Subscript lookup 1-1" question.subs
Substitution2: "'ordn' Ordinals lookup 0-1" question.ordn
EndChar

StartChar: at
Encoding: 64 64 31
Width: 750
Flags: W
HStem: -124 18<259.319 283.566> -7 43<492.48 581.769> -5 58<281.059 339.022> 389 46<388.034 495.5> 538 40<312.127 516.377>
VStem: 47 40<62.2822 287.163> 192 74<65.092 232.038> 421 66<41.9004 125> 670 40<157.015 377.609>
LayerCount: 2
Fore
SplineSet
416 578 m 0xdf80
 612 578 710 426 710 270 c 0
 710 117 621 -7 504 -7 c 0xdf80
 455 -7 421 18 421 79 c 0
 421 91 425 117 428 125 c 1
 409 88 345 -5 287 -5 c 3xbf80
 225 -5 192 60 192 130 c 3
 192 276 341 435 478 435 c 0
 513 435 532 429 551 422 c 9
 490 106 l 2
 489 102 487 86 487 81 c 0
 487 49 508 36 535 36 c 0
 598 36 670 142 670 267 c 0
 670 402 590 538 416 538 c 0
 212 538 87 344 87 170 c 0
 87 53 148 -36 220 -78 c 0
 256 -99 276 -103 295 -106 c 1
 295 -114 271 -124 259 -124 c 0
 247 -124 233 -123 220 -118 c 0
 128 -84 47 29 47 170 c 0
 47 366 184 578 416 578 c 0xdf80
436 389 m 3
 359 389 266 266 266 151 c 0
 266 89 282 53 317 53 c 3xbf80
 367 53 438 178 457 274 c 2
 477 376 l 17
 468 386 449 389 436 389 c 3
EndSplineSet
Validated: 1
Substitution2: "'smcp' Lowercase to Small Capitals lookup 2-1" at.sc
EndChar

StartChar: A
Encoding: 65 65 32
Width: 619
Flags: W
HStem: -3 29<-13.4375 40.4219 128.557 189.446 400.025 458.809 579.411 628.812> 252 42<201.25 377.249> 643 20G<318.75 324.75>
LayerCount: 2
Fore
SplineSet
92.25 139 m 2
 92.25 139 224.25 478 285.25 634 c 0
 291.25 650 314.25 663 323.25 663 c 0
 326.25 663 326.25 661 329.25 660 c 1
 532.545 126 l 0
 546.91 88.5958 556.512 63.8613 558.25 60 c 0
 568.25 36 618.25 26 626.25 26 c 1
 631.25 19 629.25 0 628.25 -3 c 1
 588.25 -1 562.25 2 518.25 2 c 0
 472.25 2 448.25 -1 402.25 -3 c 1
 397.25 2 398.25 21 403.25 26 c 1
 415.25 26 450.25 31 459.25 39 c 0
 462.25 42 463.25 47 463.25 53 c 0
 463.25 83 397.25 247 397.25 247 c 1
 397.25 247 394.25 251 391.25 251 c 0
 365.25 253 315.25 252 290.25 252 c 0
 249.25 252 230.25 252 185.25 249 c 0
 183.25 249 180.25 246 180.25 246 c 1
 180.25 246 150.25 173 134.25 125 c 16
 122.25 90 120.25 67 120.25 54 c 0
 120.25 30 179.25 26 187.25 26 c 1
 190.25 23 191.25 3 189.25 -3 c 1
 149.25 -1 136.25 2 92.25 2 c 0
 46.25 2 34.25 -1 -11.75 -3 c 1
 -14.75 0 -14.75 19 -11.75 26 c 1
 0.25 26 35.25 32 45.25 45 c 0
 65.25 71 78.25 103 92.25 139 c 2
291.25 535 m 1
 201.25 300 l 1
 201.25 300 201.25 296 203.25 296 c 0
 229.25 295 266.25 294 289.25 294 c 0
 320.25 294 343.25 295 374.25 297 c 0
 376.25 297 377.25 302 377.25 302 c 1
 291.25 535 l 1
EndSplineSet
Validated: 545
Substitution2: "'sinf' Scientific Inferiors lookup 5-1" A.sinf
Substitution2: "'sups' Superscript lookup 6-1" A.ssup
Substitution2: "'subs' Subscript lookup 1-1" A.subs
Substitution2: "'ordn' Ordinals lookup 0-1" A.ordn
EndChar

StartChar: B
Encoding: 66 66 33
Width: 595
Flags: W
HStem: -3 35<41.6716 113.213 213.098 381.013> 334 38<203.386 362.968> 624 35<208.595 341.545> 633 29<39.7894 110.638>
VStem: 116.386 87<50.3571 334 372 613.422> 412.386 91<437.712 566.413> 450.386 99<116.781 263.949>
LayerCount: 2
Fore
SplineSet
203.386 334 m 1xca
 203.386 118 l 2
 203.386 104 205.386 57 212.386 50 c 0
 227.386 34 254.386 32 291.386 32 c 0
 366.386 32 450.386 54 450.386 176 c 0
 450.386 251 418.386 334 264.386 334 c 2
 203.386 334 l 1xca
203.386 372 m 1
 304.386 372 l 2
 376.386 372 412.386 430 412.386 487 c 0
 412.386 576 351.386 624 258.386 624 c 0xec
 246.386 624 212.386 623 208.386 614 c 0
 203.386 602 203.386 569 203.386 539 c 2
 203.386 372 l 1
302.386 659 m 0
 393.386 659 503.386 624 503.386 510 c 0xec
 503.386 433 437.386 383 402.386 370 c 0
 400.386 369 399.386 367 402.386 365 c 1
 451.386 363 549.386 298 549.386 199 c 0
 549.386 142 514.386 79 470.386 47 c 0
 419.386 10 349.386 -2 272.386 -3 c 0
 239.386 -3 81.3857 -3 42.3857 -3 c 1
 37.3857 2 38.3857 21 42.3857 26 c 1
 54.3857 26 108.386 31 111.386 42 c 0
 116.386 58 116.386 86 116.386 116 c 2
 116.386 543 l 2
 116.386 573 116.386 601 111.386 617 c 0
 108.386 628 54.3857 633 42.3857 633 c 1
 38.3857 638 37.3857 657 42.3857 662 c 1xda
 83.3857 660 121.386 657 160.386 657 c 0
 199.386 657 243.386 659 302.386 659 c 0
EndSplineSet
Validated: 513
Substitution2: "'sinf' Scientific Inferiors lookup 5-1" B.sinf
Substitution2: "'sups' Superscript lookup 6-1" B.ssup
Substitution2: "'subs' Subscript lookup 1-1" B.subs
Substitution2: "'ordn' Ordinals lookup 0-1" B.ordn
EndChar

StartChar: C
Encoding: 67 67 34
Width: 673
Flags: W
HStem: -6 37<308.323 494.803> 630 37<304.034 488.783>
VStem: 45 99<212.865 446.975> 597 32<140.38 185.708>
LayerCount: 2
Fore
SplineSet
383 667 m 0
 449 667 521 662 595 646 c 1
 595 646 618 508 618 498 c 1
 618 488 607 483 597 483 c 0
 591 483 586 485 584 488 c 1
 578 519 555 630 388 630 c 0
 240 630 144 483 144 343 c 0
 144 187 230 31 404 31 c 0
 465.386 31 507.236 49.4602 536 75.0752 c 0
 575.18 109.966 590.08 158.131 597 191 c 1
 611 191 629 183 629 183 c 1
 629 163 608 51 594 39 c 1
 539 8 471 -6 379 -6 c 0
 181 -6 45 145 45 322 c 0
 45 509 186 667 383 667 c 0
EndSplineSet
Validated: 513
Substitution2: "'sinf' Scientific Inferiors lookup 5-1" C.sinf
Substitution2: "'sups' Superscript lookup 6-1" C.ssup
Substitution2: "'subs' Subscript lookup 1-1" C.subs
Substitution2: "'ordn' Ordinals lookup 0-1" C.ordn
EndChar

StartChar: D
Encoding: 68 68 35
Width: 710
Flags: W
HStem: -3 35<41.6716 113.212 210.782 388.991> 624 34<207.918 374.064> 633 29<39.7894 110.637>
VStem: 116.386 88<46.3146 620.395> 557.386 99<197.68 448.61>
LayerCount: 2
Fore
SplineSet
204.386 539 m 2xd8
 204.386 118 l 0
 204.386 104 205.386 52 210.386 46 c 0
 218.386 35 255.386 32 292.386 32 c 0
 434.386 32 557.386 118 557.386 313 c 0
 557.386 539 422.386 624 278.386 624 c 0
 266.386 624 212.386 623 209.386 613 c 0
 204.386 597 204.386 568 204.386 539 c 2xd8
305.386 658 m 0
 524.386 658 656.386 519 656.386 334 c 0
 656.386 164 574.386 -3 292.386 -3 c 0
 248.386 -3 81.3857 -3 42.3857 -3 c 1
 37.3857 2 38.3857 21 42.3857 26 c 1
 54.3857 26 108.386 31 111.386 42 c 0
 116.386 58 116.386 86 116.386 116 c 2
 116.386 543 l 2
 116.386 573 116.386 601 111.386 617 c 0
 108.386 628 54.3857 633 42.3857 633 c 1
 38.3857 638 37.3857 657 42.3857 662 c 1xb8
 83.3857 660 121.386 657 160.386 657 c 0
 199.386 657 261.386 658 305.386 658 c 0
EndSplineSet
Validated: 513
Substitution2: "'sinf' Scientific Inferiors lookup 5-1" D.sinf
Substitution2: "'sups' Superscript lookup 6-1" D.ssup
Substitution2: "'subs' Subscript lookup 1-1" D.subs
Substitution2: "'ordn' Ordinals lookup 0-1" D.ordn
EndChar

StartChar: E
Encoding: 69 69 36
Width: 585
Flags: W
HStem: -3 29<39.7894 110.637> 0 37<209.997 442.86> 312 37<203.386 380.837> 408 20G<420.886 427.886> 621 36<206.735 434.839> 633 29<39.9344 110.637>
VStem: 116.386 87<47.2663 310.528 349.429 616.995> 409.386 32<230.002 289.298 372.014 427.976> 479.386 32<523.07 569.412>
LayerCount: 2
Fore
SplineSet
160.386 657 m 4x3b80
 254.386 657 373.386 664 482.386 664 c 5
 489.386 614 502.386 573 511.386 528 c 5
 508.386 525 500.386 523 493.386 523 c 4
 486.386 523 480.386 525 479.386 530 c 4
 457.386 610 416.386 621 363.386 621 c 6
 277.386 621 l 4
 265.386 621 211.386 620 208.386 610 c 4
 203.386 594 203.386 566 203.386 539 c 6
 203.386 355 l 6
 203.386 350 224.386 349 246.386 349 c 6
 299.386 349 l 6
 395.386 349 392.386 355 409.386 421 c 4
 410.386 426 417.386 428 424.386 428 c 4
 431.386 428 438.386 426 441.386 423 c 5
 441.386 234 l 5
 439.386 232 432.386 230 425.386 230 c 4
 418.386 230 411.386 233 409.386 238 c 4
 394.386 295 390.386 298 381.386 304 c 4
 370.386 311 313.386 312 275.386 312 c 4
 247.386 312 203.386 312 203.386 303 c 6
 203.386 116 l 6
 203.386 101 203.386 52 209.386 47 c 4
 222.386 37 238.386 37 280.386 37 c 6
 328.386 37 l 6
 375.386 37 426.386 44 454.386 61 c 4
 486.386 80 501.386 119 517.386 162 c 4
 518.386 166 524.386 168 531.386 168 c 4
 541.386 168 553.386 165 556.386 162 c 5
 537.386 108 509.386 40 502.386 -4 c 5
 393.386 -4 294.386 0 161.386 0 c 4x7b80
 114.386 0 81.3857 -3 42.3857 -3 c 5
 37.3857 2 38.3857 21 42.3857 26 c 5
 54.3857 26 108.386 31 111.386 42 c 4
 116.386 58 116.386 86 116.386 116 c 6
 116.386 543 l 6
 116.386 573 116.386 601 111.386 617 c 4
 108.386 628 54.3857 633 42.3857 633 c 5
 38.3857 638 37.3857 657 42.3857 662 c 5xb780
 83.3857 660 121.386 657 160.386 657 c 4x3b80
EndSplineSet
Validated: 513
Substitution2: "'sinf' Scientific Inferiors lookup 5-1" E.sinf
Substitution2: "'sups' Superscript lookup 6-1" E.ssup
Substitution2: "'subs' Subscript lookup 1-1" E.subs
Substitution2: "'ordn' Ordinals lookup 0-1" E.ordn
EndChar

StartChar: F
Encoding: 70 70 37
Width: 532
Flags: W
HStem: -3 29<39.7894 110.637 209.198 289.982> 312 37<203.386 380.837> 408 20G<420.886 427.886> 621 36<206.735 434.839> 633 29<39.9344 110.637>
VStem: 116.386 87<33.4148 310.528 349.429 616.995> 409.386 32<230.002 289.298 372.014 427.976> 479.386 32<523.07 569.412>
LayerCount: 2
Fore
SplineSet
160.386 657 m 0xf7
 254.386 657 373.386 664 482.386 664 c 1
 489.386 614 502.386 573 511.386 528 c 1
 508.386 525 500.386 523 493.386 523 c 0
 486.386 523 480.386 525 479.386 530 c 0
 457.386 610 416.386 621 363.386 621 c 2
 277.386 621 l 0xf7
 265.386 621 211.386 620 208.386 610 c 0
 203.386 594 203.386 566 203.386 539 c 2
 203.386 355 l 2
 203.386 350 224.386 349 246.386 349 c 2
 299.386 349 l 2
 395.386 349 392.386 355 409.386 421 c 0
 410.386 426 417.386 428 424.386 428 c 0
 431.386 428 438.386 426 441.386 423 c 1
 441.386 234 l 1
 439.386 232 432.386 230 425.386 230 c 0
 418.386 230 411.386 233 409.386 238 c 0
 394.386 295 390.386 298 381.386 304 c 0
 370.386 311 313.386 312 275.386 312 c 0
 247.386 312 203.386 312 203.386 303 c 2
 203.386 116 l 2
 203.386 86 203.386 58 208.386 42 c 0
 211.386 31 275.386 26 287.386 26 c 1
 291.386 21 292.386 2 287.386 -3 c 1
 246.386 -1 199.386 2 160.386 2 c 0
 113.386 2 81.3857 -3 42.3857 -3 c 1
 37.3857 2 38.3857 21 42.3857 26 c 1
 54.3857 26 108.386 31 111.386 42 c 0
 116.386 58 116.386 86 116.386 116 c 2
 116.386 543 l 2
 116.386 573 116.386 601 111.386 617 c 0
 108.386 628 54.3857 633 42.3857 633 c 1
 38.3857 638 37.3857 657 42.3857 662 c 1xef
 83.3857 660 121.386 657 160.386 657 c 0xf7
EndSplineSet
Validated: 513
Substitution2: "'sinf' Scientific Inferiors lookup 5-1" F.sinf
Substitution2: "'sups' Superscript lookup 6-1" F.ssup
Substitution2: "'subs' Subscript lookup 1-1" F.subs
Substitution2: "'ordn' Ordinals lookup 0-1" F.ordn
EndChar

StartChar: G
Encoding: 71 71 38
Width: 718
Flags: W
HStem: -6 37<308.129 502.174> 265 29<450.404 526.22 623.723 690.596> 630 37<304.034 488.783>
VStem: 45 99<212.865 446.975> 532 86<64.4681 257.925> 584 34<483.297 537.608>
LayerCount: 2
Fore
SplineSet
532 175 m 2xf8
 532 205 532 233 527 249 c 0
 524 260 465 265 453 265 c 1
 449 270 448 289 453 294 c 1
 494 292 537 289 576 289 c 0
 615 289 647 292 688 294 c 1
 693 289 692 270 688 265 c 1
 676 265 626 260 623 249 c 0
 618 233 618 205 618 175 c 2
 618 175 618 114 618 104 c 0xf8
 618 83 628 74 628 64 c 0
 628 58 625 55 608 46 c 0
 565 23 511 -6 379 -6 c 0
 181 -6 45 145 45 322 c 0
 45 509 186 667 383 667 c 0
 449 667 521 662 595 646 c 1
 595 646 618 508 618 498 c 1
 618 488 607 483 597 483 c 0
 591 483 586 485 584 488 c 1xf4
 578 519 555 630 388 630 c 0
 240 630 144 483 144 343 c 0
 144 187 229 31 404 31 c 0
 456 31 495 44 525 59 c 0
 531 62 532 67 532 74 c 0
 532 101 532 175 532 175 c 2xf8
EndSplineSet
Validated: 513
Substitution2: "'sinf' Scientific Inferiors lookup 5-1" G.sinf
Substitution2: "'sups' Superscript lookup 6-1" G.ssup
Substitution2: "'subs' Subscript lookup 1-1" G.subs
Substitution2: "'ordn' Ordinals lookup 0-1" G.ordn
EndChar

StartChar: H
Encoding: 72 72 39
Width: 725
Flags: W
HStem: -3 32<39.8895 111.385 208.387 279.882 440.889 512.385 609.387 680.882> 325 34<204.582 517.386> 630 32<39.8895 111.385 208.387 279.882 440.889 512.385 609.387 680.882>
VStem: 116.386 87<35.7426 318.953 362.001 623.257> 517.386 87<35.7426 320.999 362.001 623.257>
LayerCount: 2
Fore
SplineSet
160.386 657 m 0
 199.386 657 236.386 660 277.386 662 c 1
 282.386 657 281.386 635 277.386 630 c 1
 265.386 630 211.386 625 208.386 614 c 0
 203.386 598 203.386 570 203.386 540 c 2
 203.386 365 l 1
 203.386 363 205.386 362 205.386 362 c 1
 254.386 361 306.386 359 362.386 359 c 0
 409.386 359 470.386 361 515.386 362 c 1
 515.386 362 517.386 364 517.386 366 c 0
 517.386 434 517.386 540 517.386 540 c 2
 517.386 570 517.386 598 512.386 614 c 0
 509.386 625 455.386 630 443.386 630 c 1
 439.386 635 438.386 657 443.386 662 c 1
 484.386 660 522.386 657 561.386 657 c 0
 600.386 657 637.386 660 678.386 662 c 1
 683.386 657 682.386 635 678.386 630 c 1
 666.386 630 612.386 625 609.386 614 c 0
 604.386 598 604.386 570 604.386 540 c 2
 604.386 119 l 2
 604.386 89 604.386 61 609.386 45 c 0
 612.386 34 666.386 29 678.386 29 c 1
 682.386 24 683.386 2 678.386 -3 c 1
 637.386 -1 600.386 2 561.386 2 c 0
 522.386 2 484.386 -1 443.386 -3 c 1
 438.386 2 439.386 24 443.386 29 c 1
 455.386 29 509.386 34 512.386 45 c 0
 517.386 61 517.386 89 517.386 119 c 2
 517.386 317 l 1
 517.386 319 515.386 321 515.386 321 c 1
 468.386 322 413.386 325 362.386 325 c 0
 223.386 325 208.386 321 204.386 319 c 1
 203.386 318 203.386 317 203.386 317 c 1
 203.386 119 l 2
 203.386 89 203.386 61 208.386 45 c 0
 211.386 34 265.386 29 277.386 29 c 1
 281.386 24 282.386 2 277.386 -3 c 1
 236.386 -1 199.386 2 160.386 2 c 0
 121.386 2 83.3857 -1 42.3857 -3 c 1
 37.3857 2 38.3857 24 42.3857 29 c 1
 54.3857 29 108.386 34 111.386 45 c 0
 116.386 61 116.386 89 116.386 119 c 2
 116.386 540 l 2
 116.386 570 116.386 598 111.386 614 c 0
 108.386 625 54.3857 630 42.3857 630 c 1
 38.3857 635 37.3857 657 42.3857 662 c 1
 83.3857 660 121.386 657 160.386 657 c 0
EndSplineSet
Validated: 513
Substitution2: "'sinf' Scientific Inferiors lookup 5-1" H.sinf
Substitution2: "'sups' Superscript lookup 6-1" H.ssup
Substitution2: "'subs' Subscript lookup 1-1" H.subs
Substitution2: "'ordn' Ordinals lookup 0-1" H.ordn
EndChar

StartChar: I
Encoding: 73 73 40
Width: 323
Flags: W
HStem: -3 29<39.7894 110.637 209.134 279.982> 633 29<39.7894 110.637 209.134 279.982>
VStem: 116.386 87<32.7426 626.257>
LayerCount: 2
Fore
SplineSet
160.386 657 m 0
 199.386 657 236.386 660 277.386 662 c 1
 282.386 657 281.386 638 277.386 633 c 1
 265.386 633 211.386 628 208.386 617 c 0
 203.386 601 203.386 573 203.386 543 c 2
 203.386 116 l 6
 203.386 86 203.386 58 208.386 42 c 4
 211.386 31 265.386 26 277.386 26 c 5
 281.386 21 282.386 2 277.386 -3 c 1
 236.386 -1 199.386 2 160.386 2 c 0
 121.386 2 83.3857 -1 42.3857 -3 c 1
 37.3857 2 38.3857 21 42.3857 26 c 5
 54.3857 26 108.386 31 111.386 42 c 4
 116.386 58 116.386 86 116.386 116 c 6
 116.386 543 l 2
 116.386 573 116.386 601 111.386 617 c 0
 108.386 628 54.3857 633 42.3857 633 c 1
 38.3857 638 37.3857 657 42.3857 662 c 1
 83.3857 660 121.386 657 160.386 657 c 0
EndSplineSet
Validated: 513
Substitution2: "'sinf' Scientific Inferiors lookup 5-1" I.sinf
Substitution2: "'sups' Superscript lookup 6-1" I.ssup
Substitution2: "'subs' Subscript lookup 1-1" I.subs
Substitution2: "'ordn' Ordinals lookup 0-1" I.ordn
EndChar

StartChar: J
Encoding: 74 74 41
Width: 301
Flags: W
HStem: -227 48<-47 57.0717> 633 29<34.4037 105.252 203.748 274.596>
VStem: 111 87<-40.7974 626.257>
LayerCount: 2
Fore
SplineSet
155 657 m 0
 194 657 231 660 272 662 c 1
 277 657 276 638 272 633 c 1
 260 633 206 628 203 617 c 0
 198 601 198 573 198 543 c 2
 198 116 l 2
 198 -92 109 -227 -36 -227 c 0
 -58 -227 -87 -217 -99 -209 c 1
 -104 -204 -107 -193 -107 -186 c 0
 -107 -155 -88 -131 -56 -131 c 0
 -38 -131 -23 -145 -9 -158 c 0
 3 -169 19 -179 32 -179 c 0
 64 -179 111 -126 111 116 c 2
 111 543 l 2
 111 573 111 601 106 617 c 0
 103 628 49 633 37 633 c 1
 33 638 32 657 37 662 c 1
 78 660 116 657 155 657 c 0
EndSplineSet
Validated: 513
Substitution2: "'sinf' Scientific Inferiors lookup 5-1" J.sinf
Substitution2: "'sups' Superscript lookup 6-1" J.ssup
Substitution2: "'subs' Subscript lookup 1-1" J.subs
Substitution2: "'ordn' Ordinals lookup 0-1" J.ordn
EndChar

StartChar: K
Encoding: 75 75 42
Width: 653
Flags: W
HStem: -3 32<39.8894 111.385 208.387 279.882 587.286 658.168> 630 32<39.8894 111.385 208.387 279.882 399.848 456.566 550.029 625.468>
VStem: 116.386 87<35.7426 306.999 343 623.257>
LayerCount: 2
Fore
SplineSet
160.386 657 m 0
 199.386 657 236.386 660 277.386 662 c 1
 282.386 657 281.386 635 277.386 630 c 1
 265.386 630 211.386 625 208.386 614 c 0
 203.386 598 203.386 570 203.386 540 c 2
 203.386 343 l 1
 224.386 356 275.386 402 316.386 442 c 0
 394.386 519 396.386 517 443.386 578 c 0
 449.386 586 457.386 599 457.386 609 c 0
 457.386 634 410.386 631 401.386 631 c 1
 398.386 637 398.386 653 401.386 662 c 1
 438.386 660 479.386 656 516.386 656 c 0
 560.386 656 584.386 660 624.386 662 c 1
 626.386 656 627.386 631 622.386 631 c 0
 613.386 630 557.386 631 523.386 594 c 0
 437.386 500 381.386 450 294.386 366 c 0
 288.386 360 292.386 355 296.386 350 c 0
 392.386 238 471.386 145 548.386 72 c 0
 573.386 49 602.386 30 657.386 26 c 1
 662.386 21 657.386 -1 656.386 -3 c 1
 589.386 -3 534.386 1 514.386 8 c 0
 500.386 13 474.386 23 446.386 51 c 0
 425.386 72 334.386 175 221.386 304 c 0
 219.386 307 216.386 307 212.386 307 c 0
 209.386 307 205.386 306 203.386 305 c 1
 203.386 119 l 2
 203.386 89 203.386 61 208.386 45 c 0
 211.386 34 265.386 29 277.386 29 c 1
 281.386 24 282.386 2 277.386 -3 c 1
 236.386 -1 199.386 2 160.386 2 c 0
 121.386 2 83.3857 -1 42.3857 -3 c 1
 37.3857 2 38.3857 24 42.3857 29 c 1
 54.3857 29 108.386 34 111.386 45 c 0
 116.386 61 116.386 89 116.386 119 c 2
 116.386 540 l 2
 116.386 570 116.386 598 111.386 614 c 0
 108.386 625 54.3857 630 42.3857 630 c 1
 38.3857 635 37.3857 657 42.3857 662 c 1
 83.3857 660 121.386 657 160.386 657 c 0
EndSplineSet
Validated: 545
Substitution2: "'sinf' Scientific Inferiors lookup 5-1" K.sinf
Substitution2: "'sups' Superscript lookup 6-1" K.ssup
Substitution2: "'subs' Subscript lookup 1-1" K.subs
Substitution2: "'ordn' Ordinals lookup 0-1" K.ordn
EndChar

StartChar: L
Encoding: 76 76 43
Width: 560
Flags: W
HStem: -3 29<39.7894 110.638> 0 37<209.998 444.42> 633 29<39.7894 110.638 209.134 279.982>
VStem: 116.386 87<47.2685 626.257>
LayerCount: 2
Fore
SplineSet
203.386 119 m 2xb0
 203.386 104 203.386 52 209.386 47 c 0
 222.386 37 238.386 37 280.386 37 c 2
 337.386 37 l 2
 375.386 37 426.386 42 454.386 61 c 0
 479.386 78 501.386 109 517.386 162 c 0
 518.386 166 524.386 168 531.386 168 c 0
 541.386 168 553.386 165 556.386 162 c 1
 537.386 108 509.386 40 502.386 -4 c 1
 393.386 -4 294.386 0 161.386 0 c 0x70
 114.386 0 81.3857 -3 42.3857 -3 c 1
 37.3857 2 38.3857 21 42.3857 26 c 1
 54.3857 26 108.386 31 111.386 42 c 0
 116.386 58 116.386 86 116.386 116 c 2
 116.386 543 l 2
 116.386 573 116.386 601 111.386 617 c 0
 108.386 628 54.3857 633 42.3857 633 c 1
 38.3857 638 37.3857 657 42.3857 662 c 1
 83.3857 660 121.386 657 160.386 657 c 0
 199.386 657 236.386 660 277.386 662 c 1
 282.386 657 281.386 638 277.386 633 c 1
 265.386 633 211.386 628 208.386 617 c 0
 203.386 601 203 573 203.386 543 c 2
 203.386 119 l 2xb0
EndSplineSet
Validated: 545
Substitution2: "'sinf' Scientific Inferiors lookup 5-1" L.sinf
Substitution2: "'sups' Superscript lookup 6-1" L.ssup
Substitution2: "'subs' Subscript lookup 1-1" L.subs
Substitution2: "'ordn' Ordinals lookup 0-1" L.ordn
EndChar

StartChar: M
Encoding: 77 77 44
Width: 903
Flags: W
HStem: -3 29<21.4908 99.656 168.458 246.963 629.491 695.726 800.386 870.67> 633 29<55.0572 118.455 785.222 850.324>
VStem: 116.31 45<37.5115 289.668> 130.31 44<371.361 583.939> 690.31 86<325.272 584.822> 705.31 81<37.202 383.21>
LayerCount: 2
Fore
SplineSet
159.31 657 m 0xd0
 193.31 657 218.31 660 240.31 662 c 1
 260.31 599 381.31 324 452.31 146 c 0
 453.31 144 455.31 144 456.31 144 c 0
 457.31 144 460.31 145 461.31 148 c 0
 520.31 300 556.31 394 614.31 542 c 0
 632.31 588 658.31 662 658.31 662 c 1
 690.31 660 718.31 658 737.31 658 c 0
 772.31 658 824.31 660 849.31 662 c 1
 850.31 659 852.31 633 852.31 633 c 17
 838.31 633 786.31 625 781.31 615 c 0
 777.31 606 776.31 589 776.31 577 c 0xd8
 778.31 508 783.31 270 786.31 140 c 0
 787.31 101 789.31 67 798.31 43 c 0
 803.31 29 860.31 26 868.31 26 c 1
 873.31 17 871.31 0 870.31 -3 c 1
 830.31 -1 795.31 2 751.31 2 c 0
 705.31 2 677.31 -1 631.31 -3 c 1
 629.31 -1 627.31 18 631.31 26 c 1
 643.31 26 684.31 30 696.31 37 c 0
 703.31 41 705.31 65 705.31 79 c 0xc4
 705.31 93 703.31 122 703.31 137 c 0
 699.31 281 696.31 403 690.31 565 c 0
 690.31 569 688.31 585 681.31 585 c 0
 679.31 585 678.31 583 676.31 578 c 8
 594.31 372 542.31 242 465.31 49 c 0
 461.31 40 438.31 0 427.31 -2 c 0
 424.31 -3 421.31 -1 418.31 0 c 1
 174.31 584 l 1xd8
 170.31 366 161.31 85 161.31 75 c 0
 161.31 66 162.31 52 165.31 44 c 0
 171.31 29 236.31 26 244.31 26 c 1
 249.31 20 247.31 0 246.31 -3 c 1
 206.31 -1 184.31 2 140.31 2 c 0
 94.3096 2 69.3096 -1 23.3096 -3 c 1
 21.3096 -1 19.3096 18 23.3096 26 c 1
 35.3096 26 95.3096 31 104.31 44 c 0
 113.31 57 115.31 73 116.31 94 c 0xe0
 125.31 334 130.31 554 130.31 572 c 0
 130.31 586 130.31 601 126.31 612 c 0
 122.31 624 68.3096 633 56.3096 633 c 1
 54.3096 633 54.3096 660 56.3096 662 c 1
 102.31 660 113.31 657 159.31 657 c 0xd0
EndSplineSet
Validated: 513
Substitution2: "'sinf' Scientific Inferiors lookup 5-1" M.sinf
Substitution2: "'sups' Superscript lookup 6-1" M.ssup
Substitution2: "'subs' Subscript lookup 1-1" M.subs
Substitution2: "'ordn' Ordinals lookup 0-1" M.ordn
EndChar

StartChar: N
Encoding: 78 78 45
Width: 773
Flags: W
HStem: -3 29<34.0771 106.331 189.917 260.854> 634 29<34.3351 110.012 519.238 590.175 673.761 746.015>
VStem: 124.046 48<46.7508 568.502> 608.046 48<166 613.249>
LayerCount: 2
Fore
SplineSet
140.046 660 m 0
 170.046 660 202.046 661 216.046 662 c 1
 267.046 582 497.046 321 608.046 166 c 1
 608.046 224 l 0
 608.046 545 l 2
 608.046 581 608.046 598 598.046 614 c 0
 592.046 624 538.046 634 522.046 634 c 1
 517.046 641 518.046 657 520.046 663 c 1
 560.046 661 591.046 658 635.046 658 c 0
 681.046 658 698.046 661 744.046 663 c 1
 747.046 658 749.046 645 744.046 634 c 1
 732.046 634 673.046 626 666.046 614 c 0
 657.046 599 656.046 584 656.046 546 c 2
 656.046 139 l 2
 656.046 81 657.046 51 659.046 -1 c 1
 656.046 -4 644.046 -5 641.046 -5 c 0
 632.046 -5 618.046 4 608.046 18 c 2
 172.046 569 l 1
 172.046 115 l 2
 172.046 79 172.046 62 182.046 46 c 0
 188.046 36 242.046 26 258.046 26 c 1
 263.046 19 262.046 3 260.046 -3 c 1
 220.046 -1 189.046 2 145.046 2 c 0
 99.0459 2 82.0459 -1 36.0459 -3 c 1
 33.0459 2 31.0459 15 36.0459 26 c 1
 48.0459 26 107.046 34 114.046 46 c 0
 123.046 61 124.046 76 124.046 114 c 2
 124.046 548 l 2
 124.046 586 123.046 601 114.046 616 c 0
 107.046 628 48.0459 636 36.0459 636 c 1
 31.0459 647 33.0459 660 36.0459 665 c 1
 82.0459 663 107.046 660 140.046 660 c 0
EndSplineSet
Validated: 513
Substitution2: "'sinf' Scientific Inferiors lookup 5-1" N.sinf
Substitution2: "'sups' Superscript lookup 6-1" N.ssup
Substitution2: "'subs' Subscript lookup 1-1" N.subs
Substitution2: "'ordn' Ordinals lookup 0-1" N.ordn
EndChar

StartChar: O
Encoding: 79 79 46
Width: 748
Flags: W
HStem: -10 37<305.874 466.033> 630 37<274.613 434.715>
VStem: 46 99<214.231 447.375> 597 99<209.819 443.304>
LayerCount: 2
Fore
SplineSet
355 630 m 0
 205 630 145 484 145 350 c 0
 145 195 231 27 386 27 c 0
 536 27 597 174 597 309 c 0
 597 464 510 630 355 630 c 0
370 667 m 0
 546 667 696 527 696 328 c 0
 696 141 546 -10 370 -10 c 0
 194 -10 46 130 46 328 c 0
 46 515 194 667 370 667 c 0
EndSplineSet
Validated: 513
Substitution2: "'sinf' Scientific Inferiors lookup 5-1" O.sinf
Substitution2: "'sups' Superscript lookup 6-1" O.ssup
Substitution2: "'subs' Subscript lookup 1-1" O.subs
Substitution2: "'ordn' Ordinals lookup 0-1" O.ordn
EndChar

StartChar: P
Encoding: 80 80 47
Width: 546
Flags: W
HStem: -3 29<39.7894 110.637 209.134 279.982> 273 36<249.642 350.696> 624 35<208.595 342.253> 633 29<39.7894 110.637>
VStem: 116.386 87<32.7426 613.422> 423.386 92<382.235 553.204>
LayerCount: 2
Fore
SplineSet
515.386 486 m 0xec
 515.386 353 429.386 273 298.386 273 c 0
 275.386 273 261.386 278 253.386 283 c 0
 250.386 285 236.386 300 236.386 305 c 0
 236.386 309 239.386 312 241.386 313 c 1
 252.386 310 263.386 309 278.386 309 c 0
 358.386 309 423.386 362 423.386 462 c 0
 423.386 561 369.386 624 258.386 624 c 0xec
 246.386 624 212.386 623 208.386 614 c 0
 203.386 602 203.386 569 203.386 539 c 2
 203.386 116 l 2
 203.386 86 203.386 58 208.386 42 c 0
 211.386 31 265.386 26 277.386 26 c 1
 281.386 21 282.386 2 277.386 -3 c 1
 236.386 -1 199.386 2 160.386 2 c 0
 121.386 2 83.3857 -1 42.3857 -3 c 1
 37.3857 2 38.3857 21 42.3857 26 c 1
 54.3857 26 108.386 31 111.386 42 c 0
 116.386 58 116.386 86 116.386 116 c 2
 116.386 543 l 2
 116.386 573 116.386 601 111.386 617 c 0
 108.386 628 54.3857 633 42.3857 633 c 1
 38.3857 638 37.3857 657 42.3857 662 c 1xdc
 83.3857 660 124.386 657 163.386 657 c 0
 202.386 657 246.386 659 305.386 659 c 0
 396.386 659 515.386 600 515.386 486 c 0xec
EndSplineSet
Validated: 513
Substitution2: "'sinf' Scientific Inferiors lookup 5-1" P.sinf
Substitution2: "'sups' Superscript lookup 6-1" P.ssup
Substitution2: "'subs' Subscript lookup 1-1" P.subs
Substitution2: "'ordn' Ordinals lookup 0-1" P.ordn
EndChar

StartChar: Q
Encoding: 81 81 48
Width: 743
Flags: W
HStem: -136 55<576.579 711.391> 630 37<274.613 434.715>
VStem: 46 99<215.615 447.375> 597 99<206.994 443.304>
LayerCount: 2
Fore
SplineSet
370 667 m 0
 546 667 696 527 696 328 c 0
 696 175 596 46 463 4 c 1
 559 -42 579 -81 682 -81 c 0
 722 -81 746 -77 753 -75 c 1
 759.551 -75 768.112 -77.6819 771 -81.9476 c 0
 771.639 -82.8915 772 -83.9129 772 -85 c 1
 717 -114 667 -136 606 -136 c 0
 499 -136 420 -33 290 0 c 0
 151 35 46 161 46 328 c 0
 46 515 194 667 370 667 c 0
355 630 m 0
 205 630 145 484 145 350 c 0
 145 195 231 27 386 27 c 0
 536 27 597 174 597 309 c 0
 597 464 510 630 355 630 c 0
EndSplineSet
Validated: 513
Substitution2: "'sinf' Scientific Inferiors lookup 5-1" Q.sinf
Substitution2: "'sups' Superscript lookup 6-1" Q.ssup
Substitution2: "'subs' Subscript lookup 1-1" Q.subs
Substitution2: "'ordn' Ordinals lookup 0-1" Q.ordn
EndChar

StartChar: R
Encoding: 82 82 49
Width: 615
Flags: W
HStem: -3 29<39.7894 110.638 209.134 279.982 583.951 644.168> 302 31<203.386 286.384> 624 35<208.595 335.725> 633 29<39.7894 110.638>
VStem: 116.386 87<32.7426 302 333 613.422> 413.386 92<415.593 556.308>
LayerCount: 2
Fore
SplineSet
305.386 659 m 4xec
 396.386 659 505.386 600 505.386 486 c 4
 505.386 414 436.386 350 367.386 325 c 5
 420.386 237 464.386 173 530.386 86 c 4
 559.386 48 588.386 30 643.386 26 c 5
 648.386 21 643.386 -1 642.386 -3 c 5
 575.386 -3 530.386 2 510.386 9 c 4
 496.386 14 469.386 22 445.386 53 c 4
 430.386 73 349.386 192 286.386 290 c 4
 280.386 299 270.386 302 256.386 302 c 4
 256.386 302 212.386 302 203.386 302 c 5
 203.386 229 203.386 116 203.386 116 c 5
 203.386 86 203.386 58 208.386 42 c 4
 211.386 31 265.386 26 277.386 26 c 5
 281.386 21 282.386 2 277.386 -3 c 5
 236.386 -1 199.386 2 160.386 2 c 4
 121.386 2 83.3857 -1 42.3857 -3 c 5
 37.3857 2 38.3857 21 42.3857 26 c 5
 54.3857 26 108.386 31 111.386 42 c 4
 116.386 58 116.386 86 116.386 116 c 6
 116.386 543 l 6
 116.386 573 116.386 601 111.386 617 c 4
 108.386 628 54.3857 633 42.3857 633 c 5
 38.3857 638 37.3857 657 42.3857 662 c 5xdc
 83.3857 660 124.386 657 163.386 657 c 4
 202.386 657 246.386 659 305.386 659 c 4xec
413.386 462 m 4
 413.386 551 369.386 624 258.386 624 c 4xec
 246.386 624 212.386 623 208.386 614 c 4
 203.386 602 203.386 569 203.386 539 c 6
 203.386 333 l 5
 203.386 333 236.386 333 257.386 333 c 20
 342.386 333 413.386 385 413.386 462 c 4
EndSplineSet
Validated: 513
Substitution2: "'sinf' Scientific Inferiors lookup 5-1" R.sinf
Substitution2: "'sups' Superscript lookup 6-1" R.ssup
Substitution2: "'subs' Subscript lookup 1-1" R.subs
Substitution2: "'ordn' Ordinals lookup 0-1" R.ordn
EndChar

StartChar: S
Encoding: 83 83 50
Width: 503
Flags: W
HStem: -10 37<171.319 316.85> 629 37<185.66 314.265>
VStem: 48 37<119.655 183.84> 64 80<454.853 570.984> 371 87<89.4127 213.651>
LayerCount: 2
Fore
SplineSet
260 666 m 0xd8
 322 666 345 653 411 638 c 1
 419 586 421 522 423 495 c 0
 423.517 488.019 416 488 413 488 c 0
 409 488 389 488 387 498 c 0
 381 548 332 629 253 629 c 0
 165 629 144 569 144 521 c 0xd8
 144 441 218 408 284 366 c 0
 350 324 458 272 458 173 c 0
 458 63 356 -10 249 -10 c 0
 181 -10 118 9 69 19 c 1
 57 78 48 162 48 174 c 1
 50 178 69 186 76 186 c 0
 81 186 83.8906 182.27 85 177 c 0xe8
 93 139 119 27 251 27 c 0
 313 27 371 68 371 146 c 0
 371 229 307 250 238 290 c 0
 161 335 64 389 64 490 c 0
 64 596 160 666 260 666 c 0xd8
EndSplineSet
Validated: 513
Substitution2: "'sinf' Scientific Inferiors lookup 5-1" S.sinf
Substitution2: "'sups' Superscript lookup 6-1" S.ssup
Substitution2: "'subs' Subscript lookup 1-1" S.subs
Substitution2: "'ordn' Ordinals lookup 0-1" S.ordn
EndChar

StartChar: T
Encoding: 84 84 51
Width: 621
Flags: W
HStem: -3 29<190.404 261.252 359.748 430.596> 624 37<91.4258 267 354 527.638>
VStem: 9 34<499.671 557.649> 267 87<32.7426 624> 576 34<499.671 557.649>
LayerCount: 2
Fore
SplineSet
505 661 m 0
 521 661 553 670 565 676 c 0
 575 681 578 681 584 678 c 1
 591 617 599 559 610 506 c 1
 607 503 599 498 590 499 c 0
 585 499 578 501 576 504 c 1
 562 574 531 624 481 624 c 2
 354 624 l 1
 354 116 l 2
 354 86 354 58 359 42 c 0
 362 31 416 26 428 26 c 1
 432 21 433 2 428 -3 c 1
 387 -1 350 2 311 2 c 0
 272 2 234 -1 193 -3 c 1
 188 2 189 21 193 26 c 1
 205 26 259 31 262 42 c 0
 267 58 267 86 267 116 c 2
 267 624 l 1
 138 624 l 2
 88 624 57 574 43 504 c 1
 41 501 34 499 29 499 c 0
 20 498 12 503 9 506 c 1
 20 559 28 617 35 678 c 1
 41 681 52 678 58 675 c 0
 70 669 98 661 114 661 c 0
 201 661 412 661 505 661 c 0
EndSplineSet
Validated: 513
Substitution2: "'sinf' Scientific Inferiors lookup 5-1" T.sinf
Substitution2: "'sups' Superscript lookup 6-1" T.ssup
Substitution2: "'subs' Subscript lookup 1-1" T.subs
Substitution2: "'ordn' Ordinals lookup 0-1" T.ordn
EndChar

StartChar: U
Encoding: 85 85 52
Width: 719
Flags: W
HStem: -4 58<278.404 473.232> 633 29<23.7894 94.6372 193.134 263.982 482.795 551.648 631.149 705.374>
VStem: 100.386 87<158.243 626.257> 567.386 48<156.61 613.249>
LayerCount: 2
Fore
SplineSet
144.386 657 m 0
 183.386 657 220.386 660 261.386 662 c 1
 266.386 657 265.386 638 261.386 633 c 1
 249.386 633 195.386 628 192.386 617 c 0
 187.386 601 187.386 573 187.386 543 c 2
 187.386 296 l 2
 187.386 212.72 204.199 151.858 236.283 112 c 0
 267.766 72.8879 313.953 54 373.386 54 c 0
 476.386 54 564.386 102 567.386 274 c 2
 567.386 545 l 2
 567.386 581 567.386 598 557.386 614 c 0
 551.386 624 501.386 634 485.386 634 c 1
 480.386 641 481.386 657 483.386 663 c 1
 523.386 661 550.386 658 594.386 658 c 0
 640.386 658 657.386 661 703.386 663 c 1
 706.386 658 708.386 645 703.386 634 c 1
 691.386 634 632.386 626 625.386 614 c 0
 616.386 599 615.386 584 615.386 546 c 2
 615.386 276 l 2
 615.386 76 508.386 -4 352.386 -4 c 0
 280.357 -4 218.411 19.5294 173.962 62 c 0
 127.697 106.205 100.386 170.929 100.386 251 c 2
 100.386 543 l 2
 100.386 573 100.386 601 95.3857 617 c 0
 92.3857 628 38.3857 633 26.3857 633 c 1
 22.3857 638 21.3857 657 26.3857 662 c 1
 67.3857 660 105.386 657 144.386 657 c 0
EndSplineSet
Validated: 513
Substitution2: "'sinf' Scientific Inferiors lookup 5-1" U.sinf
Substitution2: "'sups' Superscript lookup 6-1" U.ssup
Substitution2: "'subs' Subscript lookup 1-1" U.subs
Substitution2: "'ordn' Ordinals lookup 0-1" U.ordn
EndChar

StartChar: V
Encoding: 86 86 53
Width: 629
Flags: W
HStem: -2 21G<298.5 307> 633 29<-10.7524 44.578 178.704 231.288 441.574 495.257 597.396 649.077>
LayerCount: 2
Fore
SplineSet
106.5 657 m 0
 150.5 657 190.5 660 230.5 662 c 1
 232.5 656 232.5 634 228.5 633 c 1
 220.5 633 168.5 628 168.5 600 c 0
 168.5 590.443 173.778 565.907 186.153 532 c 0
 219 442 328 140 331 131.842 c 1
 337 145 432 370 492.5 524 c 16
 501.5 547 510.5 576 510.5 594 c 0
 510.5 626 456.5 633 444.5 633 c 1
 439.5 635 439.5 657 444.5 662 c 1
 481.5 660 513.5 657 550.5 657 c 0
 596.5 657 608.5 660 648.5 662 c 1
 651.5 657 649.5 633 646.5 633 c 1
 638.5 633 599.5 627 582.5 607 c 0
 570.5 593 547.5 544 532.5 506 c 0
 459.5 322 416.5 218 338.5 32 c 0
 327.5 5 313.5 -2 300.5 -2 c 0
 296.5 -2 292.5 10 290.5 14 c 0
 222.5 192 175.5 322 100.5 514 c 0
 85.5 553 71.5 584 54.5 610 c 0
 43.5 626 2.5 633 -9.5 633 c 1
 -11.5 633 -11.5 660 -9.5 662 c 1
 36.5 660 60.5 657 106.5 657 c 0
EndSplineSet
Validated: 513
Substitution2: "'sinf' Scientific Inferiors lookup 5-1" V.sinf
Substitution2: "'sups' Superscript lookup 6-1" V.ssup
Substitution2: "'subs' Subscript lookup 1-1" V.subs
Substitution2: "'ordn' Ordinals lookup 0-1" V.ordn
EndChar

StartChar: W
Encoding: 87 87 54
Width: 890
Flags: W
HStem: -2 21G<253.5 262 615.5 624> 633 29<-9.75244 41.7641 169.704 222.288 694.574 749.71 856 904.077>
LayerCount: 2
Fore
SplineSet
113.5 657 m 0
 157.5 657 181.5 660 221.5 662 c 1
 223.5 656 223.5 634 219.5 633 c 1
 211.5 633 159.5 628 159.5 600 c 1
 159.5 593.495 165.183 570.027 174.714 535 c 0
 197.416 451.571 246.446 294.565 288 153 c 1
 335 308 404 531 433.5 629 c 0
 439.243 648.079 458.5 662 469.5 662 c 0
 473.5 662 476.5 657 481.5 646 c 1
 488.5 624 582 350 649 151 c 1
 692 304 716.5 383 753.5 524 c 0
 759.5 548 765.5 576 765.5 594 c 0
 765.5 626 709.5 633 697.5 633 c 1
 692.5 635 692.5 657 697.5 662 c 1
 734.5 660 768.5 657 805.5 657 c 0
 851.5 657 863.5 660 903.5 662 c 1
 906.5 657 904.5 633 901.5 633 c 1
 893.5 633 857.5 624 837.5 607 c 0
 823.5 595 813.5 572 801.5 531 c 0
 746.5 342 708.5 211 655.5 32 c 0
 650.5 14 630.5 -2 617.5 -2 c 0
 613.5 -2 608.5 10 607.5 14 c 0
 544.5 202 508 307 441 502 c 1
 385 318 346.5 209 293.5 32 c 0
 288.5 14 268.5 -2 255.5 -2 c 0
 251.5 -2 246.5 10 245.5 14 c 0
 187.5 199 146.5 335 85.5 532 c 0
 73.5 572 68.5 595 49.5 613 c 0
 35.5 626 3.5 633 -8.5 633 c 1
 -10.5 633 -10.5 660 -8.5 662 c 1
 37.5 660 67.5 657 113.5 657 c 0
EndSplineSet
Validated: 513
Substitution2: "'sinf' Scientific Inferiors lookup 5-1" W.sinf
Substitution2: "'sups' Superscript lookup 6-1" W.ssup
Substitution2: "'subs' Subscript lookup 1-1" W.subs
Substitution2: "'ordn' Ordinals lookup 0-1" W.ordn
EndChar

StartChar: X
Encoding: 88 88 55
Width: 660
Flags: W
HStem: -3 29<-10.6848 56.0769 156.467 225.648 413.457 464.963 598.511 666.318> 633 29<28.457 83.9709 231.45 285.43 426.249 490.53 588.89 645.663>
LayerCount: 2
Fore
SplineSet
156.27 657 m 0
 205.27 657 244.27 660 284.27 662 c 1
 286.27 656 287.27 633 282.27 633 c 0
 268.27 633 222.27 627 222.27 601 c 0
 222.27 593 226.27 583 234.27 571 c 2
 351.27 392 l 1
 411.27 472 478.27 564 493.27 592 c 0
 494.27 595 498.27 602 498.27 608 c 0
 498.27 614 485.27 632 429.27 632 c 1
 425.27 633 424.27 654 427.27 661 c 1
 467.27 658 497.27 656 534.27 656 c 0
 586.27 656 620.27 659 644.27 661 c 1
 647.27 656 648.27 638 642.27 632 c 1
 634.27 632 582.27 628 554.27 592 c 0
 478.27 495 444.27 457 372.27 361 c 1
 566.27 66 l 2
 585.27 37 631.27 26 664.27 26 c 1
 668.27 21 666.27 -1 665.27 -3 c 1
 625.27 -1 603.27 2 562.27 2 c 0
 506.27 2 472.27 -1 416.27 -3 c 1
 411.27 2 411.27 26 416.27 26 c 0
 427.27 26 474.27 35 474.27 54 c 0
 474.27 57 471.27 63 469.27 66 c 2
 317.27 300 l 1
 257.27 220 168.27 94 153.27 66 c 0
 152.27 63 148.27 56 148.27 50 c 0
 148.27 44 167.27 26 223.27 26 c 1
 227.27 20 227.27 0 225.27 -3 c 1
 188.27 -1 149.27 2 112.27 2 c 0
 60.2695 2 29.2695 -1 -10.7305 -3 c 1
 -13.7305 3 -10.7305 23 -8.73047 26 c 1
 -0.730469 26 64.2695 30 92.2695 66 c 0
 168.27 163 222.27 236 294.27 332 c 1
 255.27 392 153.27 548 153.27 548 c 2
 130.27 584 115.27 601 87.2695 617 c 0
 70.2695 627 43.2695 633 31.2695 633 c 0
 26.2695 633 26.2695 657 31.2695 662 c 1
 80.2695 660 107.27 657 156.27 657 c 0
EndSplineSet
Validated: 513
Substitution2: "'sinf' Scientific Inferiors lookup 5-1" X.sinf
Substitution2: "'sups' Superscript lookup 6-1" X.ssup
Substitution2: "'subs' Subscript lookup 1-1" X.subs
Substitution2: "'ordn' Ordinals lookup 0-1" X.ordn
EndChar

StartChar: Y
Encoding: 89 89 56
Width: 590
Flags: W
HStem: -3 29<181.154 252.002 350.498 421.346> 633 29<-16.0625 39.4514 186.931 240.911 386.478 451.858 538.74 600.225>
VStem: 257.75 87<32.7426 318.719>
LayerCount: 2
Fore
SplineSet
257.75 116 m 6
 257.75 267 l 4
 257.75 274 256 285 250.75 295 c 20
 192.75 400 167.75 442 108.75 548 c 4
 87.75 585 70.75 601 42.75 617 c 4
 25.75 627 -1.25 633 -13.25 633 c 4
 -18.25 633 -18.25 657 -13.25 662 c 5
 35.75 660 62.75 657 111.75 657 c 4
 160.75 657 199.75 660 239.75 662 c 5
 241.75 656 242.75 633 237.75 633 c 4
 223.75 633 177.75 627 177.75 601 c 4
 177.75 593 182 584 189.75 571 c 6
 327 335 l 5
 376 423 446.75 561 458.75 592 c 4
 459.75 595 461.75 601 461.75 607 c 4
 461.75 613 444.75 632 388.75 632 c 5
 385.75 632 384.75 658 386.75 661 c 5
 423.75 659 452.75 656 489.75 656 c 4
 541.75 656 559.75 659 599.75 661 c 5
 602 655 600.75 632 597.75 632 c 5
 589.75 632 532.75 632 509.75 592 c 4
 471.75 525 393.75 381 350.75 301 c 12
 345 290 345.75 279 345.75 270 c 4
 345.75 210 344.75 116 344.75 116 c 6
 344.75 86 344.75 58 349.75 42 c 4
 352.75 31 406.75 26 418.75 26 c 5
 422.75 21 423.75 2 418.75 -3 c 5
 377.75 -1 340.75 2 301.75 2 c 4
 262.75 2 224.75 -1 183.75 -3 c 5
 178.75 2 179.75 21 183.75 26 c 5
 195.75 26 249.75 31 252.75 42 c 4
 257.75 58 257.75 86 257.75 116 c 6
EndSplineSet
Validated: 513
Substitution2: "'sinf' Scientific Inferiors lookup 5-1" Y.sinf
Substitution2: "'sups' Superscript lookup 6-1" Y.ssup
Substitution2: "'subs' Subscript lookup 1-1" Y.subs
Substitution2: "'ordn' Ordinals lookup 0-1" Y.ordn
EndChar

StartChar: Z
Encoding: 90 90 57
Width: 631
Flags: W
HStem: 0 37<154 484.442> 624 37<150.666 456.793> 649 20G<69.8398 83.3398 516.84 560.84>
VStem: 39.8398 37<488.927 540.301>
LayerCount: 2
Fore
SplineSet
212.84 624 m 2xd0
 145 624 98.8398 574 76.8398 492 c 1
 74.8398 489 70.8398 488 65.8398 488 c 0
 56.8398 488 42.8398 493 39.8398 496 c 1
 56.8398 542 66.8398 601 72.8398 669 c 1xb0
 93.8398 666 127.84 661 154.84 661 c 0
 243.84 661 348.84 661 348.84 661 c 2xd0
 432.84 661 474.84 665 558.84 671 c 1
 562.84 670 576.84 657 576.84 649 c 1xb0
 574.84 641 154 37 154 37 c 25
 414.84 37 l 2
 457.655 37 486.978 52.2262 508 73.5807 c 0
 536.648 102.681 549.882 143.162 560.84 172 c 0
 561.84 174 569.84 175 574.84 175 c 0
 584.84 175 594.84 170 598.84 166 c 1
 574.84 87 563 51 551 0 c 1
 551 0 242.84 0 49.8398 0 c 0
 38.8398 0 28 8 31.8398 14 c 2
 456.84 624 l 1
 212.84 624 l 2xd0
EndSplineSet
Validated: 513
Substitution2: "'sinf' Scientific Inferiors lookup 5-1" Z.sinf
Substitution2: "'sups' Superscript lookup 6-1" Z.ssup
Substitution2: "'subs' Subscript lookup 1-1" Z.subs
Substitution2: "'ordn' Ordinals lookup 0-1" Z.ordn
EndChar

StartChar: bracketleft
Encoding: 91 91 58
Width: 258
Flags: W
HStem: -144 25<192.153 250.583> 699 25<192.153 250.583>
VStem: 76 48<-98.9827 678.983>
LayerCount: 2
Fore
SplineSet
95 718 m 0
 177 718 248 724 248 724 c 1
 248 724 251 721 251 715 c 0
 251 709 247 701 241 699 c 0
 203 686 124 676 124 676 c 1
 124 -96 l 1
 124 -96 203 -106 241 -119 c 0
 247 -121 251 -129 251 -135 c 0
 251 -141 248 -144 248 -144 c 1
 248 -144 177 -138 95 -138 c 0
 77 -138 76 -116 76 -115 c 2
 76 695 l 2
 76 696 77 718 95 718 c 0
EndSplineSet
Validated: 513
Substitution2: "'sinf' Scientific Inferiors lookup 5-1" bracketleft.sinf
Substitution2: "'sups' Superscript lookup 6-1" bracketleft.ssup
Substitution2: "'smcp' Lowercase to Small Capitals lookup 2-1" bracketleft.sc
Substitution2: "'subs' Subscript lookup 1-1" bracketleft.subs
Substitution2: "'ordn' Ordinals lookup 0-1" bracketleft.ordn
EndChar

StartChar: backslash
Encoding: 92 92 59
Width: 409
Flags: W
VStem: 36 338
LayerCount: 2
Fore
SplineSet
36 750 m 1
 39 755 49 757 56 757 c 0
 67 757 81 749 84 741 c 2
 84 741 374 -11 374 -17 c 1
 373 -21 363 -28 351 -28 c 0
 344 -28 333 -21 330 -14 c 0
 219 275 124 524 36 750 c 1
EndSplineSet
Validated: 513
Substitution2: "'sinf' Scientific Inferiors lookup 5-1" backslash.sinf
Substitution2: "'sups' Superscript lookup 6-1" backslash.ssup
Substitution2: "'smcp' Lowercase to Small Capitals lookup 2-1" backslash.sc
Substitution2: "'subs' Subscript lookup 1-1" backslash.subs
Substitution2: "'ordn' Ordinals lookup 0-1" backslash.ordn
EndChar

StartChar: bracketright
Encoding: 93 93 60
Width: 258
Flags: W
HStem: -144 25<2.41714 60.8474> 699 25<2.41714 60.8474>
VStem: 129 48<-98.9827 678.983>
LayerCount: 2
Fore
SplineSet
158 718 m 0
 176 718 177 696 177 695 c 2
 177 -115 l 2
 177 -116 176 -138 158 -138 c 0
 76 -138 5 -144 5 -144 c 1
 5 -144 2 -141 2 -135 c 0
 2 -129 6 -121 12 -119 c 0
 50 -106 129 -96 129 -96 c 1
 129 676 l 1
 129 676 50 686 12 699 c 0
 6 701 2 709 2 715 c 0
 2 721 5 724 5 724 c 1
 5 724 76 718 158 718 c 0
EndSplineSet
Validated: 513
Substitution2: "'sinf' Scientific Inferiors lookup 5-1" bracketright.sinf
Substitution2: "'sups' Superscript lookup 6-1" bracketright.ssup
Substitution2: "'smcp' Lowercase to Small Capitals lookup 2-1" bracketright.sc
Substitution2: "'subs' Subscript lookup 1-1" bracketright.subs
Substitution2: "'ordn' Ordinals lookup 0-1" bracketright.ordn
EndChar

StartChar: asciicircum
Encoding: 94 94 61
Width: 390
Flags: W
HStem: 423 222
VStem: 61 250
LayerCount: 2
Fore
SplineSet
186 645 m 0
 191 645 198 640 202 632 c 0
 242 553 268 514 311 439 c 1
 311 429 302 423 296 423 c 1
 250 471 186 552 186 552 c 25
 186 552 123 471 77 423 c 1
 71 423 61 429 61 439 c 1
 104 514 131 553 171 632 c 0
 175 640 181 645 186 645 c 0
EndSplineSet
Validated: 1
Substitution2: "'smcp' Lowercase to Small Capitals lookup 2-1" asciicircum.sc
EndChar

StartChar: underscore
Encoding: 95 95 62
Width: 501
Flags: W
HStem: -43 56<14.9907 473.32>
LayerCount: 2
Fore
SplineSet
11 -33 m 1
 11 -33 16 13 26 13 c 2
 475 13 l 2
 477 13 479 12 479 8 c 0
 479 -1 475 -15 469 -37 c 0
 467 -43 463 -43 463 -43 c 1
 18 -43 l 1
 18 -43 11 -43 11 -33 c 1
EndSplineSet
Validated: 1
EndChar

StartChar: grave
Encoding: 96 96 63
Width: 342
Flags: W
HStem: 527 160
VStem: 107 168
LayerCount: 2
Fore
SplineSet
107 663 m 0
 107 668 113 687 148 687 c 0
 162 687 177 683 182 678 c 0
 219 635 275 545 275 540 c 0
 275 534 270 527 263 527 c 0
 253 527 107 624 107 663 c 0
EndSplineSet
Validated: 1
EndChar

StartChar: a
Encoding: 97 97 64
Width: 428
Flags: W
HStem: -8 54<135.481 208.996 320.5 385.237> 398 38<155.777 266.5>
VStem: 34 83<64.4927 166.568> 49 81<294.824 353.758> 271 76<67.9015 223 245.918 361.958>
LayerCount: 2
Fore
SplineSet
184 46 m 0xe8
 219 46 271 77 271 87 c 2
 271 223 l 17
 244 215 196 201 178 194 c 0
 142 180 117 154 117 116 c 0
 117 79 146 46 184 46 c 0xe8
238 436 m 0
 295 436 347 376 347 299 c 2
 347 93 l 2
 347 66 355 46 378 46 c 0
 396 46 408 57 411 59 c 1
 414 59 415 54 415 51 c 0
 415 45 413 37 410 32 c 1
 398 21 356 -6 335 -6 c 0
 306 -6 280 28 274 59 c 1
 262 47 186 -8 151 -8 c 0
 85 -8 34 42 34 107 c 0xe8
 34 148 62 179 84 187 c 0
 140 207 230 237 259 250 c 0
 269 254 271 257 271 275 c 2
 271 302 l 2
 271 347 234 398 185 398 c 0
 150 398 137 375 130 336 c 0
 124 302 108 288 83 288 c 0
 62 288 49 310 49 330 c 0xd8
 49 334 52 349 56 354 c 1
 87 383 165 436 238 436 c 0
EndSplineSet
Validated: 513
Substitution2: "'sinf' Scientific Inferiors lookup 5-1" a.sinf
Substitution2: "'sups' Superscript lookup 6-1" a.ssup
Substitution2: "'smcp' Lowercase to Small Capitals lookup 2-1" a.sc
Substitution2: "'subs' Subscript lookup 1-1" a.subs
Substitution2: "'ordn' Ordinals lookup 0-1" a.ordn
EndChar

StartChar: b
Encoding: 98 98 65
Width: 494
Flags: W
HStem: -7 34<180.328 291.138> 379 5<151.393 224.393> 628 26<1.29117 59.2207> 674 20G<124.393 147.893>
VStem: 68.3926 77<53.1875 351.859 383.777 621.593> 371.393 84<134.316 299.421>
LayerCount: 2
Fore
SplineSet
208.393 -7 m 0
 193.393 -7 155.393 2 134.393 8 c 0
 112.393 14 92.3926 22 69.3926 14 c 1
 64.3926 14 56.3926 31 56.3926 36 c 1
 65.3926 56 68.3926 90 68.3926 110 c 2
 68.3926 558 l 2
 68.3926 571 68.3926 598 63.3926 610 c 0
 57.3926 624 30.3926 628 2.39258 628 c 1
 1.39258 628 -0.607422 653 3.39258 654 c 1
 53.3926 659 103.393 675 145.393 694 c 1
 150.393 694 156.393 685 156.393 678 c 1
 156.393 678 145.393 646 145.393 591 c 2
 145.393 394 l 2
 145.393 389 145.393 379 151.393 384 c 0
 166.393 395 234.393 438 272.393 438 c 0
 392.393 438 455.393 324 455.393 233 c 0
 455.393 102 350.393 -7 208.393 -7 c 0
224.393 379 m 0
 198.393 379 159.393 361 150.393 352 c 0
 147.393 349 145.393 346 145.393 341 c 2
 145.393 98 l 2
 145.393 55 194.393 27 238.393 27 c 0
 310.393 27 371.393 113 371.393 194 c 0
 371.393 310 313.393 379 224.393 379 c 0
EndSplineSet
Validated: 545
Substitution2: "'sinf' Scientific Inferiors lookup 5-1" b.sinf
Substitution2: "'sups' Superscript lookup 6-1" b.ssup
Substitution2: "'smcp' Lowercase to Small Capitals lookup 2-1" b.sc
Substitution2: "'subs' Subscript lookup 1-1" b.subs
Substitution2: "'ordn' Ordinals lookup 0-1" b.ordn
EndChar

StartChar: c
Encoding: 99 99 66
Width: 421
Flags: W
HStem: -8 66<188.945 318.563> 394 44<190.28 287.075>
VStem: 36 78<132.251 288.818>
LayerCount: 2
Fore
SplineSet
379 386 m 0
 379 350 358 338 341 338 c 1
 319 338 300 364 283 375 c 0
 262 389 252 394 226 394 c 0
 173 394 114 332 114 227 c 0
 114 110 186 58 276 58 c 0
 331 58 369 94 382 109 c 1
 383 109 390 103 390 95 c 0
 390 90 387 82 384 77 c 0
 366 48 316 -8 238 -8 c 0
 117 -8 36 90 36 194 c 0
 36 340 175 438 279 438 c 0
 314 438 345 430 369 414 c 1
 373 410 379 396 379 386 c 0
EndSplineSet
Validated: 513
Substitution2: "'sinf' Scientific Inferiors lookup 5-1" c.sinf
Substitution2: "'sups' Superscript lookup 6-1" c.ssup
Substitution2: "'smcp' Lowercase to Small Capitals lookup 2-1" c.sc
Substitution2: "'subs' Subscript lookup 1-1" c.subs
Substitution2: "'ordn' Ordinals lookup 0-1" c.ordn
EndChar

StartChar: d
Encoding: 100 100 67
Width: 512
Flags: W
HStem: -8 62<189.397 286.897> 20 27<435.72 493.784> 396 42<193.789 324.598> 628 26<280.899 338.828> 674 20G<404 427.5>
VStem: 36 84<130.201 291.813> 348 77<70.6579 374.572 428.007 621.593>
LayerCount: 2
Fore
SplineSet
274 438 m 0xbe
 295 438 333 432 343 428 c 1
 347 428 348 437 348 449 c 2
 348 558 l 2
 348 572 348 598 343 610 c 0
 337 624 310 628 282 628 c 1
 281 628 279 653 283 654 c 1
 333 659 383 675 425 694 c 1
 430 694 436 685 436 678 c 1
 436 678 425 646 425 591 c 2
 425 163 l 2
 425 124 426 79 432 65 c 0
 440 47 488 48 491 47 c 0
 493 46 494 38 494 35 c 0
 494 33 491 20 486 20 c 0x7e
 434 17 357 -8 356 -8 c 0
 350 -8 348 4 348 11 c 2
 348 46 l 2
 348 51 347 54 345 52 c 0
 330 36 260 -8 212 -8 c 0
 121 -8 36 84 36 206 c 0
 36 337 184 438 274 438 c 0xbe
242 396 m 0
 166 396 120 314 120 230 c 0
 120 136 170 54 261 54 c 0xbe
 306 54 348 78 348 94 c 2
 348 347 l 2
 348 370 298 396 242 396 c 0
EndSplineSet
Validated: 513
Substitution2: "'sinf' Scientific Inferiors lookup 5-1" d.sinf
Substitution2: "'sups' Superscript lookup 6-1" d.ssup
Substitution2: "'smcp' Lowercase to Small Capitals lookup 2-1" d.sc
Substitution2: "'subs' Subscript lookup 1-1" d.subs
Substitution2: "'ordn' Ordinals lookup 0-1" d.ordn
EndChar

StartChar: e
Encoding: 101 101 68
Width: 429
Flags: W
HStem: -8 64<189.798 318.098> 248 37<113 298.487> 402 36<169.002 261.878>
VStem: 37 71<142.672 248> 299 85<285.847 368.285>
LayerCount: 2
Fore
SplineSet
113 285 m 1
 122 285 266 285 276 285 c 0
 288 285 298 290 299 308 c 0
 300 332 278 402 217 402 c 0
 133 402 111 285 113 285 c 1
108 248 m 1
 105 120 183 56 271 56 c 0
 326 56 368 94 381 109 c 1
 382 109 389 103 389 95 c 0
 389 90 386 82 383 77 c 0
 365 48 315 -8 237 -8 c 0
 119 -8 37 82 37 200 c 0
 37 334 146 438 234 438 c 0
 354 438 384 342 384 302 c 0
 384 273 379 256 360 255 c 0
 329 253 120 248 108 248 c 1
EndSplineSet
Validated: 545
Substitution2: "'sinf' Scientific Inferiors lookup 5-1" e.sinf
Substitution2: "'sups' Superscript lookup 6-1" e.ssup
Substitution2: "'smcp' Lowercase to Small Capitals lookup 2-1" e.sc
Substitution2: "'subs' Subscript lookup 1-1" e.subs
Substitution2: "'ordn' Ordinals lookup 0-1" e.ordn
EndChar

StartChar: f
Encoding: 102 102 69
Width: 302
Flags: W
HStem: -3 29<22.7894 87.6756 176.121 244.982> 391 41<38.3486 93.3857 170.386 291.761> 637 60<212.495 297.805>
VStem: 93.3857 77<32.7426 391 432 545.43>
LayerCount: 2
Fore
SplineSet
266.386 697 m 0
 296.386 697 298.386 695 313.386 685 c 1
 317.386 681 323.386 667 323.386 657 c 0
 323.386 621 296.386 617 283.386 617 c 0
 273.386 617 265.386 622 254.386 628 c 0
 243.386 634 238.386 637 225.386 637 c 0
 194.386 637 169.386 605 170.386 543 c 2
 170.386 432 l 1
 288.386 432 l 2
 293.386 432 293.386 427 293.386 421 c 0
 293.386 412 288.386 400 279.386 391 c 1
 170.386 391 l 1
 170.386 116 l 2
 170.386 86 170.386 58 175.386 42 c 0
 178.386 31 230.386 26 242.386 26 c 1
 246.386 21 247.386 2 242.386 -3 c 1
 201.386 -1 170.386 2 131.386 2 c 0
 92.3857 2 66.3857 -1 25.3857 -3 c 1
 20.3857 2 21.3857 21 25.3857 26 c 1
 37.3857 26 85.3857 31 88.3857 42 c 0
 93.3857 58 93.3857 86 93.3857 116 c 2
 93.3857 391 l 1
 35.3857 391 l 2
 32.3857 391 30.3857 397 30.3857 400 c 0
 30.3857 404 55.3857 431 56.3857 432 c 1
 72.3857 432 82.3857 432 93.3857 432 c 1
 93.3857 443 93.3857 438 93.3857 438 c 2
 93.3857 583 205.386 697 266.386 697 c 0
EndSplineSet
Validated: 549
Substitution2: "'sinf' Scientific Inferiors lookup 5-1" f.sinf
Substitution2: "'sups' Superscript lookup 6-1" f.ssup
Substitution2: "'smcp' Lowercase to Small Capitals lookup 2-1" f.sc
Substitution2: "'subs' Subscript lookup 1-1" f.subs
Substitution2: "'ordn' Ordinals lookup 0-1" f.ordn
EndChar

StartChar: g
Encoding: 103 103 70
Width: 461
Flags: W
HStem: -227 39<154.618 292.19> -4 71<159.372 345.141> 137 30<174.303 261.226> 374 51<385.868 440.481> 409 30<168.516 257.162>
VStem: 20 79<-141.317 -60.5231> 47 77<74.2375 115.659 218.047 361.11> 305 77<216.006 366.022> 384 69<-102.937 -10>
LayerCount: 2
Fore
SplineSet
212 409 m 27xeb80
 155 409 124 349 124 292 c 27
 124 231 159 167 220 167 c 27
 275 167 305 226 305 281 c 27
 305 343 274 409 212 409 c 27xeb80
252 -4 m 0
 234 -4 166 -5 159 -9 c 0
 136 -22 99 -50 99 -76 c 0xe580
 99 -141 148 -188 233 -188 c 0
 302 -188 384 -136 384 -81 c 0
 384 -52 347 -4 252 -4 c 0
298 67 m 0
 377 67 453 18 453 -38 c 0
 453 -120 332 -226 193 -227 c 0
 112 -228 20 -187 20 -105 c 0xf580
 20 -61 92 -18 126 -1 c 1
 91 10 44 42 44 92 c 1
 61 112 112 149 130 160 c 1
 81 187 47 239 47 288 c 0
 47 367 120 439 216 439 c 0xeb80
 259 439 289 424 307 417 c 0
 326 410 321 412 330 410 c 1
 437 425 l 1
 444 423 447 419 447 415 c 0
 447 407 434 380 424 374 c 1xf380
 399 375 358 378 358 378 c 2
 355 378 354 377 354 375 c 1
 359 370 382 330 382 284 c 0
 382 214 309 137 213 137 c 0
 196 137 167 142 157 146 c 1
 139 136 120 118 120 102 c 0
 120 92 140 67 180 67 c 0
 246 67 254 67 298 67 c 0
EndSplineSet
Validated: 545
Substitution2: "'sinf' Scientific Inferiors lookup 5-1" g.sinf
Substitution2: "'sups' Superscript lookup 6-1" g.ssup
Substitution2: "'smcp' Lowercase to Small Capitals lookup 2-1" g.sc
Substitution2: "'subs' Subscript lookup 1-1" g.subs
Substitution2: "'ordn' Ordinals lookup 0-1" g.ordn
EndChar

StartChar: h
Encoding: 104 104 71
Width: 512
Flags: W
HStem: -3 29<15.7894 80.6755 169.096 233.982 285.79 350.676 439.096 503.982> 380 58<238.147 324.57> 628 26<19.2843 77.2139> 674 20G<142.386 165.886>
VStem: 86.3857 77.0003<32.4189 347.537 363.001 621.593> 356.386 77<32.4189 346.845>
LayerCount: 2
Fore
SplineSet
304.386 438 m 0
 412.386 438 433.386 371 433.386 226 c 2
 433.386 116 l 2
 433.386 86 433.386 58 438.386 42 c 0
 441.386 31 489.386 26 501.386 26 c 1
 505.386 21 506.386 2 501.386 -3 c 1
 460.386 -1 433.386 2 394.386 2 c 0
 355.386 2 329.386 -1 288.386 -3 c 1
 283.386 2 284.386 21 288.386 26 c 1
 300.386 26 348.386 31 351.386 42 c 0
 356.386 58 356.386 86 356.386 116 c 2
 356.386 216 l 2
 356.386 340 336.386 380 258.386 380 c 0
 221.386 380 163.386 334 163.386 325 c 2
 163.386 116 l 2
 163.386 86 163.386 58 168.386 42 c 0
 171.386 31 219.386 26 231.386 26 c 1
 235.386 21 236.386 2 231.386 -3 c 1
 190.386 -1 163.386 2 124.386 2 c 0
 85.3857 2 59.3857 -1 18.3857 -3 c 1
 13.3857 2 14.3857 21 18.3857 26 c 1
 30.3857 26 78.3857 31 81.3857 42 c 0
 86.3857 58 86.3857 86 86.3857 116 c 2
 86.3857 558 l 2
 86.3857 571 86.3857 598 81.3857 610 c 0
 75.3857 624 48.3857 628 20.3857 628 c 1
 19.3857 628 17.3857 653 21.3857 654 c 1
 71.3857 659 121.386 675 163.386 694 c 1
 168.386 694 174.386 685 174.386 678 c 1
 174.386 678 163.386 646 163.386 591 c 2
 163.386 591 163.386 373 163.386 365 c 0
 163.386 364 164.386 363 166.386 363 c 0
 167.386 363 168.386 364 169.386 365 c 0
 189.386 387 256.386 438 304.386 438 c 0
EndSplineSet
Validated: 517
Substitution2: "'sinf' Scientific Inferiors lookup 5-1" h.sinf
Substitution2: "'sups' Superscript lookup 6-1" h.ssup
Substitution2: "'smcp' Lowercase to Small Capitals lookup 2-1" h.sc
Substitution2: "'subs' Subscript lookup 1-1" h.subs
Substitution2: "'ordn' Ordinals lookup 0-1" h.ordn
EndChar

StartChar: i
Encoding: 105 105 72
Width: 267
Flags: W
HStem: -3 29<30.7133 95.5994 184.02 248.906> 368 26<29.4908 90.7583> 416 20G<154.31 176.81> 543 100<90.7472 173.872>
VStem: 82.3096 100<551.438 634.562> 101.31 77<32.4189 361.708>
LayerCount: 2
Fore
SplineSet
178.31 325 m 4xf4
 178.31 116 l 6
 178.31 86 178.31 58 183.31 42 c 4
 186.31 31 234.31 26 246.31 26 c 5
 250.31 21 251.31 2 246.31 -3 c 5
 205.31 -1 178.31 2 139.31 2 c 4
 100.31 2 74.3096 -1 33.3096 -3 c 5
 28.3096 2 29.3096 21 33.3096 26 c 5
 45.3096 26 93.3096 31 96.3096 42 c 4
 101.31 58 101.31 86 101.31 116 c 6
 101.31 298 l 6
 101.31 311 101.31 338 96.3096 350 c 4
 89.3096 367 38.3096 368 31.3096 368 c 5
 29.3096 370 27.3096 389 31.3096 394 c 5
 82.3096 401 134.31 415 174.31 436 c 5
 179.31 436 185.31 425 185.31 420 c 5
 184.31 413 178.31 368 178.31 358 c 6
 178.31 325 l 4xf4
82.3096 593 m 0xf8
 82.3096 621 104.31 643 132.31 643 c 0
 160.31 643 182.31 621 182.31 593 c 0
 182.31 565 160.31 543 132.31 543 c 0
 104.31 543 82.3096 565 82.3096 593 c 0xf8
EndSplineSet
Validated: 513
Substitution2: "'sinf' Scientific Inferiors lookup 5-1" i.sinf
Substitution2: "'sups' Superscript lookup 6-1" i.ssup
Substitution2: "'smcp' Lowercase to Small Capitals lookup 2-1" i.sc
Substitution2: "'subs' Subscript lookup 1-1" i.subs
Substitution2: "'ordn' Ordinals lookup 0-1" i.ordn
EndChar

StartChar: j
Encoding: 106 106 73
Width: 235
Flags: W
HStem: 368 26<16.9312 78.1985> 416 20G<141.75 164.25> 543 100<71.1875 154.312>
VStem: 62.75 100<551.438 634.562> 88.75 77<-68.5639 361.708>
LayerCount: 2
Fore
SplineSet
88.75 45 m 2xe8
 88.75 298 l 2
 88.75 311 88.75 338 83.75 350 c 0
 76.75 367 25.75 368 18.75 368 c 1
 16.75 370 14.75 389 18.75 394 c 1
 69.75 401 121.75 415 161.75 436 c 1
 166.75 436 172.75 425 172.75 420 c 1
 171.75 413 165.75 371 165.75 358 c 2
 165.75 324 l 0
 165.75 68 l 1
 165.75 -124 60.75 -203 -7.25 -231 c 1
 -12.25 -228 -18.25 -221 -20.25 -216 c 0
 -21.25 -214 -21.25 -210 -20.25 -209 c 1
 36.75 -168 88.75 -121 88.75 45 c 2xe8
62.75 593 m 0xf0
 62.75 621 84.75 643 112.75 643 c 0
 140.75 643 162.75 621 162.75 593 c 0
 162.75 565 140.75 543 112.75 543 c 0
 84.75 543 62.75 565 62.75 593 c 0xf0
EndSplineSet
Validated: 513
Substitution2: "'sinf' Scientific Inferiors lookup 5-1" j.sinf
Substitution2: "'sups' Superscript lookup 6-1" j.ssup
Substitution2: "'smcp' Lowercase to Small Capitals lookup 2-1" j.sc
Substitution2: "'subs' Subscript lookup 1-1" j.subs
Substitution2: "'ordn' Ordinals lookup 0-1" j.ordn
EndChar

StartChar: k
Encoding: 107 107 74
Width: 513
Flags: W
HStem: -3 29<15.7894 80.6755 169.096 233.982 438.885 509.891> 396 29<287.574 336.946 414.669 477.451> 628 26<19.2843 77.2139> 674 20G<142.386 165.886>
VStem: 86.3857 77.0003<32.4189 204 235 621.593>
LayerCount: 2
Fore
SplineSet
163.386 116 m 2
 163.386 86 163.386 58 168.386 42 c 0
 171.386 31 219.386 26 231.386 26 c 1
 235.386 21 236.386 2 231.386 -3 c 1
 190.386 -1 163.386 2 124.386 2 c 0
 85.3857 2 59.3857 -1 18.3857 -3 c 1
 13.3857 2 14.3857 21 18.3857 26 c 1
 30.3857 26 78.3857 31 81.3857 42 c 0
 86.3857 58 86.3857 86 86.3857 116 c 2
 86.3857 558 l 2
 86.3857 572 86.3857 598 81.3857 610 c 0
 75.3857 624 48.3857 628 20.3857 628 c 1
 19.3857 628 17.3857 653 21.3857 654 c 1
 71.3857 659 121.386 675 163.386 694 c 1
 168.386 694 174.386 685 174.386 678 c 1
 174.386 678 163.386 646 163.386 591 c 2
 163.386 235 l 1
 180.386 241 211.386 267 245.386 296 c 0
 297.386 340 337.386 369 337.386 379 c 0
 337.386 394 298.386 395 289.386 396 c 1
 284.386 403 286.386 423 291.386 425 c 1
 320.386 422 355.386 420 387.386 420 c 0
 421.386 420 453.386 422 475.386 425 c 1
 479.386 419 478.386 400 475.386 396 c 1
 461.386 396 419.386 388 398.386 373 c 0
 387.386 365 295.386 299 236.386 249 c 1
 311.386 168 392.386 73 416.386 53 c 0
 442.386 32 482.386 25 508.386 26 c 1
 510.386 23 512.386 7 509.386 2 c 1
 502.386 -1 471.386 -4 444.386 -4 c 0
 385.386 -4 336.386 24 321.386 40 c 2
 321.386 40 235.386 133 178.386 195 c 0
 174.386 200 163.386 204 163.386 204 c 1
 163.386 116 l 2
EndSplineSet
Validated: 549
Substitution2: "'sinf' Scientific Inferiors lookup 5-1" k.sinf
Substitution2: "'sups' Superscript lookup 6-1" k.ssup
Substitution2: "'smcp' Lowercase to Small Capitals lookup 2-1" k.sc
Substitution2: "'subs' Subscript lookup 1-1" k.subs
Substitution2: "'ordn' Ordinals lookup 0-1" k.ordn
EndChar

StartChar: l
Encoding: 108 108 75
Width: 251
Flags: W
HStem: -3 29<15.7894 80.6755 169.096 233.982> 628 26<19.2843 77.2139> 674 20G<142.386 165.886>
VStem: 86.3857 77.0003<32.4189 621.593>
LayerCount: 2
Fore
SplineSet
86.3857 558 m 6
 86.3857 572 86.3857 598 81.3857 610 c 4
 75.3857 624 48.3857 628 20.3857 628 c 5
 19.3857 628 17.3857 653 21.3857 654 c 5
 71.3857 659 121.386 675 163.386 694 c 5
 168.386 694 174.386 685 174.386 678 c 5
 174.386 678 163.386 646 163.386 591 c 6
 163.386 116 l 2
 163.386 86 163.386 58 168.386 42 c 0
 171.386 31 219.386 26 231.386 26 c 1
 235.386 21 236.386 2 231.386 -3 c 1
 190.386 -1 163.386 2 124.386 2 c 0
 85.3857 2 59.3857 -1 18.3857 -3 c 1
 13.3857 2 14.3857 21 18.3857 26 c 1
 30.3857 26 78.3857 31 81.3857 42 c 0
 86.3857 58 86.3857 86 86.3857 116 c 2
 86.3857 558 l 6
EndSplineSet
Validated: 517
Substitution2: "'sinf' Scientific Inferiors lookup 5-1" l.sinf
Substitution2: "'sups' Superscript lookup 6-1" l.ssup
Substitution2: "'smcp' Lowercase to Small Capitals lookup 2-1" l.sc
Substitution2: "'subs' Subscript lookup 1-1" l.subs
Substitution2: "'ordn' Ordinals lookup 0-1" l.ordn
EndChar

StartChar: m
Encoding: 109 109 76
Width: 786
Flags: W
HStem: -3 29<30.7133 95.5994 184.02 248.906 294.714 359.6 448.02 512.906 558.714 623.6 712.02 776.906> 368 26<29.4908 90.7583> 380 58<246.024 334.707 509.858 597.7>
VStem: 101.31 77<32.4189 351.547> 365.31 77<32.4189 347.073> 629.31 77<32.4189 348.119>
CounterMasks: 1 1c
LayerCount: 2
Fore
SplineSet
316.31 438 m 0xbc
 375.31 438 414.31 415 430.31 355 c 1
 474.31 395 529.31 438 577.31 438 c 0
 685.31 438 706.31 371 706.31 226 c 2
 706.31 116 l 2
 706.31 86 706.31 58 711.31 42 c 0
 714.31 31 762.31 26 774.31 26 c 1
 778.31 21 779.31 2 774.31 -3 c 1
 733.31 -1 706.31 2 667.31 2 c 0
 628.31 2 602.31 -1 561.31 -3 c 1
 556.31 2 557.31 21 561.31 26 c 1
 573.31 26 621.31 31 624.31 42 c 0
 629.31 58 629.31 86 629.31 116 c 2
 629.31 223 l 2
 629.31 322 616.31 380 535.31 380 c 0
 486.31 380 437.31 330 437.31 323 c 0
 437.31 322 438.31 312 438.31 310 c 0
 441.31 291 442.31 257 442.31 239 c 2
 442.31 116 l 2
 442.31 86 442.31 58 447.31 42 c 0
 450.31 31 498.31 26 510.31 26 c 1
 514.31 21 515.31 2 510.31 -3 c 1
 469.31 -1 442.31 2 403.31 2 c 0
 364.31 2 338.31 -1 297.31 -3 c 1
 292.31 2 293.31 21 297.31 26 c 1
 309.31 26 357.31 31 360.31 42 c 0
 365.31 58 365.31 86 365.31 116 c 2
 365.31 218 l 2
 365.31 340 343.31 380 271.31 380 c 0xbc
 226.31 380 178.31 338 178.31 325 c 2
 178.31 116 l 2
 178.31 86 178.31 58 183.31 42 c 0
 186.31 31 234.31 26 246.31 26 c 1
 250.31 21 251.31 2 246.31 -3 c 1
 205.31 -1 178.31 2 139.31 2 c 0
 100.31 2 74.3096 -1 33.3096 -3 c 1
 28.3096 2 29.3096 21 33.3096 26 c 1
 45.3096 26 93.3096 31 96.3096 42 c 0
 101.31 58 101.31 86 101.31 116 c 2
 101.31 298 l 2
 101.31 311 101.31 338 96.3096 350 c 0
 89.3096 367 38.3096 368 31.3096 368 c 1
 29.3096 370 27.3096 389 31.3096 394 c 1
 82.3096 401 134.31 415 174.31 436 c 1
 179.31 436 185.31 425 185.31 420 c 1
 184.31 413 179.31 380 179.31 372 c 0
 179.31 371 179.31 368 181.31 368 c 0xdc
 182.31 368 183.31 369 184.31 370 c 0
 209.31 391 262.31 438 316.31 438 c 0xbc
EndSplineSet
Validated: 513
Substitution2: "'sinf' Scientific Inferiors lookup 5-1" m.sinf
Substitution2: "'sups' Superscript lookup 6-1" m.ssup
Substitution2: "'smcp' Lowercase to Small Capitals lookup 2-1" m.sc
Substitution2: "'subs' Subscript lookup 1-1" m.subs
Substitution2: "'ordn' Ordinals lookup 0-1" m.ordn
EndChar

StartChar: n
Encoding: 110 110 77
Width: 528
Flags: W
HStem: -3 29<30.7132 95.5994 184.02 248.906 300.713 365.599 454.02 518.906> 368 26<29.4908 90.7581> 380 58<253.071 339.493>
VStem: 101.31 77<32.4189 347.537> 371.31 77<32.4189 346.845>
LayerCount: 2
Fore
SplineSet
319.31 438 m 0xb8
 427.31 438 448.31 371 448.31 226 c 2
 448.31 116 l 2
 448.31 86 448.31 58 453.31 42 c 0
 456.31 31 504.31 26 516.31 26 c 1
 520.31 21 521.31 2 516.31 -3 c 1
 475.31 -1 448.31 2 409.31 2 c 0
 370.31 2 344.31 -1 303.31 -3 c 1
 298.31 2 299.31 21 303.31 26 c 1
 315.31 26 363.31 31 366.31 42 c 0
 371.31 58 371.31 86 371.31 116 c 2
 371.31 216 l 2
 371.31 340 351.31 380 273.31 380 c 0xb8
 236.31 380 178.31 334 178.31 325 c 2
 178.31 116 l 2
 178.31 86 178.31 58 183.31 42 c 0
 186.31 31 234.31 26 246.31 26 c 1
 250.31 21 251.31 2 246.31 -3 c 1
 205.31 -1 178.31 2 139.31 2 c 0
 100.31 2 74.3096 -1 33.3096 -3 c 1
 28.3096 2 29.3096 21 33.3096 26 c 1
 45.3096 26 93.3096 31 96.3096 42 c 0
 101.31 58 101.31 86 101.31 116 c 2
 101.31 298 l 2
 101.31 311 101.31 338 96.3096 350 c 0
 89.3096 367 38.3096 368 31.3096 368 c 1
 29.3096 370 27.3096 389 31.3096 394 c 1xd8
 82.3096 401 134.31 415 174.31 436 c 1
 179.31 436 185.31 425 185.31 420 c 1
 184.31 413 179.31 375 179.31 367 c 0
 179.31 366 179.31 363 181.31 363 c 0
 182.31 363 183.31 364 184.31 365 c 0
 204.31 387 271.31 438 319.31 438 c 0xb8
EndSplineSet
Validated: 513
Substitution2: "'sinf' Scientific Inferiors lookup 5-1" n.sinf
Substitution2: "'sups' Superscript lookup 6-1" n.ssup
Substitution2: "'smcp' Lowercase to Small Capitals lookup 2-1" n.sc
Substitution2: "'subs' Subscript lookup 1-1" n.subs
Substitution2: "'ordn' Ordinals lookup 0-1" n.ordn
EndChar

StartChar: o
Encoding: 111 111 78
Width: 508
Flags: W
HStem: -7 33<210.699 317.24> 406 33<186.214 292.584>
VStem: 38 86<120.834 313.837> 379 86<116.337 309.213>
LayerCount: 2
Fore
SplineSet
240 406 m 0
 155 406 124 319 124 233 c 0
 124 136 173 26 263 26 c 0
 348 26 379 113 379 198 c 0
 379 295 329 406 240 406 c 0
251 439 m 0
 383 439 465 346 465 221 c 0
 465 92 374 -7 253 -7 c 0
 121 -7 38 88 38 213 c 0
 38 342 130 439 251 439 c 0
EndSplineSet
Validated: 513
Substitution2: "'sinf' Scientific Inferiors lookup 5-1" o.sinf
Substitution2: "'sups' Superscript lookup 6-1" o.ssup
Substitution2: "'smcp' Lowercase to Small Capitals lookup 2-1" o.sc
Substitution2: "'subs' Subscript lookup 1-1" o.subs
Substitution2: "'ordn' Ordinals lookup 0-1" o.ordn
EndChar

StartChar: p
Encoding: 112 112 79
Width: 507
Flags: W
HStem: -226 29<12.7132 77.5994 166.02 230.906> -8 35<193.481 310.031> 368 26<11.4908 72.7581> 379 59<218.09 314.28>
VStem: 83.3096 77<-190.581 2.99634 52.6571 361.677> 384.31 84<139.167 301.166>
LayerCount: 2
Fore
SplineSet
287.31 438 m 4xdc
 411.31 438 468.31 318 468.31 232 c 4
 468.31 103 347.31 -8 234.31 -8 c 4
 208.31 -8 180.31 -2 164.31 3 c 5
 164.31 3 160.31 -2 160.31 -10 c 6
 160.31 -107 l 6
 160.31 -137 160.31 -165 165.31 -181 c 0
 168.31 -192 216.31 -197 228.31 -197 c 1
 232.31 -202 233.31 -221 228.31 -226 c 1
 187.31 -224 160.31 -221 121.31 -221 c 0
 82.3096 -221 56.3096 -224 15.3096 -226 c 1
 10.3096 -221 11.3096 -202 15.3096 -197 c 1
 27.3096 -197 75.3096 -192 78.3096 -181 c 0
 83.3096 -165 83.3096 -137 83.3096 -107 c 2
 83.3096 298 l 2
 83.3096 311 83.3096 338 78.3096 350 c 0
 71.3096 367 20.3096 368 13.3096 368 c 1
 11.3096 370 9.30957 389 13.3096 394 c 1xec
 64.3096 401 116.31 415 156.31 436 c 1
 161.31 436 167.31 425 167.31 420 c 1
 166.31 413 160.31 391 160.31 383 c 4
 160.31 382 160.31 379 162.31 379 c 4
 163.31 379 164.31 380 165.31 381 c 4
 190.31 402 247.31 438 287.31 438 c 4xdc
244.31 379 m 4xdc
 203.31 379 160.31 354 160.31 340 c 6
 160.31 100 l 6
 160.31 48 218.31 27 253.31 27 c 4
 336.31 27 384.31 114 384.31 195 c 4
 384.31 314 320.31 379 244.31 379 c 4xdc
EndSplineSet
Validated: 513
Substitution2: "'sinf' Scientific Inferiors lookup 5-1" p.sinf
Substitution2: "'sups' Superscript lookup 6-1" p.ssup
Substitution2: "'smcp' Lowercase to Small Capitals lookup 2-1" p.sc
Substitution2: "'subs' Subscript lookup 1-1" p.subs
Substitution2: "'ordn' Ordinals lookup 0-1" p.ordn
EndChar

StartChar: q
Encoding: 113 113 80
Width: 494
Flags: W
HStem: -227 29<275.404 340.29 428.71 493.596> -7 60<191.146 284.669> 402 36<203.474 313.856>
VStem: 36 84<129.217 289.501> 346 77<-191.581 50.178 68.9193 376.812>
LayerCount: 2
Fore
SplineSet
253 402 m 0
 159 402 120 296 120 235 c 0
 120 117 183 53 266 53 c 0
 306 53 346 78 346 93 c 2
 346 332 l 2
 346 375 297 402 253 402 c 0
283 438 m 0
 313 438 369 413 402 413 c 0
 408 413 416 414 422 416 c 1
 428 416 435 399 435 394 c 1
 426 374 423 340 423 320 c 2
 423 -108 l 2
 423 -138 423 -166 428 -182 c 0
 431 -193 479 -198 491 -198 c 1
 495 -203 496 -222 491 -227 c 1
 450 -225 423 -222 384 -222 c 0
 345 -222 319 -225 278 -227 c 1
 273 -222 274 -203 278 -198 c 1
 290 -198 338 -193 341 -182 c 0
 346 -166 346 -138 346 -108 c 2
 346 40 l 2
 346 45 344 54 339 50 c 0
 324 37 257 -7 214 -7 c 0
 99 -7 36 110 36 199 c 0
 36 336 176 438 283 438 c 0
EndSplineSet
Validated: 513
Substitution2: "'sinf' Scientific Inferiors lookup 5-1" q.sinf
Substitution2: "'sups' Superscript lookup 6-1" q.ssup
Substitution2: "'smcp' Lowercase to Small Capitals lookup 2-1" q.sc
Substitution2: "'subs' Subscript lookup 1-1" q.subs
Substitution2: "'ordn' Ordinals lookup 0-1" q.ordn
EndChar

StartChar: r
Encoding: 114 114 81
Width: 379
Flags: W
HStem: -3 29<30.7133 95.5994 184.167 271.906> 360 77<249.358 309.934> 368 26<29.4908 90.7583>
VStem: 101.31 77<33.7634 321.777 329.94 361.708>
LayerCount: 2
Fore
SplineSet
300.31 437 m 0xd0
 326.31 437 352.31 424 361.31 408 c 1
 363.31 402 365.31 392 365.31 381 c 0
 365.31 344 342.31 329 332.31 329 c 0
 318.31 329 306.31 341 295.31 348 c 0
 286.31 354 276.31 360 258.31 360 c 0xd0
 215.31 360 178.31 293 178.31 270 c 2
 178.31 116 l 2
 178.31 86 178.31 58 183.31 42 c 0
 186.31 31 257.31 26 269.31 26 c 1
 273.31 21 274.31 2 269.31 -3 c 1
 228.31 -1 184.31 2 145.31 2 c 0
 106.31 2 74.3096 -1 33.3096 -3 c 1
 28.3096 2 29.3096 21 33.3096 26 c 1
 45.3096 26 93.3096 31 96.3096 42 c 0
 101.31 58 101.31 86 101.31 116 c 2
 101.31 298 l 2
 101.31 311 101.31 338 96.3096 350 c 0
 89.3096 367 38.3096 368 31.3096 368 c 1
 29.3096 370 27.3096 389 31.3096 394 c 1xb0
 82.3096 401 134.31 415 174.31 436 c 1
 179.31 436 185.31 425 185.31 420 c 1
 184.31 413 178.31 343 178.31 332 c 0
 178.31 328 181.721 328.714 182.31 330 c 0
 202 373 255.31 437 300.31 437 c 0xd0
EndSplineSet
Validated: 513
Substitution2: "'sinf' Scientific Inferiors lookup 5-1" r.sinf
Substitution2: "'sups' Superscript lookup 6-1" r.ssup
Substitution2: "'smcp' Lowercase to Small Capitals lookup 2-1" r.sc
Substitution2: "'subs' Subscript lookup 1-1" r.subs
Substitution2: "'ordn' Ordinals lookup 0-1" r.ordn
EndChar

StartChar: s
Encoding: 115 115 82
Width: 368
Flags: W
HStem: -11 32<124.723 220.223> 406 31<144.772 232.89>
VStem: 38 27<85.9752 117.421> 47 77<291.129 381.207> 245 81<55.287 144.678> 279 27<309.164 347.416>
LayerCount: 2
Fore
SplineSet
192 437 m 0xd8
 231 437 250 429 294 424 c 1
 301 393 305 350 306 314 c 0
 306 310 301 309 296 309 c 0
 291 309 284 310 279 314 c 1
 269 351 238 406 195 406 c 0
 147 406 124 379 124 343 c 0xd4
 124 291 166 276 211 249 c 0
 256 222 326 190 326 127 c 0
 326 46 253 -11 172 -11 c 0
 126 -11 99 0 55 8 c 1
 47 29 38 86 38 112 c 1
 42 115 51 118 56 118 c 0
 59 118 62 118 65 116 c 1xe8
 77 74 120 21 173 21 c 0
 214 21 245 47 245 93 c 0
 245 154 181 174 123 208 c 0
 83 231 47 262 47 315 c 0
 47 389 118 437 192 437 c 0xd8
EndSplineSet
Validated: 513
Substitution2: "'sinf' Scientific Inferiors lookup 5-1" s.sinf
Substitution2: "'sups' Superscript lookup 6-1" s.ssup
Substitution2: "'smcp' Lowercase to Small Capitals lookup 2-1" s.sc
Substitution2: "'subs' Subscript lookup 1-1" s.subs
Substitution2: "'ordn' Ordinals lookup 0-1" s.ordn
EndChar

StartChar: t
Encoding: 116 116 83
Width: 307
Flags: W
HStem: -7 54<173.456 249.292> 391 41<24.9629 80 157 289.375>
VStem: 80 77<62.1149 391 432 519.684>
LayerCount: 2
Fore
SplineSet
157 432 m 1
 286 432 l 2
 291 432 291 427 291 421 c 0
 291 412 286 400 277 391 c 1
 157 391 l 1
 157 129 l 2
 157 76 179 47 223 47 c 0
 253 47 281 65 288 70 c 1
 290 69 291 66 291 63 c 0
 291 57 288 49 287 48 c 0
 273 32 233 -7 184 -7 c 0
 133 -7 80 15 80 101 c 2
 80 391 l 1
 22 391 l 2
 19 391 17 397 17 400 c 0
 17 404 42 431 43 432 c 1
 59 432 69 432 80 432 c 1
 80 443 80 487 80 495 c 1
 99 517 139 559 141 562 c 1
 146 567 157 567 157 563 c 2
 157 432 l 1
EndSplineSet
Validated: 513
Substitution2: "'sinf' Scientific Inferiors lookup 5-1" t.sinf
Substitution2: "'sups' Superscript lookup 6-1" t.ssup
Substitution2: "'smcp' Lowercase to Small Capitals lookup 2-1" t.sc
Substitution2: "'subs' Subscript lookup 1-1" t.subs
Substitution2: "'ordn' Ordinals lookup 0-1" t.ordn
EndChar

StartChar: u
Encoding: 117 117 84
Width: 510
Flags: W
HStem: -7 56<192.595 282.904> 20 27<434.359 492.219> 390 26<11.4375 63.0596 280.438 332.06> 416 20G<132.639 153.139 401.639 422.139>
VStem: 77.6387 77.0003<92.1211 382.167> 346.639 77<73.0835 382.167>
LayerCount: 2
Fore
SplineSet
346.639 316 m 2x9c
 346.639 329 346.639 355 338.639 370 c 0
 328.639 388 295.639 390 282.639 390 c 1
 279.639 393 278.639 411 282.639 416 c 1xac
 333.639 418 383.639 425 419.639 436 c 1
 424.639 436 430.639 421 430.639 416 c 1
 426.639 408 423.639 380 423.639 351 c 2
 423.639 305 l 0
 423.639 141 l 2
 423.639 130 424.639 93 430.639 65 c 0
 435.639 46 486.639 48 489.639 47 c 0
 491.639 46 492.639 39 492.639 36 c 0
 492.639 34 489.639 20 484.639 20 c 0x5c
 432.639 17 355.639 -8 354.639 -8 c 0
 349.639 -8 346.639 1 346.639 8 c 2
 346.639 54 l 2
 346.639 59 344.639 59 344.639 59 c 1
 316.639 29 253.639 -7 202.639 -7 c 0
 96.6387 -7 77.6387 108 77.6387 192 c 2
 77.6387 316 l 2
 77.6387 329 77.6387 355 69.6387 370 c 0
 59.6387 388 26.6387 390 13.6387 390 c 1
 10.6387 393 9.63867 411 13.6387 416 c 1xac
 64.6387 418 114.639 425 150.639 436 c 1
 155.639 436 161.639 421 161.639 416 c 1
 157.639 408 154.639 380 154.639 351 c 2
 154.639 308 l 0
 154.639 204 l 2
 154.639 98 184.639 49 254.639 49 c 0
 298.639 49 346.639 80 346.639 104 c 2
 346.639 316 l 2x9c
EndSplineSet
Validated: 513
Substitution2: "'sinf' Scientific Inferiors lookup 5-1" u.sinf
Substitution2: "'sups' Superscript lookup 6-1" u.ssup
Substitution2: "'smcp' Lowercase to Small Capitals lookup 2-1" u.sc
Substitution2: "'subs' Subscript lookup 1-1" u.subs
Substitution2: "'ordn' Ordinals lookup 0-1" u.ordn
EndChar

StartChar: v
Encoding: 118 118 85
Width: 466
Flags: W
HStem: -11 21G<224.31 229.31> 401 29<-2.38232 50.2605 146.783 199.197 291.497 344.37 419.467 468.956>
LayerCount: 2
Fore
SplineSet
99.3096 425 m 0
 137.31 425 159.31 428 199.31 430 c 1
 201.31 424 200.31 401 195.31 401 c 1
 188.31 401 146.31 399 146.31 384 c 0
 146.31 383 146.31 382 147.31 380 c 0
 257.31 110 l 1
 257.31 110 308.31 243 346.31 337 c 0
 351.31 349 352.31 362 352.31 369 c 0
 352.31 389 328.31 401 294.31 401 c 1
 289.31 401 289.31 425 294.31 430 c 1
 325.31 428 334.31 425 375.31 425 c 0
 413.31 425 428.31 428 468.31 430 c 1
 472.31 424 469.31 401 465.31 401 c 1
 457.31 401 414.31 395 402.31 367 c 0
 343.31 226 310.31 148 252.31 6 c 0
 249.31 -2 232.31 -11 226.31 -11 c 0
 222.31 -11 218.31 -9 217.31 -7 c 0
 152.31 147 109.31 268 54.3096 381 c 0
 44.3096 402 11.3096 401 -0.69043 401 c 1
 -2.69043 406 -4.69043 420 -0.69043 430 c 1
 40.3096 428 58.3096 425 99.3096 425 c 0
EndSplineSet
Validated: 545
Substitution2: "'sinf' Scientific Inferiors lookup 5-1" v.sinf
Substitution2: "'sups' Superscript lookup 6-1" v.ssup
Substitution2: "'smcp' Lowercase to Small Capitals lookup 2-1" v.sc
Substitution2: "'subs' Subscript lookup 1-1" v.subs
Substitution2: "'ordn' Ordinals lookup 0-1" v.ordn
EndChar

StartChar: w
Encoding: 119 119 86
Width: 714
Flags: W
HStem: -11 21G<222.25 229.75 477.25 483.25> 401 29<-2.50562 48.1544 149.036 198.966 264.324 307.307 416.603 463.557 535.479 590.604 665.728 717.507>
VStem: 335.25 76<305.432 379.109>
LayerCount: 2
Fore
SplineSet
98.25 425 m 0
 136.25 425 158.25 428 198.25 430 c 1
 200.25 424 200.25 403 196.25 401 c 1
 188.25 401 146.25 399 146.25 378 c 0
 146.25 376.53 147.882 371.53 151.12 363 c 0
 163.294 330.922 198.163 248.922 254.25 117 c 1
 305.25 246 335.25 318 335.25 327 c 0
 335.25 334 324.25 363 311.25 382 c 0
 300.25 398 279.25 401 267.25 401 c 1
 262.25 404 262.25 425 267.25 430 c 1
 308.25 428 317.25 425 358.25 425 c 0
 396.25 425 422.25 428 462.25 430 c 1
 464.25 424 465.25 405 461.25 401 c 1
 430.25 401 411.25 393 411.25 369 c 0
 411.25 366 412.013 363.264 413.584 358 c 0
 421.53 331.376 450.145 261.937 505.25 120 c 1
 544.473 217.272 578 302 592.617 344 c 0
 596.574 355.369 598.25 363.689 598.25 368 c 0
 598.25 397 561.25 399 538.25 401 c 1
 534.25 404 533.25 425 538.25 430 c 1
 579.25 428 584.25 425 625.25 425 c 0
 663.25 425 677.25 428 717.25 430 c 1
 718.25 427 720.25 406 714.25 401 c 1
 706.25 401 658.25 395 646.25 365 c 0
 591.25 226 559.25 145 501.25 6 c 0
 498.25 -2 486.25 -11 480.25 -11 c 0
 474.25 -11 469.25 -9 468.25 -7 c 2
 357.25 282 l 1
 249.25 8 l 2
 248.25 5 235.25 -11 224.25 -11 c 0
 220.25 -11 216.25 -9 215.25 -7 c 0
 153.25 148 119.25 230 53.25 379 c 0
 44.25 400 11.25 401 -0.75 401 c 1
 -3.75 407 -3.75 424 -0.75 430 c 1
 40.25 428 57.25 425 98.25 425 c 0
EndSplineSet
Validated: 513
Substitution2: "'sinf' Scientific Inferiors lookup 5-1" w.sinf
Substitution2: "'sups' Superscript lookup 6-1" w.ssup
Substitution2: "'smcp' Lowercase to Small Capitals lookup 2-1" w.sc
Substitution2: "'subs' Subscript lookup 1-1" w.subs
Substitution2: "'ordn' Ordinals lookup 0-1" w.ordn
EndChar

StartChar: x
Encoding: 120 120 87
Width: 471
Flags: W
HStem: -3 29<7.92312 73.3115 145.227 199.165 257.674 301.091 410.065 465.815> 401 29<19.32 79.2591 179.313 221.675 263.501 319.799 377.283 446.041>
LayerCount: 2
Fore
SplineSet
120.04 425 m 0
 161.04 425 199 428 221.04 430 c 1
 222.04 426 224 407 219.04 401 c 1
 203.04 401 179.04 399 179.04 384 c 0
 179.04 381 181.04 377 184.04 372 c 2
 250.04 267 l 1
 277.041 309 321.041 362 321.041 382 c 0
 321.041 402 271 400 265.041 401 c 1
 263.041 402 262.041 426 265.041 430 c 1
 306.041 428 325.041 425 366.041 425 c 0
 402.041 425 432 428 446.041 430 c 1
 447.041 425 447.041 401 445.041 401 c 1
 426 400 381.041 396 368.041 379 c 0
 332.041 329 277.041 251 268.041 240 c 1
 278.041 225 388.041 62 388.041 62 c 2
 408.041 33 436.041 26 465.041 26 c 1
 467.041 26 467.041 1 464.041 -3 c 1
 427.041 -1 407.041 2 370.041 2 c 0
 327.041 2 302.041 -1 259.041 -3 c 1
 256.041 4 257.041 26 260.041 26 c 1
 274.041 27 302.041 32 302.041 44 c 0
 302.041 46 301.041 48 300.041 50 c 2
 300.041 50 248.04 135 221.04 175 c 1
 202.04 146 177.04 111 149.04 67 c 0
 144.04 59 143.04 53 143.04 48 c 0
 143.04 29 175.04 28 198.04 26 c 1
 200.04 26 201.04 2 197.04 -3 c 1
 158.04 -1 141.04 2 102.04 2 c 0
 64.04 2 46.04 -1 8.04004 -3 c 1
 6.04004 5 7.04004 21 10.04 26 c 1
 42.04 31 82.04 34 105.04 65 c 2
 105.04 65 198.04 199 203.04 206 c 1
 195.04 218 87.04 379 87.04 379 c 2
 75.7525 395.834 40.04 401 20.04 401 c 1
 18.04 401 18 424 21.04 430 c 1
 54 427 81.04 425 120.04 425 c 0
EndSplineSet
Validated: 513
Substitution2: "'sinf' Scientific Inferiors lookup 5-1" x.sinf
Substitution2: "'sups' Superscript lookup 6-1" x.ssup
Substitution2: "'smcp' Lowercase to Small Capitals lookup 2-1" x.sc
Substitution2: "'subs' Subscript lookup 1-1" x.subs
Substitution2: "'ordn' Ordinals lookup 0-1" x.ordn
EndChar

StartChar: y
Encoding: 121 121 88
Width: 464
Flags: W
HStem: -228 72<43.9989 126.364> 401 29<-0.252441 51.9509 148.473 200.887 289.188 342.061 417.157 466.647>
LayerCount: 2
Fore
SplineSet
101 425 m 0
 139 425 184 428 201 430 c 1
 203 424 202 401 197 401 c 1
 190 401 148 399 148 384 c 0
 148 383 148 382 149 380 c 0
 255 110 l 1
 255 110 306 243 344 337 c 0
 349 349 350 362 350 369 c 0
 350 389 326 401 292 401 c 1
 287 401 287 425 292 430 c 1
 307 428 341 425 382 425 c 0
 420 425 446 428 466 430 c 1
 470 424 467 401 463 401 c 1
 455 401 412 395 400 367 c 0
 341 226 308 148 250 6 c 0
 225 -55 199 -120 168 -169 c 0
 152 -194 115 -228 86 -228 c 0
 67 -228 40 -221 40 -185 c 0
 40 -173 47 -162 52 -156 c 1
 99 -156 134 -136 165 -99 c 0
 182 -79 210 -9 213 2 c 1
 157 145 115 253 56 381 c 0
 46 402 13 401 1 401 c 1
 -1 401 -1 428 1 430 c 1
 20 428 60 425 101 425 c 0
EndSplineSet
Validated: 545
Substitution2: "'sinf' Scientific Inferiors lookup 5-1" y.sinf
Substitution2: "'sups' Superscript lookup 6-1" y.ssup
Substitution2: "'smcp' Lowercase to Small Capitals lookup 2-1" y.sc
Substitution2: "'subs' Subscript lookup 1-1" y.subs
Substitution2: "'ordn' Ordinals lookup 0-1" y.ordn
EndChar

StartChar: z
Encoding: 122 122 89
Width: 444
Flags: W
HStem: 0 35<133 331.447> 397 34<103.374 287.509> 419 20G<54.5 145 374.5 397.5>
VStem: 383 33<89.5612 128.954>
LayerCount: 2
Fore
SplineSet
145 431 m 2xd0
 273 431 l 2xd0
 327 431 354 434 395 439 c 1xb0
 400 431 398 420 398 415 c 1
 398 415 133 38 133 35 c 1
 138 35 273 35 273 35 c 2
 334 35 371 82 383 125 c 0
 384 130 386 131 390 131 c 0
 398 131 411 125 416 119 c 1
 416 119 386 46 371 0 c 1
 313 0 177 0 46 0 c 1
 39 2 31 12 31 20 c 0
 31 21 31 26 32 27 c 2
 289 396 l 1
 149 397 l 2xd0
 92 397 81 345 73 327 c 0
 71 323 61 318 51 318 c 0
 45 318 40 319 40 321 c 1
 44 336 53 386 56 439 c 1xb0
 56 439 109 431 145 431 c 2xd0
EndSplineSet
Validated: 513
Substitution2: "'sinf' Scientific Inferiors lookup 5-1" z.sinf
Substitution2: "'sups' Superscript lookup 6-1" z.ssup
Substitution2: "'smcp' Lowercase to Small Capitals lookup 2-1" z.sc
Substitution2: "'subs' Subscript lookup 1-1" z.subs
Substitution2: "'ordn' Ordinals lookup 0-1" z.ordn
EndChar

StartChar: braceleft
Encoding: 123 123 90
Width: 220
Flags: W
VStem: 55.25 44<-56.6142 70.4159 505.584 632.614> 101.25 46<119.735 242.755 333.245 456.265>
LayerCount: 2
Fore
SplineSet
101.25 383 m 0
 101.25 409 89.25 433 78.25 458 c 0
 66.25 484 55.25 510 55.25 541 c 0
 55.25 638 119.25 703 162.25 720 c 1
 170.25 720 178.25 710 178.25 701 c 1
 151.25 688 99.25 640 99.25 589 c 0
 99.25 551 112.25 526 124.25 498 c 0
 136.25 473 147.25 445 147.25 405 c 0
 147.25 340 100.25 298 74.25 288 c 1
 100.25 278 147.25 236 147.25 171 c 0
 147.25 131 136.25 103 124.25 78 c 0
 112.25 50 99.25 25 99.25 -13 c 0
 99.25 -64 151.25 -112 178.25 -125 c 1
 178.25 -134 170.25 -144 162.25 -144 c 1
 119.25 -127 55.25 -62 55.25 35 c 0
 55.25 66 66.25 92 78.25 118 c 0
 89.25 143 101.25 167 101.25 193 c 0
 101.25 246 64.25 267 25.25 277 c 1
 23.75 279.5 23 283.75 23 288 c 0
 23 292.25 23.75 296.5 25.25 299 c 1
 64.25 309 101.25 330 101.25 383 c 0
EndSplineSet
Validated: 513
Substitution2: "'sinf' Scientific Inferiors lookup 5-1" braceleft.sinf
Substitution2: "'sups' Superscript lookup 6-1" braceleft.ssup
Substitution2: "'smcp' Lowercase to Small Capitals lookup 2-1" braceleft.sc
Substitution2: "'subs' Subscript lookup 1-1" braceleft.subs
Substitution2: "'ordn' Ordinals lookup 0-1" braceleft.ordn
EndChar

StartChar: bar
Encoding: 124 124 91
Width: 209
Flags: W
VStem: 74.2646 51<-117.404 764.903>
LayerCount: 2
Fore
SplineSet
125.265 -106 m 2
 125.265 -114 81.2646 -123 79.2646 -123 c 0
 72.2646 -123 74.2646 -119 74.2646 -115 c 2
 74.2646 757 l 1
 74.2646 757 73.2646 763 79.2646 765 c 0
 96.2646 770 113.265 772 116.265 772 c 0
 125.265 772 124.265 766 124.265 766 c 1
 125.265 -106 l 2
EndSplineSet
Validated: 513
Substitution2: "'sinf' Scientific Inferiors lookup 5-1" bar.sinf
Substitution2: "'sups' Superscript lookup 6-1" bar.ssup
Substitution2: "'smcp' Lowercase to Small Capitals lookup 2-1" bar.sc
Substitution2: "'subs' Subscript lookup 1-1" bar.subs
Substitution2: "'ordn' Ordinals lookup 0-1" bar.ordn
EndChar

StartChar: braceright
Encoding: 125 125 92
Width: 220
Flags: W
VStem: 69 46<119.735 242.755 333.245 456.265> 117 44<-56.6142 70.4159 505.584 632.614>
LayerCount: 2
Fore
SplineSet
54 720 m 1
 97 703 161 638 161 541 c 0
 161 510 150 484 138 458 c 0
 127 433 115 409 115 383 c 0
 115 330 152 309 191 299 c 1
 192.382 296.696 193 292 193 288 c 0
 193 283.426 192.618 279.696 191 277 c 1
 152 267 115 246 115 193 c 0
 115 167 127 143 138 118 c 0
 150 92 161 66 161 35 c 0
 161 -62 97 -127 54 -144 c 1
 46 -144 38 -134 38 -125 c 1
 65 -112 117 -64 117 -13 c 0
 117 25 104 50 92 78 c 0
 80 103 69 131 69 171 c 0
 69 236 116 278 142 288 c 1
 116 298 69 340 69 405 c 0
 69 445 80 473 92 498 c 0
 104 526 117 551 117 589 c 0
 117 640 65 688 38 701 c 1
 38 710 46 720 54 720 c 1
EndSplineSet
Validated: 513
Substitution2: "'sinf' Scientific Inferiors lookup 5-1" braceright.sinf
Substitution2: "'sups' Superscript lookup 6-1" braceright.ssup
Substitution2: "'smcp' Lowercase to Small Capitals lookup 2-1" braceright.sc
Substitution2: "'subs' Subscript lookup 1-1" braceright.subs
Substitution2: "'ordn' Ordinals lookup 0-1" braceright.ordn
EndChar

StartChar: asciitilde
Encoding: 126 126 93
Width: 570
Flags: W
HStem: 250 51<311.795 470.297> 303 51<103.163 257.768>
LayerCount: 2
Fore
SplineSet
268 277 m 0
 233 290 198 303 153 303 c 0
 114 303 86 281 62 259 c 1
 56 262 53 268 53 276 c 0
 53 313 130 354 183 354 c 0
 230 354 266 340 302 327 c 0
 337 314 372 301 419 301 c 0
 458 301 480 322 509 345 c 1
 515 342 518 336 518 328 c 0
 518 295 452 250 390 250 c 0
 341 250 305 263 268 277 c 0
EndSplineSet
Validated: 513
Substitution2: "'sinf' Scientific Inferiors lookup 5-1" asciitilde.sinf
Substitution2: "'sups' Superscript lookup 6-1" asciitilde.ssup
Substitution2: "'smcp' Lowercase to Small Capitals lookup 2-1" asciitilde.sc
Substitution2: "'subs' Subscript lookup 1-1" asciitilde.subs
Substitution2: "'ordn' Ordinals lookup 0-1" asciitilde.ordn
EndChar

StartChar: exclamdown
Encoding: 161 161 95
Width: 215
Flags: W
HStem: 320 110<61.4629 147.77>
VStem: 50 110<331.463 417.77> 56 94<-213.2 91.9102>
LayerCount: 2
Fore
SplineSet
50 374 m 0xc0
 50 404 74 430 104 430 c 0
 134 430 160 404 160 374 c 0
 160 344 134 320 104 320 c 0
 74 320 50 344 50 374 c 0xc0
100 -223 m 0
 69 -223 56 -191 56 -165 c 0
 56 -137 69 -3 90 247 c 1
 94 255 97 259 106 260 c 1
 111 258 117 255 120 249 c 1
 134 88 150 -114 150 -165 c 0xa0
 150 -193 132 -223 100 -223 c 0
EndSplineSet
Validated: 1
Substitution2: "'smcp' Lowercase to Small Capitals lookup 2-1" exclamdown.sc
EndChar

StartChar: cent
Encoding: 162 162 96
Width: 446
Flags: W
HStem: -8 66<228.481 324.563> 394 44<196.28 293.075>
VStem: 42 78<132.251 288.818> 186 28<-43.416 -0.869301> 269 28<427.956 470.975>
LayerCount: 2
Fore
SplineSet
269 472 m 17
 277 472 297 473 297 466 c 1
 214 -45 l 1
 205 -45 186 -45 186 -38 c 9
 269 472 l 17
385 388 m 0
 385 348 364 338 347 338 c 1
 325 338 306 364 289 375 c 0
 268 389 258 394 232 394 c 0
 179 394 120 332 120 227 c 0
 120 110 192 58 282 58 c 0
 337 58 375 94 388 109 c 1
 389 109 396 103 396 95 c 0
 396 90 393 82 390 77 c 0
 372 48 322 -8 244 -8 c 0
 122 -8 42 90 42 194 c 0
 42 340 181 438 285 438 c 0
 320 438 351 430 375 414 c 1
 379 410 385 393 385 388 c 0
EndSplineSet
Validated: 517
Substitution2: "'smcp' Lowercase to Small Capitals lookup 2-1" cent.sc
EndChar

StartChar: sterling
Encoding: 163 163 97
Width: 477
Flags: W
HStem: -8 66<234.736 357.199> 49 56<96.375 175.889> 306 36<64.469 375.738> 590 46<233.671 328.5>
VStem: 122 77<344.61 509.144> 145 75<188.868 347.673> 424 13<127.679 134.817>
LayerCount: 2
Fore
SplineSet
311 636 m 0x7a
 346 636 359 628 383 612 c 1
 387 608 393 594 393 584 c 0
 393 548 372 536 355 536 c 1
 333 536 317 559 302 573 c 0
 287 587 280 590 267 590 c 0
 215 590 199 528 199 459 c 0x7a
 199 385 220 328 220 272 c 0
 220 197 156 120 131 97 c 1
 145 104 155 105 166 105 c 0x76
 221 105 235 58 324 58 c 0
 379 58 415 121 424 139 c 1
 425 139 437 131 437 123 c 0
 437 119 436 114 434 108 c 0
 423 76 366 -8 288 -8 c 0xb6
 203 -8 165 49 113 49 c 0
 82 49 74 10 57 -6 c 1
 49 -6 41 7 41 16 c 0
 41 45 76 79 91 94 c 0
 119 122 145 182 145 231 c 0x76
 145 252 123 367 122 399 c 0
 118 535 217 636 311 636 c 0x7a
75 342 m 1
 91 342 367 342 378 342 c 1
 392 331 375 310 369 306 c 1
 52 306 l 17
 46 312 66 342 75 342 c 1
EndSplineSet
Validated: 549
Substitution2: "'smcp' Lowercase to Small Capitals lookup 2-1" sterling.sc
EndChar

StartChar: currency
Encoding: 164 164 98
Width: 578
Flags: W
HStem: 120 32<242.525 337.572> 463 33<227.384 322.636>
VStem: 99 73<224.803 397.542> 392 72<218.015 391.134>
LayerCount: 2
Fore
SplineSet
291 152 m 0
 352 152 392 219 392 294 c 0
 392 386 337 463 274 463 c 0
 213 463 172 394 172 319 c 0
 172 227 228 152 291 152 c 0
395 455 m 1
 454 510 l 2
 462 518 488 490 495 466 c 1
 435 410 l 1
 453 380 464 344 464 307 c 0
 464 267 452 230 431 199 c 1
 485 141 l 2
 493 133 465 107 441 100 c 1
 389 155 l 1
 359 133 323 120 283 120 c 0
 240 120 200 135 169 160 c 1
 116 110 l 2
 108 102 82 130 75 154 c 1
 129 205 l 1
 110 235 99 270 99 307 c 0
 99 351 113 391 137 423 c 1
 85 479 l 2
 77 487 105 513 129 520 c 1
 181 465 l 1
 210 485 245 496 283 496 c 0
 326 496 364 481 395 455 c 1
EndSplineSet
Validated: 33
EndChar

StartChar: yen
Encoding: 165 165 99
Width: 675
Flags: W
HStem: -3 29<223.404 294.252 392.748 463.596> 138 37<212.68 480.931> 218 37<212.68 480.931> 611 29<26.1875 81.7014 229.181 283.161 428.728 494.108 580.99 642.475>
VStem: 300 87<32.7426 296.719>
LayerCount: 2
Fore
SplineSet
222 175 m 1
 238 175 473 175 484 175 c 1
 498 164 480 142 474 138 c 1
 202 138 l 17
 196 144 213 175 222 175 c 1
222 255 m 1
 238 255 473 255 484 255 c 1
 498 244 480 222 474 218 c 1
 202 218 l 17
 196 224 213 255 222 255 c 1
300 116 m 2
 300 245 l 0
 300 252 298 263 293 273 c 16
 235 378 210 420 151 526 c 0
 130 563 113 579 85 595 c 0
 68 605 41 611 29 611 c 0
 24 611 24 635 29 640 c 1
 78 638 105 635 154 635 c 0
 203 635 242 638 282 640 c 1
 284 634 285 611 280 611 c 0
 266 611 220 605 220 579 c 0
 220 571 224.25 562 232 549 c 2
 369.25 313 l 1
 418.25 401 489 539 501 570 c 0
 502 573 504 579 504 585 c 0
 504 591 487 610 431 610 c 1
 428 610 427 636 429 639 c 1
 466 637 495 634 532 634 c 0
 584 634 602 637 642 639 c 1
 644.25 633 643 610 640 610 c 1
 632 610 575 610 552 570 c 0
 514 503 436 359 393 279 c 8
 387 268 388 257 388 248 c 0
 388 188 387 116 387 116 c 2
 387 86 387 58 392 42 c 0
 395 31 449 26 461 26 c 1
 465 21 466 2 461 -3 c 1
 420 -1 383 2 344 2 c 0
 305 2 267 -1 226 -3 c 1
 221 2 222 21 226 26 c 1
 238 26 292 31 295 42 c 0
 300 58 300 86 300 116 c 2
EndSplineSet
Validated: 549
Substitution2: "'smcp' Lowercase to Small Capitals lookup 2-1" yen.sc
EndChar

StartChar: brokenbar
Encoding: 166 166 100
Width: 200
Flags: W
VStem: 75.2646 51.0004<-118.458 256.903 389.542 764.903>
LayerCount: 2
Fore
SplineSet
126.265 400 m 2
 126 392 82.2646 385 80.2646 385 c 0
 73.2646 385 75.2646 389 75.2646 393 c 2
 75.2646 757 l 1
 75.2646 757 74.2646 763 80.2646 765 c 0
 97.2646 770 115.265 770 118.265 770 c 0
 127.265 770 126.265 764 126.265 764 c 1
 126.265 400 l 2
75.2646 -115 m 2
 75.2646 249 l 1
 75.2646 249 74.2646 255 80.2646 257 c 0
 97.2646 262 115.265 262 118.265 262 c 0
 127.265 262 126.265 256 126.265 256 c 1
 126.265 -108 l 2
 126 -116 82.2646 -123 80.2646 -123 c 0
 73.2646 -123 75.2646 -119 75.2646 -115 c 2
EndSplineSet
Validated: 513
Substitution2: "'sinf' Scientific Inferiors lookup 5-1" brokenbar.sinf
Substitution2: "'sups' Superscript lookup 6-1" brokenbar.ssup
Substitution2: "'smcp' Lowercase to Small Capitals lookup 2-1" brokenbar.sc
Substitution2: "'subs' Subscript lookup 1-1" brokenbar.subs
Substitution2: "'ordn' Ordinals lookup 0-1" brokenbar.ordn
EndChar

StartChar: section
Encoding: 167 167 101
Width: 440
Flags: W
HStem: -78 50<109.723 235.609> 603 50<200.391 326.277>
VStem: 35 54<353.266 469.951> 117 46<493.45 550.473> 273 46<24.5271 81.55> 347 54<105.049 221.734>
LayerCount: 2
Fore
SplineSet
301 653 m 0
 315 653 328 651 342 645 c 1
 347 635 348 625 348 619 c 0
 348 605 328 583 312 583 c 0
 295 583 286 590 276 595 c 0
 268 599 259 603 244 603 c 0
 213 603 163 587 163 549 c 0
 163 503 238 426 285 383 c 0
 337 335 401 265 401 179 c 0
 401 105 305 -9 267 -35 c 9
 269 -23 267 -14 273 -3 c 24
 283 14 307 33 307 33 c 0
 329 71 347 91 347 135 c 0
 347 218 289 285 235 335 c 0
 187 379 117 435 117 507 c 0
 117 587 189 653 301 653 c 0
135 -78 m 0
 121 -78 108 -76 94 -70 c 1
 89 -60 88 -50 88 -44 c 0
 88 -30 108 -8 124 -8 c 0
 141 -8 150 -15 160 -20 c 0
 168 -24 177 -28 192 -28 c 0
 223 -28 273 -12 273 26 c 0
 273 72 198 149 151 192 c 0
 99 240 35 310 35 396 c 0
 35 470 131 584 169 610 c 9
 167 598 169 589 163 578 c 24
 153 561 129 542 129 542 c 0
 107 504 89 484 89 440 c 0
 89 357 147 290 201 240 c 0
 249 196 319 140 319 68 c 0
 319 -12 247 -78 135 -78 c 0
EndSplineSet
Validated: 517
Substitution2: "'sinf' Scientific Inferiors lookup 5-1" section.sinf
Substitution2: "'sups' Superscript lookup 6-1" section.ssup
Substitution2: "'smcp' Lowercase to Small Capitals lookup 2-1" section.sc
Substitution2: "'subs' Subscript lookup 1-1" section.subs
Substitution2: "'ordn' Ordinals lookup 0-1" section.ordn
EndChar

StartChar: dieresis
Encoding: 168 168 102
Width: 337
Flags: W
HStem: 468 98<37.0176 119.299 220.018 302.299>
VStem: 28 100<476.719 556.943> 211 100<476.719 556.943>
LayerCount: 2
Fore
SplineSet
262 566 m 27
 289 566 311 543 311 516 c 27
 311 489 288 468 261 468 c 27
 234 468 211 490 211 517 c 27
 211 544 235 566 262 566 c 27
79 566 m 27
 106 566 128 543 128 516 c 27
 128 489 105 468 78 468 c 27
 51 468 28 490 28 517 c 27
 28 544 52 566 79 566 c 27
EndSplineSet
Validated: 1
EndChar

StartChar: copyright
Encoding: 169 169 103
Width: 660
Flags: W
HStem: 69 31<244.455 408.652> 195 32<293.319 413.675> 449 34<286.437 401.899> 584 31<244.455 408.652>
VStem: 53 33<256.704 427.296> 184 57<271.691 409.392> 569 31<259.894 424.106>
LayerCount: 2
Fore
SplineSet
453 276 m 5
 453 273 440 217 433 214 c 4
 401 201 369 195 327 195 c 4
 246 195 184 257 184 336 c 4
 184 416 242 483 325 483 c 4
 355 483 403 477 437 464 c 5
 437 464 453 407 453 403 c 4
 453 398 444 394 437 394 c 4
 434 394 432 395 430 396 c 5
 427 409 408 449 337 449 c 4
 283 449 241 400 241 345 c 4
 241 264 300 227 346 227 c 4
 376 227 405 234 418 246 c 4
 430 257 431 279 433 279 c 4
 436 279 452 278 453 276 c 5
86 342 m 4
 86 209 194 100 327 100 c 4
 460 100 569 209 569 342 c 4
 569 475 460 584 327 584 c 4
 194 584 86 475 86 342 c 4
53 342 m 4
 53 493 175 615 326 615 c 4
 477 615 600 493 600 342 c 4
 600 191 477 69 326 69 c 4
 175 69 53 191 53 342 c 4
EndSplineSet
Validated: 513
Substitution2: "'smcp' Lowercase to Small Capitals lookup 2-1" copyright.sc
EndChar

StartChar: ordfeminine
Encoding: 170 170 104
Width: 344
Flags: W
HStem: 249 37<112.046 170.137 242 291.603> 526 30<123.074 187.272>
VStem: 44 57<293.972 374.217> 54 56<455.248 499.854> 208 53<299.663 405 422.392 513.145>
LayerCount: 2
Fore
SplineSet
148 286 m 0xe8
 172 286 208 313 208 320 c 2
 208 405 l 17
 189 399 156 390 144 385 c 0
 119 375 101 361 101 335 c 0
 101 309 122 286 148 286 c 0xe8
185 556 m 0
 224 556 261 515 261 462 c 2
 261 319 l 2
 261 300 266 286 282 286 c 0
 294 286 303 294 305 295 c 1
 307 295 308 292 308 290 c 0
 308 286 306 280 304 277 c 1
 296 269 267 250 252 250 c 0
 232 250 214 274 210 295 c 1
 202 287 149 249 125 249 c 0
 79 249 44 284 44 329 c 0xe8
 44 357 64 378 79 384 c 0
 118 398 180 419 200 428 c 0
 207 431 208 433 208 445 c 2
 208 464 l 2
 208 495 187 526 149 526 c 0
 125 526 115 514 110 487 c 0
 106 463 95 454 78 454 c 0
 63 454 54 469 54 483 c 0xd8
 54 486 56 497 59 500 c 1
 80 520 134 556 185 556 c 0
EndSplineSet
Validated: 513
Substitution2: "'smcp' Lowercase to Small Capitals lookup 2-1" ordfeminine.sc
EndChar

StartChar: guillemotleft
Encoding: 171 171 105
Width: 487
Flags: W
LayerCount: 2
Fore
SplineSet
208 246 m 4
 208 256 209 255 213 264 c 5
 344 343 421 422 422 423 c 5
 438 418 442 414 444 411 c 5
 438 390 342 288 296 247 c 5
 342 206 438 104 444 83 c 5
 442 80 438 76 422 71 c 5
 421 72 344 151 213 230 c 5
 211 233 208 240 208 246 c 4
28 246 m 4
 28 256 29 255 33 264 c 5
 164 343 241 422 242 423 c 5
 258 418 262 414 264 411 c 5
 258 390 162 288 116 247 c 5
 162 206 258 104 264 83 c 5
 262 80 258 76 242 71 c 5
 241 72 164 151 33 230 c 5
 31 233 28 240 28 246 c 4
EndSplineSet
Validated: 513
Substitution2: "'smcp' Lowercase to Small Capitals lookup 2-1" guillemotleft.sc
EndChar

StartChar: logicalnot
Encoding: 172 172 106
Width: 588
Flags: W
HStem: 364 56<45.988 453>
VStem: 453 60<159.121 364>
LayerCount: 2
Fore
SplineSet
513 420 m 17
 513 322 513 169 513 169 c 17
 512 168 486 154 466 154 c 0
 466 154 456 155 453 161 c 1
 453 183 453 285 453 364 c 9
 48 364 l 1
 48 364 42 364 42 374 c 1
 42 374 47 420 57 420 c 2
 513 420 l 17
EndSplineSet
Validated: 1
EndChar

StartChar: registered
Encoding: 174 174 107
Width: 660
Flags: W
HStem: 133 32<244.455 408.652> 272.612 14.266<201.088 231.623 282.8 313.336 446.412 475.477> 402.612 18.111<280.61 310.902> 535.801 16.803<201.418 231.623 282.814 338.257> 648 32<244.455 408.652>
VStem: 53 33<321.65 492.235> 233.813 46.797<293.966 402.612 420.723 531.328> 362.43 47.912<431.522 526.474> 569 31<324.848 489.045>
LayerCount: 2
Fore
SplineSet
319.752 552.604 m 4
 358.239 552.604 410.342 527.65 410.342 479.434 c 4
 410.342 448.982 384.183 420.573 355 410 c 5
 377.416 372.78 399 344 426.915 310.254 c 4
 439.801 294.676 451.446 288.569 474.709 286.878 c 5
 476.822 284.763 474.709 273.458 474.285 272.612 c 5
 445.947 272.612 414.915 274.728 406.455 277.688 c 4
 400.535 279.803 389.114 283.186 378.964 296.297 c 4
 372.62 304.757 335.36 356.087 308.715 397.537 c 4
 306.178 401.343 301.948 402.612 296.026 402.612 c 4
 296.026 402.612 284.417 402.612 280.61 402.612 c 5
 280.61 371.736 280.61 324.942 280.61 324.942 c 5
 280.61 312.254 280.61 300.412 282.725 293.645 c 4
 283.994 288.993 306.833 286.878 311.908 286.878 c 5
 313.6 284.763 314.023 274.728 311.908 272.612 c 5
 294.567 273.458 274.918 274.728 258.423 274.728 c 4
 241.929 274.728 219.856 273.458 202.516 272.612 c 5
 200.4 274.728 200.824 284.763 202.516 286.878 c 5
 207.591 286.878 230.43 288.993 231.698 293.645 c 4
 233.813 300.412 234 312 233.813 324.942 c 6
 233.813 501.543 l 6
 234 514 233.813 526.074 231.698 532.841 c 4
 230.43 537.493 207.591 539.607 202.516 539.607 c 5
 200.824 541.723 200.4 551.758 202.516 553.873 c 5
 219.856 553.028 243.197 551.758 259.692 551.758 c 4
 276.187 551.758 294.797 552.604 319.752 552.604 c 4
362.43 469.283 m 4
 362.43 506.926 350.819 535.801 303.873 535.801 c 4
 298.797 535.801 284.417 535.379 282.725 531.572 c 4
 280.61 526.497 281 513 280.61 499.851 c 6
 280.61 420.723 l 5
 280.61 420.723 292 421 299.449 420.723 c 20
 335.4 420.723 362.43 436.717 362.43 469.283 c 4
86 407 m 4
 86 274 194 165 327 165 c 4
 460 165 569 274 569 407 c 4
 569 540 460 648 327 648 c 4
 194 648 86 540 86 407 c 4
53 407 m 4
 53 558 175 680 326 680 c 4
 477 680 600 558 600 407 c 4
 600 256 477 133 326 133 c 4
 175 133 53 256 53 407 c 4
EndSplineSet
Validated: 513
Substitution2: "'smcp' Lowercase to Small Capitals lookup 2-1" registered.sc
EndChar

StartChar: macron
Encoding: 175 175 108
Width: 483
Flags: W
HStem: 550 46<557.21 774.904>
VStem: 556 225<550.013 596>
LayerCount: 2
Fore
SplineSet
556 559 m 0
 556 561 557 596 568 596 c 2
 776 596 l 2
 778 596 781 595 781 589 c 0
 781 584 780 575 775 557 c 0
 773 551 768 550 768 550 c 1
 562 550 l 1
 562 550 556 549 556 559 c 0
EndSplineSet
Validated: 1
EndChar

StartChar: degree
Encoding: 176 176 109
Width: 272
Flags: W
HStem: 437 37<90.8121 176.842> 597 37<90.8121 176.842>
VStem: 35 37<492.812 578.842> 195 37<492.812 578.842>
LayerCount: 2
Fore
SplineSet
72 536 m 0
 72 502 100 474 134 474 c 0
 168 474 195 502 195 536 c 0
 195 570 168 597 134 597 c 0
 100 597 72 570 72 536 c 0
35 536 m 0
 35 590 80 634 134 634 c 0
 188 634 232 590 232 536 c 0
 232 482 188 437 134 437 c 0
 80 437 35 482 35 536 c 0
EndSplineSet
Validated: 513
Substitution2: "'smcp' Lowercase to Small Capitals lookup 2-1" degree.sc
EndChar

StartChar: plusminus
Encoding: 177 177 110
Width: 549
Flags: W
HStem: 6 56<36.4861 508.076> 305 56<36.4861 243 299 508.076>
VStem: 243 56<94.125 305 361 567.966>
LayerCount: 2
Fore
SplineSet
47 62 m 1
 127.168 62 456 62 503 62 c 0
 507 62 512 58 512 50 c 0
 512 33.7207 504 14 496 6 c 1
 421 6 38 6 38 6 c 1
 38 6 32 6 32 16 c 0
 32 20 37 54 47 62 c 1
47 361 m 1
 127.168 361 243 361 243 361 c 9
 243 361 243 542 243 561 c 1
 259 567 279 572 286 572 c 0
 296 572 299 566 299 566 c 1
 299 361 l 25
 379 361 423 361 503 361 c 16
 507 361 512 357 512 349 c 0
 512 332.721 504 313 496 305 c 1
 421 305 299 305 299 305 c 25
 299 305 299 180 299 103 c 1
 287 94 266 92 256 92 c 0
 249 92 243 97 243 101 c 2
 243 305 l 25
 38 305 l 1
 38 305 32 305 32 315 c 0
 32 319 37 353 47 361 c 1
EndSplineSet
Validated: 1
EndChar

StartChar: uni00B2
Encoding: 178 178 111
Width: 356
Flags: W
HStem: 254 55<118.313 280.313> 602 45<105.803 207.695>
VStem: 224.313 65<472.152 585.997>
LayerCount: 2
Fore
SplineSet
317.313 360 m 1
 306.313 331 294.313 287 280.313 254 c 1
 48.3135 254 l 1
 42.3135 254 34.3135 262 36.3135 266 c 1
 76.7435 309.998 135.556 363.187 176.6 418 c 0
 204.588 455.378 224.313 493.511 224.313 530 c 0
 224.313 572 200.313 602 158.313 602 c 0
 113.313 602 89.3135 575 71.3135 553 c 1
 67.3135 549 53.3135 565 54.3135 570 c 1
 77.3135 610 124.313 647 170.313 647 c 0
 240.313 647 289.313 603 289.313 540 c 0
 289.313 507 273.313 475 243.313 439 c 0
 216.313 407 166.313 358 118.313 309 c 1
 126.313 309 238.313 309 238.313 309 c 2
 279.313 309 292.313 353 298.313 363 c 0
 299.313 365 300.313 365 303.313 366 c 0
 306.313 366 314.313 364 317.313 360 c 1
EndSplineSet
Validated: 1
EndChar

StartChar: uni00B3
Encoding: 179 179 112
Width: 316
Flags: W
HStem: 249 28<104.743 184.501> 607 39<99.6021 177.209>
VStem: 190 56<513.694 596.981> 214 64<312.363 429.422>
LayerCount: 2
Fore
SplineSet
159 646 m 0xe0
 201 646 246 620 246 569 c 0xe0
 246 525 210 496 188 486 c 1
 214 486 278 452 278 386 c 0
 278 298 202 249 115 249 c 0
 93 249 58 255 48 264 c 1
 48 264 36 275 36 288 c 0
 36 308 51 321 67 321 c 0
 84 321 91 304 103 292 c 0
 113 282 127 277 142 277 c 0
 184 277 214 307 214 368 c 0xd0
 214 417 179 454 142 454 c 0
 124 454 107 447 102 446 c 1
 99.8588 448.141 98.0041 452.575 97.0496 457 c 0
 96.2209 460.841 96.0706 464.677 97 467 c 1
 146 477 190 507 190 556 c 0
 190 582 165 607 139 607 c 0
 102 607 75 576 69 570 c 1
 64 572 59 585 60 586 c 1
 74 607 106 646 159 646 c 0xe0
EndSplineSet
Validated: 1
EndChar

StartChar: acute
Encoding: 180 180 113
Width: 489
Flags: W
HStem: 527 160
VStem: 521 168
LayerCount: 2
Fore
SplineSet
648 687 m 0
 683 687 689 668 689 663 c 0
 689 624 543 527 533 527 c 0
 526 527 521 534 521 540 c 0
 521 546 578 637 614 678 c 0
 619 683 634 687 648 687 c 0
EndSplineSet
Validated: 1
EndChar

StartChar: uni00B5
Encoding: 181 181 114
Width: 502
Flags: W
HStem: -227 21G<124 135> -9 73<165.372 248.249 408.184 467.783> 417 20G<111 122 353 364>
VStem: 93 77<250.141 422.656> 93 43<108.623 298.513> 335 77<250.141 422.656>
LayerCount: 2
Fore
SplineSet
142 223 m 0xf4
 142 144 157 64 193 64 c 0
 260 64 310 155 335 227 c 1
 335 251 335 275 335 298 c 0
 335 311 336 379 335 417 c 1
 340 425 347 437 359 437 c 0
 369 437 412 413 412 400 c 0
 412 382 403 335 389 246 c 0
 387 236 379 195 379 195 c 1
 379 124 403 66 449 66 c 0
 475 66 493 87 500 96 c 1
 503 96 506 92 509 87 c 0
 511 83 512 79 512 76 c 0
 499 32 459 -4 419 -4 c 0
 371 -3 356 115 354 142 c 1
 324 72 269 -9 199 -9 c 0
 157 -9 141 71 136 101 c 1xec
 138 76 131 -89 153 -207 c 1
 148 -215 141 -227 129 -227 c 0
 119 -227 76 -203 76 -190 c 0
 76 -172 85 100 97 204 c 1
 97 228 93 275 93 298 c 0
 93 311 94 379 93 417 c 1
 98 425 105 437 117 437 c 0
 127 437 170 413 170 400 c 0
 170 382 166 335 147 246 c 0
 146 240 142 223 142 223 c 0xf4
EndSplineSet
Validated: 33
EndChar

StartChar: paragraph
Encoding: 182 182 115
Width: 486
Flags: W
HStem: -4 27<155.918 213.942 371.084 431.289> 2 34<267.061 317.941> 288 40<264 320> 299 40<361 390.484> 611 37<264.286 320.805> 624 29<369.14 424.455>
VStem: 33 231<391.968 555.804> 225 39<42.7588 287> 321 40<42.7588 292 339 610.302>
LayerCount: 2
Fore
SplineSet
321 333 m 5x2980
 321 369 321 593 321 606 c 5
 317 610 302 611 292 611 c 4
 282 611 270 611 264 605 c 13
 264 605 264 430 264 328 c 5
 270 328 317 330 321 333 c 5x2980
320 292 m 17
 306 291 280 289 264 288 c 9
 264 221 264 183 264 116 c 16
 264 86 264 58 267 42 c 0
 268 35 288 36 292 36 c 0x6180
 299 36 317 36 318 42 c 0
 321 58 321 86 321 116 c 2
 320 292 l 17
360 299 m 1x1680
 360 228 360 187 360 116 c 16
 360 86 360 58 365 42 c 0
 368 31 418 23 430 23 c 1
 432 23 432 -2 430 -4 c 1x9680
 367 -2 359 2 296 2 c 0x4280
 250 2 197 -2 157 -4 c 1
 155 2 154 19 159 23 c 1
 167 23 217 31 220 42 c 0
 225 58 225 86 225 116 c 2
 225 287 l 17x8180
 97 287 33 399 33 469 c 0
 33 578 122 652 204 652 c 0
 263 652 242 648 301 648 c 0x8a80
 368 648 422 653 422 653 c 1
 427 648 426 627 421 624 c 1
 406 624 369 616 364 604 c 0
 362 597 361 591 361 540 c 0
 361 479 361 358 361 339 c 1
 366 338 410 352 410 352 c 1
 415 352 420 350 420 346 c 0
 419 336 398 312 391 309 c 0
 380 304 368 300 360 299 c 1x1680
EndSplineSet
Validated: 545
Substitution2: "'sinf' Scientific Inferiors lookup 5-1" paragraph.sinf
Substitution2: "'sups' Superscript lookup 6-1" paragraph.ssup
Substitution2: "'smcp' Lowercase to Small Capitals lookup 2-1" paragraph.sc
Substitution2: "'subs' Subscript lookup 1-1" paragraph.subs
Substitution2: "'ordn' Ordinals lookup 0-1" paragraph.ordn
EndChar

StartChar: periodcentered
Encoding: 183 183 116
Width: 225
Flags: W
HStem: 205 117<64.2549 153.745>
VStem: 51 116<217.764 309.619>
LayerCount: 2
Fore
SplineSet
51 264 m 0
 51 296 77 322 109 322 c 0
 141 322 167 296 167 264 c 0
 167 232 141 205 109 205 c 0
 77 205 51 232 51 264 c 0
EndSplineSet
Validated: 1
EndChar

StartChar: cedilla
Encoding: 184 184 117
Width: 492
Flags: W
HStem: -152 24<645.959 721.915> -61 34<699 726.414>
VStem: 731 37<-122.34 -64.0801>
LayerCount: 2
Fore
SplineSet
699 -27 m 1
 724 -27 l 2
 750 -27 768 -50 768 -76 c 0
 768 -123 728 -152 686 -152 c 0
 669 -152 647 -142 643 -138 c 1
 640 -134 635 -126 635 -120 c 0
 635 -118 636 -115 638 -114 c 1
 645 -118 667 -128 688 -128 c 0
 716 -128 731 -112 731 -95 c 0
 731 -71 713 -61 700 -61 c 0
 689 -61 684 -64 674 -68 c 0
 672 -68 662 -59 664 -55 c 0
 673 -40 688 -18 696 -4 c 1
 717 -4 l 1
 699 -27 l 1
EndSplineSet
Validated: 1
EndChar

StartChar: uni00B9
Encoding: 185 185 118
Width: 291
Flags: W
HStem: 253 25<54.7773 112.633 204.768 255.819>
VStem: 120 74<293.746 568.147>
LayerCount: 2
Fore
SplineSet
120 518 m 2
 120 564 112 569 101 569 c 0
 89 569 65 560 45 553 c 1
 39 556 36 564 36 570 c 0
 36 573 37 577 39 578 c 0
 145 622 186 652 189 652 c 2
 191 652 l 2
 197 652 202 632 203 629 c 1
 203 629 194 587 194 548 c 2
 194 340 l 2
 194 320 195 309 202 293 c 0
 205 286 246 279 254 279 c 1
 257 279 257 257 254 253 c 1
 215 254 197 256 158 256 c 0
 119 256 97 254 58 253 c 1
 53 256 53 278 58 278 c 0
 70 278 111 285 114 292 c 0
 119 305 120 328 120 338 c 2
 120 518 l 2
EndSplineSet
Validated: 1
EndChar

StartChar: ordmasculine
Encoding: 186 186 119
Width: 386
Flags: W
HStem: 247 24<160.771 236.041> 530 24<146.201 224.228>
VStem: 35 69<322.561 478.564> 278 69<323.778 480.457>
LayerCount: 2
Fore
SplineSet
184 530 m 0
 126 530 104 467 104 411 c 0
 104 345 135 271 201 271 c 0
 256 271 278 336 278 391 c 0
 278 456 249 530 184 530 c 0
193 554 m 0
 280 554 347 486 347 403 c 0
 347 320 280 247 193 247 c 0
 106 247 35 316 35 399 c 0
 35 484 104 554 193 554 c 0
EndSplineSet
Validated: 513
Substitution2: "'smcp' Lowercase to Small Capitals lookup 2-1" ordmasculine.sc
EndChar

StartChar: guillemotright
Encoding: 187 187 120
Width: 490
Flags: W
LayerCount: 2
Fore
SplineSet
278 246 m 0
 278 240 275 233 273 230 c 1
 142 151 65 72 64 71 c 1
 48 76 44 80 42 83 c 1
 48 104 144 206 190 247 c 1
 144 288 48 390 42 411 c 1
 44 414 48 418 64 423 c 1
 65 422 142 343 273 264 c 1
 277 255 278 256 278 246 c 0
458 246 m 0
 458 240 455 233 453 230 c 1
 322 151 245 72 244 71 c 1
 228 76 224 80 222 83 c 1
 228 104 324 206 370 247 c 1
 324 288 228 390 222 411 c 1
 224 414 228 418 244 423 c 1
 245 422 322 343 453 264 c 1
 457 255 458 256 458 246 c 0
EndSplineSet
Validated: 513
Substitution2: "'smcp' Lowercase to Small Capitals lookup 2-1" guillemotright.sc
EndChar

StartChar: onequarter
Encoding: 188 188 121
Width: 700
Flags: W
HStem: 106 45<442 556 618 652.032> 251 22<51.0603 98.6719 184.454 233.491>
VStem: 112 62<288.617 554.988> 556 59<-2.87817 106 151 305>
LayerCount: 2
Fore
SplineSet
606 407 m 4
 612 407 615 400 615 395 c 12
 615 298 615 238 615 146 c 5
 622 146 640 146 650 146 c 5
 659 138 664 120 656 106 c 5
 642 106 624 106 618 106 c 13
 618 0 l 5
 616.442 -1.55844 602.47 -3.11688 588 -3.13327 c 4
 574.616 -3.14843 560.805 -1.84417 556 2 c 13
 556 106 l 5
 552 106 391 106 391 106 c 5
 386 107 382 111 381 122 c 5
 586 395 l 6
 590 400 598 407 606 407 c 4
556 151 m 13
 556 151 556 296 556 305 c 5
 515 253 487 209 442 151 c 5
 449 151 548 151 556 151 c 13
174 534 m 2
 174 336 l 2
 174 316 176 302 181 287 c 0
 183 280 223 273 231 273 c 1
 236 268 233 253 232 251 c 1
 193 252 185 254 146 254 c 0
 107 254 93 252 54 251 c 1
 49 254 50 269 54 273 c 1
 66 273 101 281 104 288 c 0
 109 301 112 324 112 334 c 2
 112 520 l 2
 112 539 105 555 95 555 c 0
 84 555 67 547 47 540 c 1
 41 543 36 552 34 558 c 1
 53 570 84 588 169 638 c 1
 176 636 182 629 182 622 c 1
 182 622 174 573 174 534 c 2
186.25 -12.6621 m 0
 175.587 -10.5215 174.694 -3.91699 174.694 -3.91699 c 1
 524.32 636.398 l 1
 525.562 638.903 538.35 647.353 555.41 643.928 c 0
 561.097 642.787 562.876 636.922 563.057 634.132 c 1
 218.046 2.06934 l 2
 214.673 -3.67969 202.599 -15.9424 186.25 -12.6621 c 0
EndSplineSet
Validated: 33
EndChar

StartChar: onehalf
Encoding: 189 189 122
Width: 752
Flags: W
HStem: -1 55<516 678> 251 22<53.0603 100.672 186.454 235.491> 347 45<503.49 605.382>
VStem: 114 62<288.617 554.988> 622 65<217.197 330.997>
LayerCount: 2
Fore
SplineSet
568 392 m 0
 638 392 687 348 687 285 c 0
 687 252 671 220 641 184 c 0
 614 152 564 103 516 54 c 1
 524 54 636 54 636 54 c 2
 677 54 690 98 696 108 c 0
 697 110 698 110 701 111 c 0
 704 111 712 109 715 105 c 1
 704 76 692 32 678 -1 c 1
 446 -1 l 1
 440 -1 432 7 434 11 c 1
 471.72 52.0481 525.44 101.096 565.803 152 c 0
 598.205 192.864 622 234.923 622 275 c 0
 622 317 598 347 556 347 c 0
 511 347 487 320 469 298 c 1
 465 294 451 310 452 315 c 1
 475 355 522 392 568 392 c 0
176 534 m 2
 176 336 l 2
 176 316 178 302 183 287 c 0
 185 280 225 273 233 273 c 1
 238 268 235 253 234 251 c 1
 195 252 187 254 148 254 c 0
 109 254 95 252 56 251 c 1
 51 254 52 269 56 273 c 1
 68 273 103 281 106 288 c 0
 111 301 114 324 114 334 c 2
 114 520 l 2
 114 539 107 555 97 555 c 0
 86 555 69 547 49 540 c 1
 43 543 38 552 36 558 c 1
 55 570 86 588 171 638 c 1
 178 636 184 629 184 622 c 1
 184 622 176 573 176 534 c 2
563.057 634.132 m 1
 218.046 2.06934 l 2
 214.673 -3.67969 202.599 -15.9424 186.25 -12.6621 c 0
 175.587 -10.5215 174.694 -3.91699 174.694 -3.91699 c 1
 524.32 636.398 l 1
 525.562 638.903 538.35 647.353 555.41 643.928 c 0
 561.097 642.787 562.876 636.922 563.057 634.132 c 1
EndSplineSet
Validated: 33
EndChar

StartChar: threequarters
Encoding: 190 190 123
Width: 701
Flags: W
HStem: 106 45<442 556 618 652.032> 249 28<102.743 182.501> 607 39<97.6021 175.209>
VStem: 188 56<513.694 596.981> 212 64<312.363 429.422> 556 59<-2.87817 106 151 305>
LayerCount: 2
Fore
SplineSet
606 407 m 0xe4
 612 407 615 400 615 395 c 8
 615 298 615 238 615 146 c 1
 622 146 640 146 650 146 c 1
 659 138 664 120 656 106 c 1
 642 106 624 106 618 106 c 9
 618 0 l 1
 616.442 -1.55844 602.47 -3.11688 588 -3.13327 c 0
 574.616 -3.14843 560.805 -1.84417 556 2 c 9
 556 106 l 1
 552 106 391 106 391 106 c 1
 386 107 382 111 381 122 c 1
 586 395 l 2
 590 400 598 407 606 407 c 0xe4
556 151 m 9
 556 151 556 296 556 305 c 1
 515 253 487 209 442 151 c 1
 449 151 548 151 556 151 c 9
157 646 m 0
 199 646 244 620 244 569 c 0xf4
 244 525 208 496 186 486 c 1
 212 486 276 452 276 386 c 0
 276 298 200 249 113 249 c 0
 91 249 56 255 46 264 c 1
 46 264 34 275 34 288 c 0
 34 308 49 321 65 321 c 0
 82 321 89 304 101 292 c 0
 111 282 125 277 140 277 c 0
 182 277 212 307 212 368 c 0xec
 212 417 177 454 140 454 c 0
 122 454 105 447 100 446 c 1
 97.6973 448.303 95.726 453.257 94.8492 458 c 0
 94.203 461.496 94.1514 464.878 95 467 c 1
 144 477 188 507 188 556 c 0xf4
 188 582 163 607 137 607 c 0
 100 607 73 576 67 570 c 1
 62 572 57 585 58 586 c 1
 72 607 104 646 157 646 c 0
568.057 634.132 m 1
 223.046 2.06934 l 2
 219.673 -3.67969 207.599 -15.9424 191.25 -12.6621 c 0
 180.587 -10.5215 179.694 -3.91699 179.694 -3.91699 c 1
 529.32 636.398 l 1
 530.562 638.903 543.35 647.353 560.41 643.928 c 0
 566.097 642.787 567.876 636.922 568.057 634.132 c 1
EndSplineSet
Validated: 33
EndChar

StartChar: questiondown
Encoding: 191 191 124
Width: 349
Flags: W
HStem: -223 94<166.451 285.234> -223 73<157.434 266.661> 320 110<188.463 274.77>
VStem: 40 50<-116.531 -13.6233> 177 110<331.463 417.77> 225 29<177.761 259.712>
LayerCount: 2
Fore
SplineSet
287 374 m 0x38
 287 344 261 320 231 320 c 0
 201 320 177 344 177 374 c 0
 177 404 201 430 231 430 c 0
 261 430 287 404 287 374 c 0x38
254 249 m 1xb4
 259 228 262 185 262 158 c 0
 262 84 214 58 177 34 c 0
 128 3 90 -20 90 -68 c 0
 90 -120 126 -150 164 -150 c 0x78
 217 -150 224 -129 250 -129 c 0
 264 -129 294 -146 294 -179 c 0
 294 -194 290 -209 285 -216 c 1
 275 -221 258 -223 237 -223 c 0
 171 -223 40 -155 40 -38 c 0
 40 30 66 72 141 115 c 0
 168 131 213 166 219 177 c 0
 228 193 225 224 225 247 c 1
 229 255 232 259 241 260 c 1
 246 258 251 255 254 249 c 1xb4
EndSplineSet
Validated: 33
Substitution2: "'smcp' Lowercase to Small Capitals lookup 2-1" questiondown.sc
EndChar

StartChar: AE
Encoding: 198 198 131
Width: 891
Flags: W
HStem: -3 29<-18.4375 31.7074 124.31 184.446 352.373 409.516> 2 35<519.862 748.654> 256 40<265.249 427> 312 37<513.25 690.701> 408 20G<730.75 737.75> 621 43<579.213 750.051> 621 35<516.782 672.236> 629 29<352.222 394.507>
VStem: 427 86.25<47.2663 254 297 310.528 349.429 561.729> 719.25 32<230.002 289.298 372.014 427.976> 789.25 32<523.07 569.412>
LayerCount: 2
Fore
SplineSet
427 297 m 9x38e0
 427 562 l 17
 406 529 265.25 300 265.25 300 c 1
 265.25 300 264.25 296 266.25 296 c 0
 292.25 295 320.25 295 343.25 295 c 0
 374.25 295 408 296 427 297 c 9x38e0
470.25 656 m 0x3ae0
 563.25 656 683.25 664 792.25 664 c 1
 799.25 614 812.25 573 821.25 528 c 1
 818.25 525 810.25 523 803.25 523 c 0
 796.25 523 790.25 525 789.25 530 c 0
 767.25 610 726.25 621 673.25 621 c 2
 587.25 621 l 0
 575.25 621 521.25 620 518.25 610 c 0
 513.25 594 513.25 566 513.25 539 c 2
 513.25 355 l 2
 513.25 350 534.25 349 556.25 349 c 2
 609.25 349 l 2
 705.25 349 702.25 355 719.25 421 c 0
 720.25 426 727.25 428 734.25 428 c 0
 741.25 428 748.25 426 751.25 423 c 1
 751.25 234 l 1
 749.25 232 742.25 230 735.25 230 c 0
 728.25 230 721.25 233 719.25 238 c 0
 704.25 295 700.25 298 691.25 304 c 0
 680.25 311 623.25 312 585.25 312 c 0
 557.25 312 513.25 312 513.25 303 c 2
 513.25 116 l 2
 513.25 101 513.25 52 519.25 47 c 0
 532.25 37 548.25 37 590.25 37 c 2
 638.25 37 l 2
 676.25 37 735.25 46 764.25 61 c 0
 783.25 71 811.25 109 827.25 162 c 0
 828.25 166 834.25 168 841.25 168 c 0
 851.25 168 863.25 165 866.25 162 c 1
 847.25 108 819.25 40 812.25 -4 c 1
 703.25 -4 563.25 2 472.25 2 c 0x7ce0
 405.25 2 354.25 -3 354.25 -3 c 1
 350 2 352.25 26 354.25 26 c 1
 366.25 26 415.25 37 420.25 49 c 1
 426.25 72 427 118 427.25 135 c 10
 427.25 254 l 17
 409 255 363.25 256 338.25 256 c 0
 297.25 256 284.25 254 238.25 251 c 0
 236.25 251 233.25 248 233.25 248 c 1
 233.25 248 189.25 178 158.25 129 c 0
 138.25 98 118.25 65 118.25 52 c 0
 118.25 28 174.25 26 182.25 26 c 1
 185.25 23 186.25 3 184.25 -3 c 1xb8e0
 144.25 -1 131.25 2 87.25 2 c 0x78e0
 41.25 2 29.25 -1 -16.75 -3 c 1
 -19.75 0 -19.75 19 -16.75 26 c 1
 -4.75 26 26.25 36 40.25 45 c 0
 65.25 61 95.25 104 115.25 137 c 2
 392.25 584 l 2
 395.25 589 399.25 597 399.25 604 c 0
 399.25 622 366.25 629 354.25 629 c 1
 349 635 352.25 656 354.25 658 c 1xb9e0
 354.25 658 403.25 656 470.25 656 c 0x3ae0
EndSplineSet
Validated: 1
EndChar

StartChar: Eth
Encoding: 208 208 141
Width: 710
Flags: W
HStem: -3 35<41.6709 113.212 210.781 388.99> 311 37<47.3369 366.828> 624 34<207.917 374.063> 633 29<39.7886 110.636>
VStem: 116.385 88<46.3146 620.395> 557.385 99<197.68 448.61>
LayerCount: 2
Fore
SplineSet
365 311 m 5xcc
 336 311 63 311 49 311 c 5
 45 311 44 339 50 348 c 5
 79 348 351 348 365 348 c 5
 369 348 369 320 365 311 c 5xcc
EndSplineSet
Refer: 35 68 N 1 0 0 1 -0.000778198 0 2
Validated: 37
EndChar

StartChar: multiply
Encoding: 215 215 148
Width: 472
Flags: W
HStem: 409 20G<75.5 81.5 385.5 391.5>
LayerCount: 2
Fore
SplineSet
200 247 m 1
 198 249 56 391 56 391 c 1
 56 405 71 429 80 429 c 0
 83 429 84.9665 428.965 87 427 c 2
 87 427 234 285 236 283 c 9
 381 427 l 2
 382.003 427.997 384 429 387 429 c 0
 396 429 409 399 409 389 c 1
 409 389 272 253 269 250 c 1
 270 249 409 105 409 105 c 1
 409 90 398 65 387 65 c 0
 385 65 381.5 65.5 380 67 c 2
 380 67 234 213 233 214 c 1
 231 212 84 66 84 66 c 2
 82.4967 64.5067 80 64 78 64 c 0
 69 64 56 95 56 105 c 1
 56 105 196 243 200 247 c 1
EndSplineSet
Validated: 1
Substitution2: "'smcp' Lowercase to Small Capitals lookup 2-1" multiply.sc
EndChar

StartChar: Oslash
Encoding: 216 216 149
Width: 748
Flags: W
HStem: -10 37<305.874 466.033> 630 37<274.613 434.715> 647 20G<552.276 569.5>
VStem: 46 99<214.231 447.375> 597 99<209.819 443.304>
LayerCount: 2
Fore
SplineSet
565 667 m 17xb8
 574 665 598 651 594 645 c 9
 176 -13 l 17
 167 -10 143 4 147 10 c 9
 565 667 l 17xb8
EndSplineSet
Refer: 46 79 N 1 0 0 1 0 0 2
Validated: 37
EndChar

StartChar: Thorn
Encoding: 222 222 155
Width: 529
Flags: W
HStem: -3 29<39.7894 110.638 209.134 279.982> 124 36<238.642 338.778> 475 35<208.514 328.333> 633 29<39.7894 110.638 209.134 279.982>
VStem: 116.386 87<32.7426 470.37 501 626.257> 406.386 92<236.389 400.698>
LayerCount: 2
Fore
SplineSet
160.386 657 m 0
 199.386 657 236.386 660 277.386 662 c 1
 282.386 657 281.386 638 277.386 633 c 1
 265.386 633 211.386 628 208.386 617 c 0
 203.386 601 203.386 573 203.386 543 c 2
 203.386 501 l 17
 223.386 510 264.386 510 281.386 510 c 0
 393.386 510 498.386 430 498.386 328 c 0
 498.386 223 418.386 124 287.386 124 c 0
 264.386 124 250.386 129 242.386 134 c 0
 239.386 136 225.386 151 225.386 156 c 0
 225.386 160 228.386 163 230.386 164 c 1
 241.386 161 252.386 160 267.386 160 c 0
 347.386 160 406.386 215 406.386 304 c 0
 406.386 396 359.386 475 252.386 475 c 0
 240.386 475 212.386 469 208.386 460 c 0
 203.386 448 203.386 415 203.386 385 c 0
 203.386 116 l 2
 203.386 86 203.386 58 208.386 42 c 0
 211.386 31 265.386 26 277.386 26 c 1
 281.386 21 282.386 2 277.386 -3 c 1
 236.386 -1 199.386 2 160.386 2 c 0
 121.386 2 83.3857 -1 42.3857 -3 c 1
 37.3857 2 38.3857 21 42.3857 26 c 1
 54.3857 26 108.386 31 111.386 42 c 0
 116.386 58 116.386 86 116.386 116 c 2
 116.386 543 l 2
 116.386 573 116.386 601 111.386 617 c 0
 108.386 628 54.3857 633 42.3857 633 c 1
 38.3857 638 37.3857 657 42.3857 662 c 1
 83.3857 660 121.386 657 160.386 657 c 0
EndSplineSet
Validated: 1
EndChar

StartChar: germandbls
Encoding: 223 223 156
Width: 534
Flags: W
HStem: -10 31<25.3857 82.2274 182.81 242.386 343.643 416.513> 391 41<38.3486 93.3857> 660 33<218.057 323.103>
VStem: 93.3857 77.0003<32.7426 391 432 545.797> 244.386 58<314.848 376.33> 365.386 75<488.66 624.745> 440.386 68<55.8919 152.096>
LayerCount: 2
Fore
SplineSet
264.386 693 m 0xfc
 358.386 693 440.386 655 440.386 561 c 0xfc
 440.386 510.359 412.173 475.255 381.26 447 c 0
 343.805 412.765 302.386 388.584 302.386 359 c 0
 302.386 318 353.386 290 400.386 265 c 0
 447.386 240 508.386 206 508.386 137 c 0
 508.386 58 452.386 -10 376.386 -10 c 0
 315.386 -10 268.386 16 258.386 33 c 1
 258.386 37.4962 258.516 41.8438 258.809 46 c 0
 260.665 72.3483 269.065 91 292.386 91 c 0
 311.002 91 319.753 68.7238 333 49.3043 c 0
 343.236 34.2994 356.156 21 378.386 21 c 0
 414.386 21 440.386 52 440.386 102 c 0xfa
 440.386 147.283 400.195 169.6 356.213 193 c 0
 303.067 221.275 244.386 251.132 244.386 325 c 0
 244.386 367.45 284.205 392.131 318.158 430 c 0
 343.392 458.145 365.386 493.575 365.386 549 c 0
 365.386 614 331.386 660 267.386 660 c 0
 178.386 660 170.386 557 170.386 475 c 0
 170.386 343 170.386 116 170.386 116 c 2
 170.386 86 170.386 58 175.386 42 c 0
 178.386 31 230.386 26 242.386 26 c 1
 246.386 21 247.386 2 242.386 -3 c 1
 201.386 -1 170.386 2 131.386 2 c 0
 92.3857 2 66.3857 -1 25.3857 -3 c 1
 20.3857 2 21.3857 21 25.3857 26 c 1
 37.3857 26 85.3857 31 88.3857 42 c 0
 93.3857 58 93.3857 86 93.3857 116 c 2
 93.3857 391 l 1
 35.3857 391 l 2
 32.3857 391 30.3857 397 30.3857 400 c 0
 30.3857 404 55.3857 431 56.3857 432 c 1
 72.3857 432 82.3857 432 93.3857 432 c 1
 93.3857 433 93.3857 434 93.3857 438 c 0
 93.3857 560 184.386 693 264.386 693 c 0xfc
EndSplineSet
Validated: 1
Substitution2: "'smcp' Lowercase to Small Capitals lookup 2-1" germandbls.sc
EndChar

StartChar: ae
Encoding: 230 230 163
Width: 651
Flags: W
HStem: -8 64<411.721 541.098> -8 54<135.481 208.032> 248 37<336 521.487> 402 36<162.987 257.5 389.842 484.878>
VStem: 34 83<64.4927 167.195> 49 81<294.428 353.807> 262 69<142.672 220> 522 85<285.847 368.285>
LayerCount: 2
Fore
SplineSet
178 194 m 0x7b
 142 181 117 154 117 116 c 0
 117 79 146 46 184 46 c 0
 220 46 276 74 276 104 c 1
 267.902 121.667 260.889 162.637 257.751 193 c 0
 256.627 203.883 256 213.404 256 220 c 1
 230 211 195 200 178 194 c 0x7b
440 402 m 0
 356 402 334 285 336 285 c 1
 345 285 489 285 499 285 c 0
 511 285 521 290 522 308 c 0
 523 332 501 402 440 402 c 0
457 438 m 0
 577 438 607 342 607 302 c 0
 607 273 602 256 583 255 c 0
 552 253 343 248 331 248 c 1
 328 120 406 56 494 56 c 0
 549 56 591 94 604 109 c 1
 605 109 612 103 612 95 c 0
 612 90 609 82 606 77 c 0
 588 48 538 -8 460 -8 c 0xb7
 399 -8 329 20 295 77 c 1
 271 52 186 -8 151 -8 c 0
 85 -8 34 42 34 107 c 0x7b
 34 148 57 174 80 186 c 0
 128 210 217 243 246 256 c 0
 256 260 258 262 260 270 c 0
 262 279 262 290 262 302 c 0
 262 347 234 398 185 398 c 0
 150 398 137 374 130 335 c 0
 124 301 108 288 83 288 c 0
 62 288 49 310 49 330 c 0x77
 49 338 53 350 56 354 c 1
 80 377 163 436 236 436 c 0
 279 436 312 406 329 374 c 1
 353 400 400 438 457 438 c 0
EndSplineSet
Validated: 33
Substitution2: "'smcp' Lowercase to Small Capitals lookup 2-1" ae.sc
EndChar

StartChar: eth
Encoding: 240 240 173
Width: 517
Flags: W
HStem: -7 33<204.397 310.579> 406 33<179.49 297.167> 664 24<83.2432 103.22>
VStem: 37 86<116.483 316.648> 372 87<128.32 331.716>
LayerCount: 2
Fore
SplineSet
343 699 m 17
 351 694 368 674 361 668 c 9
 125 509 l 17
 118 514 101 535 108 541 c 9
 343 699 l 17
231 406 m 0
 151 406 123 319 123 227 c 0
 123 129 175 26 256 26 c 0
 335 26 372 104 372 202 c 0
 372 257 363 308 352 329 c 0
 324 382 285 406 231 406 c 0
244 439 m 0
 273 439 309 435 329 423 c 1
 306 482 264 588 78 664 c 1
 78 671 84 688 92 688 c 1
 179.377 668.072 273.282 607.935 344.229 526 c 0
 412.128 447.585 459 349.206 459 247 c 3
 459 85 358 -7 253 -7 c 0
 117 -7 37 91 37 211 c 0
 37 319 105 439 244 439 c 0
EndSplineSet
Validated: 37
Substitution2: "'smcp' Lowercase to Small Capitals lookup 2-1" eth.sc
EndChar

StartChar: divide
Encoding: 247 247 180
Width: 609
Flags: W
HStem: 5 100<256.438 339.562> 219 56<61.2197 532.076> 388 100<256.438 339.562>
VStem: 248 100<13.4375 96.5625 396.438 479.562>
LayerCount: 2
Fore
SplineSet
248 438 m 0
 248 466 270 488 298 488 c 0
 326 488 348 466 348 438 c 0
 348 410 326 388 298 388 c 0
 270 388 248 410 248 438 c 0
248 55 m 0
 248 83 270 105 298 105 c 0
 326 105 348 83 348 55 c 0
 348 27 326 5 298 5 c 0
 270 5 248 27 248 55 c 0
62 219 m 17
 62 219 56 219 56 229 c 0
 56 233 62 267 73 275 c 9
 250 275 350 275 527 275 c 16
 531 275 536 271 536 263 c 0
 536 247 528 227 520 219 c 1
 445 219 62 219 62 219 c 17
EndSplineSet
Validated: 1
Substitution2: "'smcp' Lowercase to Small Capitals lookup 2-1" divide.sc
EndChar

StartChar: oslash
Encoding: 248 248 181
Width: 581
Flags: W
HStem: -8 21G<125 141.706> -7 33<211.699 318.24> 406 33<187.214 293.584> 417 20G<359.264 375.5>
VStem: 39 86<120.834 313.837> 380 86<116.337 309.213>
LayerCount: 2
Back
Refer: 813 -1 N 1 0 0 1 22 0 3
Fore
SplineSet
129 -8 m 17x9c
 121 -4 99 7 102 13 c 9
 372 437 l 17
 379 434 402 423 399 417 c 9
 129 -8 l 17x9c
EndSplineSet
Refer: 78 111 N 1 0 0 1 1 0 2
Validated: 37
Substitution2: "'smcp' Lowercase to Small Capitals lookup 2-1" oslash.sc
EndChar

StartChar: thorn
Encoding: 254 254 187
Width: 489
Flags: W
HStem: -226 29<-2.59634 62.2898 150.71 215.596> -8 35<178.172 294.721> 379 59<202.78 298.97> 628 26<0.89859 58.8281> 674 20G<124 147.5>
VStem: 68 77<-190.581 2.99635 52.6571 362.458 379.003 621.593> 369 84<139.167 301.166>
LayerCount: 2
Fore
SplineSet
272 438 m 0
 396 438 453 318 453 232 c 0
 453 103 332 -8 219 -8 c 0
 193 -8 165 -2 149 3 c 1
 149 3 145 -2 145 -10 c 2
 145 -107 l 2
 145 -137 145 -165 150 -181 c 0
 153 -192 201 -197 213 -197 c 1
 217 -202 218 -221 213 -226 c 1
 172 -224 145 -221 106 -221 c 0
 67 -221 41 -224 -0 -226 c 1
 -5 -221 -4 -202 -0 -197 c 1
 12 -197 60 -192 63 -181 c 0
 68 -165 68 -137 68 -107 c 2
 68 558 l 2
 68 572 68 598 63 610 c 0
 57 624 30 628 2 628 c 1
 1 628 -1 653 3 654 c 1
 53 659 103 675 145 694 c 1
 150 694 156 685 156 678 c 1
 156 678 145 646 145 591 c 2
 145 591 145 392 145 384 c 0
 145 383 145 379 147 379 c 0
 148 379 149 380 150 381 c 0
 175 402 232 438 272 438 c 0
229 379 m 0
 188 379 145 354 145 340 c 2
 145 100 l 2
 145 48 203 27 238 27 c 0
 321 27 369 114 369 195 c 0
 369 314 305 379 229 379 c 0
EndSplineSet
Validated: 1
Substitution2: "'smcp' Lowercase to Small Capitals lookup 2-1" thorn.sc
EndChar

StartChar: Aogonek
Encoding: 260 260 193
Width: 619
Flags: W
HStem: -223 59<457.755 531.225> -3 29<-13.4375 40.4219 128.557 189.446 400.025 458.809 579.411 628.812> 252 42<201.25 377.249> 643 20G<318.75 324.75>
VStem: 399.25 54<-160.236 -83.4554>
LayerCount: 2
Fore
SplineSet
289.25 294 m 0
 320.25 294 343.25 295 374.25 297 c 0
 376.25 297 377.25 302 377.25 302 c 1
 291.25 535 l 1
 201.25 300 l 1
 201.25 300 201.25 296 203.25 296 c 0
 229.25 295 266.25 294 289.25 294 c 0
290.25 252 m 0
 249.25 252 230.25 252 185.25 249 c 0
 183.25 249 180.25 246 180.25 246 c 1
 180.25 246 150.455 172.931 134.25 125 c 0
 122.4 89.9494 120.25 67 120.25 54 c 0
 120.25 30 179.25 26 187.25 26 c 1
 190.25 23 191.25 3 189.25 -3 c 1
 149.25 -1 136.25 2 92.25 2 c 0
 46.25 2 34.25 -1 -11.75 -3 c 1
 -14.75 0 -14.75 19 -11.75 26 c 1
 0.25 26 35.25 32 45.25 45 c 0
 65.25 71 78.2346 103.006 92.25 139 c 2
 92.25 139 224.25 478 285.25 634 c 0
 291.25 650 314.25 663 323.25 663 c 0
 326.25 663 326.25 661 329.25 660 c 1
 329.25 660 549.25 80 558.25 60 c 0
 568.25 36 618.25 26 626.25 26 c 1
 631.25 19 629.25 0 628.25 -3 c 1
 601.019 -1.63846 580.277 0.186516 555.927 1.21294 c 1
 512.057 -25.0578 453.25 -77.4394 453.25 -121 c 0
 453.25 -136 460.25 -164 494.25 -164 c 0
 545.25 -164 569.25 -126 575.25 -126 c 0
 576.25 -126 580.25 -131 580.25 -139 c 0
 580.25 -144 578.25 -153 575.25 -157 c 0
 553.25 -186 515.25 -223 470.25 -223 c 0
 414.25 -223 399.25 -173 399.25 -146 c 0
 399.25 -91.013 457.223 -32.028 511.212 1.9759 c 1
 510.469 1.97077 509.732 1.96484 509 1.95812 c 0
 468.822 1.58942 445.066 -1.13851 402.25 -3 c 1
 397.25 2 398.25 21 403.25 26 c 1
 415.25 26 450.25 31 459.25 39 c 0
 462.25 42 463.25 47 463.25 53 c 0
 463.25 83 397.25 247 397.25 247 c 1
 397.25 247 394.25 251 391.25 251 c 0
 365.25 253 315.25 252 290.25 252 c 0
EndSplineSet
Validated: 33
EndChar

StartChar: aogonek
Encoding: 261 261 194
Width: 428
Flags: W
HStem: -223 59<265.505 338.975> -8 54<135.481 208.996> 398 38<155.777 266.5>
VStem: 34 83<64.4927 166.568> 49 81<294.824 353.758> 207 54<-160.236 -87.1945> 271 76<67.9015 223 245.918 361.958>
LayerCount: 2
Fore
SplineSet
184 46 m 0xf6
 219 46 271 77 271 87 c 2
 271 223 l 17
 244 215 196 201 178 194 c 0
 142 180 117 154 117 116 c 0
 117 79 146 46 184 46 c 0xf6
274 59 m 1
 262 47 186 -8 151 -8 c 0
 85 -8 34 42 34 107 c 0xf6
 34 148 62 179 84 187 c 0
 140 207 230 237 259 250 c 0
 269 254 271 257 271 275 c 2
 271 302 l 2
 271 347 234 398 185 398 c 0
 150 398 137 375 130 336 c 0
 124 302 108 288 83 288 c 0
 62 288 49 310 49 330 c 0xee
 49 334 52 349 56 354 c 1
 87 383 165 436 238 436 c 0
 295 436 347 376 347 299 c 2
 347 93 l 2
 347 66 355 46 378 46 c 0
 396 46 408 57 411 59 c 1
 414 59 415 54 415 51 c 0
 415 45 413 37 410 32 c 1
 400 25 386 15 374 7 c 0
 336 -20 261 -67 261 -121 c 0
 261 -136 268 -164 302 -164 c 0
 353 -164 377 -126 383 -126 c 0
 384 -126 388 -131 388 -139 c 0
 388 -144 386 -153 383 -157 c 0
 361 -186 323 -223 278 -223 c 0
 222 -223 207 -173 207 -146 c 0
 207 -102 262 -37 310 1 c 1
 293 11 276 35 274 59 c 1
EndSplineSet
Validated: 1
Substitution2: "'smcp' Lowercase to Small Capitals lookup 2-1" aogonek.sc
EndChar

StartChar: dcroat
Encoding: 273 273 206
Width: 512
Flags: W
HStem: -8 62<189.397 286.897> 20 27<435.72 493.784> 396 42<193.789 324.598> 525 35<213.529 489.01> 628 26<280.899 338.828> 674 20<404 427.5>
VStem: 36 84<130.201 291.813> 348 77<70.6579 374.572 428.007 621.593>
LayerCount: 2
Fore
SplineSet
219 560 m 1x3f
 248 560 470 560 484 560 c 0
 488 560 490 556 490 552 c 3
 490 547 488 533 484 525 c 1
 455 525 232 525 218 525 c 0
 214 525 213 533 213 537 c 3
 213 542 215 553 219 560 c 1x3f
EndSplineSet
Refer: 67 100 N 1 0 0 1 0 0 2
Validated: 5
Substitution2: "'smcp' Lowercase to Small Capitals lookup 2-1" dcroat.sc
EndChar

StartChar: Eogonek
Encoding: 280 280 213
Width: 585
Flags: W
HStem: -224 59<381.505 454.975> -3 29<39.7894 110.638> 0 37<209.998 425.867> 312 37<203.386 380.837> 408 20G<420.886 427.886> 621 36<206.736 434.839> 633 29<39.9344 110.638>
VStem: 116.386 87<47.2663 310.528 349.429 616.995> 323 54<-161.236 -85.6511> 409.386 32<230.002 289.298 372.014 427.976> 479.386 32<523.07 569.412>
LayerCount: 2
Fore
SplineSet
160.386 657 m 0x9de0
 254.386 657 373.386 664 482.386 664 c 1
 489.386 614 502.386 573 511.386 528 c 1
 508.386 525 500.386 523 493.386 523 c 0
 486.386 523 480.386 525 479.386 530 c 0
 457.386 610 416.386 621 363.386 621 c 2
 277.386 621 l 2
 265.386 621 211.386 620 208.386 610 c 0
 203.386 594 203.386 566 203.386 539 c 2
 203.386 355 l 2
 203.386 350 224.386 349 246.386 349 c 2
 299.386 349 l 2
 395.386 349 392.386 355 409.386 421 c 0
 410.386 426 417.386 428 424.386 428 c 0
 431.386 428 438.386 426 441.386 423 c 1
 441.386 234 l 1
 439.386 232 432.386 230 425.386 230 c 0
 418.386 230 411.386 233 409.386 238 c 0
 394.386 295 390.386 298 381.386 304 c 0
 370.386 311 313.386 312 275.386 312 c 0
 247.386 312 203.386 312 203.386 303 c 2
 203.386 116 l 2
 203.386 101 203.386 52 209.386 47 c 0
 222.386 37 238.386 37 280.386 37 c 2
 328.386 37 l 2
 375.386 37 426.303 44.1382 454.386 61 c 0
 486.292 80.157 501.386 119 517.386 162 c 0
 518.386 166 524.386 168 531.386 168 c 0
 541.386 168 553.386 165 556.386 162 c 1
 537.386 108 509.386 40 502.386 -4 c 1
 443.386 -4 377 -79 377 -122 c 0
 377 -137 384 -165 418 -165 c 0
 469 -165 493 -127 499 -127 c 0
 500 -127 503 -132 503 -140 c 0
 503 -145 502 -154 499 -158 c 0
 477 -187 439 -224 394 -224 c 0
 338 -224 323 -174 323 -147 c 0
 323 -95.7093 376.51 -38.5811 426.911 -3.44496 c 1
 345.168 -2.34635 263.249 -5.24521e-06 161.386 0 c 0xbde0
 114.386 0 81.3857 -3 42.3857 -3 c 1
 37.3857 2 38.3857 21 42.3857 26 c 1
 54.3857 26 108.386 31 111.386 42 c 0
 116.386 58 116.386 86 116.386 116 c 2
 116.386 543 l 2
 116.386 573 116.386 601 111.386 617 c 0
 108.386 628 54.3857 633 42.3857 633 c 1
 38.3857 638 37.3857 657 42.3857 662 c 1xdbe0
 83.3857 660 121.386 657 160.386 657 c 0x9de0
EndSplineSet
Validated: 1
EndChar

StartChar: eogonek
Encoding: 281 281 214
Width: 429
Flags: W
HStem: -224 59<241.505 314.975> -8 64<189.798 295.688> 248 37<113 298.487> 402 36<169.002 261.878>
VStem: 37 71<142.672 248> 183 54<-161.236 -81.0087> 299 85<285.847 368.285>
LayerCount: 2
Fore
SplineSet
334.998 25.4534 m 0
 285 -17 237 -64.1194 237 -122 c 0
 237 -137 244 -165 278 -165 c 0
 329 -165 353 -127 359 -127 c 0
 360 -127 363 -132 363 -140 c 0
 363 -145 362 -154 359 -158 c 0
 337 -187 299 -224 254 -224 c 0
 198 -224 183 -174 183 -147 c 0
 183 -107.405 221.214 -46.2534 260.785 -6.22186 c 1
 253.173 -7.37464 245.243 -8 237 -8 c 0
 119 -8 37 82 37 200 c 0
 37 334 146 438 234 438 c 0
 354 438 384 342 384 302 c 0
 384 273 379 256 360 255 c 0
 329 253 120 248 108 248 c 1
 105 120 183 56 271 56 c 0
 326 56 368 94 381 109 c 0
 382 109 389 103 389 95 c 0
 389 90 386 82 383 77 c 0
 374.309 62.9979 356.073 43.3487 334.998 25.4534 c 0
113 285 m 0
 122 285 266 285 276 285 c 0
 288 285 298 290 299 308 c 0
 300 332 278 402 217 402 c 0
 133 402 111 285 113 285 c 0
EndSplineSet
Validated: 33
Substitution2: "'smcp' Lowercase to Small Capitals lookup 2-1" eogonek.sc
EndChar

StartChar: Hbar
Encoding: 294 294 227
Width: 716
Flags: W
HStem: -3 29<39.0058 103.855 219.335 280.234 431.188 494.855 609.335 670.997> 299 50<204 508> 470 38<78.157 117 204 508 595 640.843> 633 29<39.0511 102.079 220.221 280.234 431.188 493.079 610.221 670.993>
VStem: 117 87<36.9151 298.069 348.627 470 508 621.28> 508 87<36.9151 296.999 349.001 470 508 621.28>
LayerCount: 2
Fore
SplineSet
163 656 m 0
 207 656 239 660 279 662 c 1
 281 656 282 633 277 633 c 0
 269 633 216 623 213 612 c 0
 206 585 204 550 204 508 c 1
 216 507 300 507 358 507 c 0
 403 507 468 507 508 508 c 1
 508 544 507 589 501 612 c 1
 496 624 446 633 434 633 c 0
 429 633 429 657 434 662 c 1
 480 660 509 656 555 656 c 0
 599 656 629 660 669 662 c 1
 670 659 671 652 671 647 c 0
 671 641 670 633 667 633 c 0
 659 633 606 623 603 612 c 0
 596 585 595 548 595 508 c 1
 606 508 636 508 636 508 c 4
 640 508 641 500 641 495 c 7
 641 489 641 479 635 470 c 5
 606 470 595 470 595 470 c 1
 595 139 l 2
 595 103 596 73 603 46 c 0
 606 35 659 26 667 26 c 0
 670 26 671 17 671 11 c 0
 671 6 670 0 669 -3 c 1
 629 -1 599 2 555 2 c 0
 509 2 480 -1 434 -3 c 1
 429 2 429 26 434 26 c 0
 446 26 496 34 501 46 c 1
 507 69 508 117 508 135 c 2
 508 293 l 2
 508 295 506 297 506 297 c 1
 459 298 409 299 358 299 c 0
 204 299 204 298 204 294 c 2
 204 139 l 2
 204 103 206 73 213 46 c 0
 216 35 269 26 277 26 c 0
 282 26 281 3 279 -3 c 1
 239 -1 207 2 163 2 c 0
 117 2 89 -1 43 -3 c 1
 41 -1 39 6 39 12 c 0
 39 18 41 26 43 26 c 0
 55 26 105 34 110 46 c 1
 116 69 117 117 117 135 c 2
 117 470 l 1
 117 470 97 470 83 470 c 4
 79 470 78 478 78 483 c 7
 78 489 78 499 84 508 c 5
 84 508 110 508 117 508 c 1
 117 552 116 589 110 612 c 1
 105 624 55 633 43 633 c 0
 41 633 39 640 39 646 c 0
 39 652 41 660 43 662 c 1
 89 660 117 656 163 656 c 0
358 471 m 0
 310 471 249 471 204 470 c 9
 204 352 l 2
 204 351 205 349 206 349 c 0
 255 348 302 347 358 347 c 0
 405 347 461 348 506 349 c 1
 506 349 508 351 508 353 c 2
 508 470 l 17
 467 471 400 471 358 471 c 0
EndSplineSet
Validated: 1
EndChar

StartChar: hbar
Encoding: 295 295 228
Width: 512
Flags: W
HStem: -3 29<15.7886 80.6747 169.095 233.981 285.789 350.675 439.095 503.981> 380 58<238.146 324.569> 525 35<23.5288 299.01> 628 26<19.2835 77.2131> 674 20<142.385 165.885>
VStem: 86.3849 77.0003<32.4189 347.537 363.001 621.593> 356.385 77<32.4189 346.845>
LayerCount: 2
Fore
SplineSet
29 560 m 1
 58 560 280 560 294 560 c 0
 298 560 300 556 300 552 c 3
 300 547 298 533 294 525 c 1
 265 525 42 525 28 525 c 0
 24 525 23 533 23 537 c 3
 23 542 25 553 29 560 c 1
EndSplineSet
Refer: 71 104 N 1 0 0 1 -0.000778198 0 2
Validated: 5
Substitution2: "'smcp' Lowercase to Small Capitals lookup 2-1" hbar.sc
EndChar

StartChar: Iogonek
Encoding: 302 302 235
Width: 327
Flags: W
HStem: -224 59<123.505 196.975> -3 29<39.0058 103.855 226.752 280.997> 633 29<39.0511 102.079 220.221 280.993>
VStem: 65 54<-161.236 -86.8884> 117 87<36.9151 621.28>
LayerCount: 2
Fore
SplineSet
163 657 m 0xe8
 207 657 239 660 279 662 c 1
 280 659 281 652 281 647 c 0
 281 641 280 633 277 633 c 0
 269 633 216 623 213 612 c 0
 206 585 204 555 204 519 c 2
 204 139 l 2xe8
 204 103 206 73 213 46 c 0
 216 35 269 26 277 26 c 0
 280 26 281 17 281 11 c 0
 281 6 280 0 279 -3 c 1
 261 -2 242 -1 226 0 c 1
 182 -26 119 -78 119 -122 c 0
 119 -137 126 -165 160 -165 c 0
 211 -165 235 -127 241 -127 c 0
 242 -127 245 -132 245 -140 c 0
 245 -145 244 -154 241 -158 c 0
 219 -187 181 -224 136 -224 c 0
 80 -224 65 -174 65 -147 c 0xf0
 65 -93 128 -33 181 2 c 1
 175 2 170 2 163 2 c 0
 117 2 89 -1 43 -3 c 1
 41 -1 39 6 39 12 c 0
 39 18 41 26 43 26 c 0
 55 26 105 34 110 46 c 1
 116 69 117 117 117 135 c 2
 117 523 l 2
 117 541 116 589 110 612 c 1
 105 624 55 633 43 633 c 0
 41 633 39 640 39 646 c 0
 39 652 41 660 43 662 c 1
 89 660 117 657 163 657 c 0xe8
EndSplineSet
Validated: 1
EndChar

StartChar: dotlessi
Encoding: 305 305 238
Width: 261
Flags: W
HStem: -3 29<26.4037 91.2898 179.71 244.596> 368 26<25.1812 86.4485> 416 20G<150 172.5>
VStem: 97 77<32.4189 361.708>
LayerCount: 2
Fore
SplineSet
174 325 m 0
 174 116 l 2
 174 86 174 58 179 42 c 0
 182 31 230 26 242 26 c 1
 246 21 247 2 242 -3 c 1
 201 -1 174 2 135 2 c 0
 96 2 70 -1 29 -3 c 1
 24 2 25 21 29 26 c 1
 41 26 89 31 92 42 c 0
 97 58 97 86 97 116 c 2
 97 298 l 2
 97 311 97 338 92 350 c 0
 85 367 34 368 27 368 c 1
 25 370 23 389 27 394 c 1
 78 401 130 415 170 436 c 1
 175 436 181 425 181 420 c 1
 180 413 174 368 174 358 c 2
 174 325 l 0
EndSplineSet
Validated: 1
Substitution2: "'smcp' Lowercase to Small Capitals lookup 2-1" dotlessi.sc
EndChar

StartChar: kgreenlandic
Encoding: 312 312 245
Width: 529
Flags: W
HStem: -3 29<30.7132 95.5994 184.02 248.906 453.808 524.815> 368 26<29.4908 90.7581> 396 29<302.498 351.869 429.593 492.374>
VStem: 101.31 77<32.4189 116 298 361.708>
LayerCount: 2
Fore
SplineSet
178.31 358 m 2
 178.31 368 184.31 413 185.31 420 c 1
 185.31 425 179.31 436 174.31 436 c 1
 134.31 415 82.3096 401 31.3096 394 c 1
 27.3096 389 29.3096 370 31.3096 368 c 1
 38.3096 368 89.3096 367 96.3096 350 c 0
 101.31 338 101.31 311 101.31 298 c 2
 101.31 116 l 2
 101.31 86 101.31 58 96.3096 42 c 0
 93.3096 31 45.3096 26 33.3096 26 c 1
 29.3096 21 28.3096 2 33.3096 -3 c 1
 74.3096 -1 100.31 2 139.31 2 c 0
 178.31 2 205.31 -1 246.31 -3 c 1
 251.31 2 250.31 21 246.31 26 c 1
 234.31 26 186.31 31 183.31 42 c 0
 178.31 58 178.31 86 178.31 116 c 2
 178.31 204 l 1
 178.31 204 189.31 200 193.31 195 c 0
 250.31 133 336.31 40 336.31 40 c 2
 351.31 24 400.31 -4 459.31 -4 c 0
 486.31 -4 517.31 -1 524.31 2 c 1
 527.31 7 525.31 23 523.31 26 c 1
 497.31 25 457.31 32 431.31 53 c 0
 407.31 73 326.31 168 251.31 249 c 1
 310.31 299 402.31 365 413.31 373 c 0
 434.31 388 476.31 396 490.31 396 c 1
 493.31 400 494.31 419 490.31 425 c 1
 468.31 422 436.31 420 402.31 420 c 0
 370.31 420 335.31 422 306.31 425 c 1
 301.31 423 299.31 403 304.31 396 c 1
 313.31 395 352.31 394 352.31 379 c 0
 352.31 369 312.31 340 260.31 296 c 0
 226.31 267 195.31 241 178.31 235 c 1
 178.31 358 l 2
EndSplineSet
Validated: 41
Substitution2: "'smcp' Lowercase to Small Capitals lookup 2-1" kgreenlandic.sc
EndChar

StartChar: Lslash
Encoding: 321 321 254
Width: 558
Flags: W
HStem: -3 29<38.4579 109.306> 0 37<208.666 443.089> 633 29<38.4579 109.306 207.803 278.651>
VStem: 115.055 87<47.2685 626.257>
LayerCount: 2
Fore
SplineSet
378.669 447 m 5x30
 383.669 442 400.669 419 396.669 416 c 13
 45.6689 178 l 5
 39.6689 184 24.6689 204 28.6689 207 c 13
 378.669 447 l 5x30
EndSplineSet
Refer: 43 76 N 1 0 0 1 -1.33142 0 2
Validated: 37
EndChar

StartChar: lslash
Encoding: 322 322 255
Width: 252
Flags: W
HStem: -3 29<16.7886 81.6748 170.095 234.982> 628 26<20.2835 78.2131> 674 20<143.385 166.885>
VStem: 87.3849 77.0003<32.4189 621.593>
LayerCount: 2
Fore
SplineSet
34 260 m 1
 28 266 15 284 19 288 c 9
 216 423 l 1
 221 418 236 400 232 396 c 9
 34 260 l 1
EndSplineSet
Refer: 75 108 N 1 0 0 1 0.999222 0 2
Validated: 5
Substitution2: "'smcp' Lowercase to Small Capitals lookup 2-1" lslash.sc
EndChar

StartChar: Eng
Encoding: 330 330 262
Width: 735
Flags: W
HStem: -227 60<388 489.01> -3 29<32.0029 100.782 198.656 266.234> 633 29<36.1875 108.794 474.074 547.881 634.826 708.993>
VStem: 125 56<41.3891 567.234> 563 55<172.79 620.656>
LayerCount: 2
Fore
SplineSet
618 85 m 2
 618 -78 550 -227 400 -227 c 0
 376 -227 348 -211 348 -211 c 1
 343 -205 336 -189 336 -174 c 0
 336 -143 366 -124 398 -124 c 0
 432 -124 446 -167 474 -167 c 0
 505 -167 553 -113 562 28 c 0
 181 568 l 1
 181 141 l 2
 181 105 181 75 188 48 c 0
 191 37 255 26 263 26 c 0
 268 26 267 3 265 -3 c 1
 225 -1 194 2 150 2 c 0
 104 2 81 -1 35 -3 c 1
 33 -1 32 6 32 12 c 0
 32 18 33 26 35 26 c 0
 47 26 110 37 115 50 c 0
 125 76 125 106 125 144 c 0
 125 275 125 406 125 537 c 0
 125 565 124 590 118 612 c 1
 113 624 51 633 39 633 c 0
 34 633 34 657 39 662 c 1
 78 661 95 660 141 660 c 0
 171 660 207 661 221 662 c 1
 266 579 449 327 560 172 c 1
 563 189 563 197 563 213 c 2
 563 524 l 2
 563 541 562 589 556 612 c 1
 551 624 489 635 477 635 c 0
 472 635 472 657 477 662 c 1
 523 660 549 656 595 656 c 0
 639 656 667 660 707 662 c 1
 708 659 709 652 709 647 c 0
 709 641 708 635 705 635 c 0
 697 635 629 623 626 612 c 0
 619 585 618 555 618 519 c 2
 618 85 l 2
EndSplineSet
Validated: 1
EndChar

StartChar: eng
Encoding: 331 331 263
Width: 518
Flags: W
HStem: -3 29<27.1875 85.2849 188.966 246.593> 371 67<237.8 331.51>
VStem: 98 77<36.4871 338.864> 368 77<-82.6719 331.999>
LayerCount: 2
Fore
SplineSet
445 251 m 2
 445 68 l 2
 445 32 441 -65 406 -120 c 0
 370 -177 309 -217 272 -231 c 1
 267 -228 262 -221 260 -216 c 0
 259 -214 258 -210 259 -209 c 0
 261 -203 368 -182 368 46 c 2
 368 227 l 2
 368 333 331 371 270 371 c 0
 225 371 178 323 175 316 c 1
 175 135 l 2
 175 102 176 73 183 46 c 0
 186 35 235 26 243 26 c 0
 248 26 248 3 246 -3 c 1
 206 -1 177 2 139 2 c 0
 98 2 71 -1 30 -3 c 1
 25 2 25 26 30 26 c 0
 42 26 88 35 91 46 c 0
 97 71 98 102 98 116 c 2
 98 305 l 2
 98 313 97 345 84 359 c 1
 62 386 26 376 26 382 c 0
 26 383 27 406 32 407 c 0
 77 414 133 422 170 433 c 0
 171 433 174 434 175 434 c 0
 181 434 181 418 180 413 c 0
 177 392 175 369 175 369 c 1
 175 367 180 367 180 367 c 1
 203 391 250 438 307 438 c 27
 398 438 445 365 445 251 c 2
EndSplineSet
Validated: 1
Substitution2: "'smcp' Lowercase to Small Capitals lookup 2-1" eng.sc
EndChar

StartChar: OE
Encoding: 338 338 270
Width: 1015
Flags: HW
HStem: -7 34<311.584 493.256> 0 37<639.612 870.128> 312 37<633 810.451> 408 20G<850.5 857.5> 621 36<636.35 864.453> 630 37<273.272 471.187>
VStem: 46 99<216.52 447.375> 546 87<71.3698 310.528 349.429 571.53> 839 32<230.002 289.298 372.014 427.976> 909 32<523.07 569.412>
LayerCount: 2
Fore
SplineSet
590 657 m 0
 684 657 803 664 912 664 c 1
 919 614 932 573 941 528 c 1
 938 525 930 523 923 523 c 0
 916 523 910 525 909 530 c 0
 887 610 846 621 793 621 c 2
 707 621 l 0
 695 621 641 620 638 610 c 0
 633 594 633 566 633 539 c 2
 633 355 l 2
 633 350 654 349 676 349 c 2
 729 349 l 2
 825 349 822 355 839 421 c 0
 840 426 847 428 854 428 c 0
 861 428 868 426 871 423 c 1
 871 234 l 1
 869 232 862 230 855 230 c 0
 848 230 841 233 839 238 c 0
 824 295 820 298 811 304 c 0
 800 311 743 312 705 312 c 0
 677 312 633 312 633 303 c 2
 633 116 l 2
 633 101 633 52 639 47 c 0
 652 37 668 37 710 37 c 2
 758 37 l 2
 796 37 855 46 884 61 c 0
 903 71 931 109 947 162 c 0
 948 166 954 168 961 168 c 0
 971 168 983 165 986 162 c 1
 967 108 939 40 932 -4 c 1
 823 -4 724 0 591 0 c 24x7bc0
 545 0 502 -1 473 -3 c 0
 458 -4 385 -7 360 -7 c 0
 184 -7 46 141 46 328 c 0
 46 515 196 667 365 667 c 0xb7c0
 390 667 525 656 590 657 c 0
352 630 m 0
 207 630 145 484 145 350 c 0
 145 195 231 27 386 27 c 0
 441 27 499 33 522 68 c 0
 546 104 546 138 546 192 c 2
 546 488 l 2
 546 523 542 558 511 586 c 0
 473 621 422 630 352 630 c 0
EndSplineSet
EndChar

StartChar: oe
Encoding: 339 339 271
Width: 777
Flags: HW
HStem: -8 64<536.292 666.098> -7 33<210.699 317.27> 248 37<461 646.487> 406 33<186.214 293.88 523.136 603.574>
VStem: 38 86<120.834 313.837> 379 77<142.863 244.017> 647 85<285.847 368.285>
LayerCount: 2
Fore
SplineSet
565 402 m 0
 481 402 459 285 461 285 c 0
 470 285 614 285 624 285 c 0
 636 285 646 290 647 308 c 0
 648 332 626 402 565 402 c 0
240 406 m 0x7e
 155 406 124 319 124 233 c 0
 124 136 173 26 263 26 c 0
 348 26 379 113 379 198 c 0
 379 295 329 406 240 406 c 0x7e
619 56 m 0xbe
 674 56 716 94 729 109 c 0
 730 109 737 103 737 95 c 0
 737 90 734 82 731 77 c 0
 713 48 663 -8 585 -8 c 0xbe
 513 -8 455 25 420 78 c 1
 382 26 322 -7 253 -7 c 0x7e
 121 -7 38 88 38 213 c 0
 38 342 130 439 251 439 c 0
 333 439 396 403 432 346 c 1
 472 403 530 438 582 438 c 0
 702 438 732 342 732 302 c 0
 732 273 727 256 708 255 c 0
 680 254 496 249 456 248 c 1
 456 101 547 56 619 56 c 0xbe
EndSplineSet
Substitution2: "'smcp' Lowercase to Small Capitals lookup 2-1" oe.sc
EndChar

StartChar: Tbar
Encoding: 358 358 290
Width: 621
Flags: W
HStem: -3 29<190.404 261.252 359.748 430.596> 311 37<170.337 489.828> 624 37<91.4258 267 354 527.638>
VStem: 9 34<499.671 557.649> 267 87<32.7426 624> 576 34<499.671 557.649>
LayerCount: 2
Fore
SplineSet
488 311 m 1
 459 311 186 311 172 311 c 1
 168 311 167 339 173 348 c 1
 202 348 474 348 488 348 c 1
 492 348 492 320 488 311 c 1
EndSplineSet
Refer: 51 84 N 1 0 0 1 0 0 2
Validated: 37
EndChar

StartChar: tbar
Encoding: 359 359 291
Width: 318
Flags: W
HStem: -7 48<180.894 274.512> 268 40<19.1905 298.084> 374 48<158 298.919>
VStem: 81 77<63.875 374>
LayerCount: 2
Fore
SplineSet
128 526 m 1
 140 526 158 525 158 521 c 2
 158 422 l 1
 202 422 279 421 293 421 c 0
 298 421 301 418 301 412 c 0
 301 403 298 388 291 374 c 1
 158 374 l 1
 158 129 l 2
 158 76 188 41 232 41 c 0
 256 41 289 57 294 60 c 0
 299 63 309 41 308 40 c 0
 293 24 247 -7 198 -7 c 0
 136 -7 81 34 81 120 c 2
 81 374 l 1
 23 374 l 2
 20 374 18 387 18 395 c 0
 18 399 18 401 19 402 c 1
 35 409 60 429 82 455 c 0
 106 484 125 522 128 526 c 1
25 308 m 1
 54 308 279 308 293 308 c 0
 297 308 299 303 299 298 c 3
 299 292 297 277 293 268 c 1
 264 268 38 268 24 268 c 0
 20 268 19 276 19 281 c 3
 19 287 19 299 25 308 c 1
EndSplineSet
Validated: 5
Substitution2: "'smcp' Lowercase to Small Capitals lookup 2-1" tbar.sc
EndChar

StartChar: Uogonek
Encoding: 370 370 302
Width: 704
VWidth: 0
Flags: W
HStem: -224 59<356.505 429.133> 0 49<285.945 431.004> 633 29<23.0511 86.0787 204.221 264.997 454.074 527.881 614.826 688.993>
VStem: 101 87<165.404 621.28> 298 54<-161.236 -80.4004> 543 55<140.793 620.656>
LayerCount: 2
Fore
SplineSet
147 657 m 0
 191 657 223 660 263 662 c 1
 264 659 265 654 265 648 c 0
 265 641 264 633 261 633 c 0
 253 633 200 623 197 612 c 0
 190 585 188 555 188 519 c 2
 188 296 l 2
 188 148 252 49 372 49 c 0
 469 49 543 102 543 274 c 2
 543 524 l 2
 543 541 542 589 536 612 c 1
 531 624 469 635 457 635 c 0
 452 635 452 657 457 662 c 1
 503 660 529 656 575 656 c 0
 619 656 647 660 687 662 c 1
 688 659 689 652 689 647 c 0
 689 641 688 635 685 635 c 0
 677 635 609 623 606 612 c 0
 599 585 598 555 598 519 c 2
 598 276 l 2
 598 136 562 77 488 28 c 0
 428 -12 352 -64 352 -122 c 0
 352 -137 359 -165 393 -165 c 0
 444 -165 468 -127 474 -127 c 0
 475 -127 479 -132 479 -140 c 0
 479 -145 477 -153 474 -157 c 0
 452 -186 414 -224 369 -224 c 0
 313 -224 298 -174 298 -147 c 0
 298 -90 357 -22 401 3 c 1
 384 1 366 0 348 0 c 0
 197 0 101 79 101 296 c 2
 101 523 l 2
 101 541 100 589 94 612 c 1
 89 624 39 633 27 633 c 0
 25 633 23 640 23 646 c 0
 23 652 25 660 27 662 c 1
 73 660 101 657 147 657 c 0
EndSplineSet
Validated: 1
EndChar

StartChar: uogonek
Encoding: 371 371 303
Width: 502
Flags: W
HStem: -227 59<340.505 413.975> -7 61<191.445 275.477> 20 27<429.536 482.58> 414 20G<156.5 160 414.5 418>
VStem: 80 76<93.494 366.601> 282 54<-164.236 -87.7532> 338 76<82.3558 366.601>
LayerCount: 2
Fore
SplineSet
414 341 m 2xde
 414 141 l 2
 414 130 415 93 421 65 c 0
 426 46 477 48 480 47 c 0
 482 46 483 39 483 36 c 0
 483 34 480 20 475 20 c 0xbe
 468 20 462 19 455 18 c 0
 416 12 336 -73 336 -125 c 0
 336 -140 343 -168 377 -168 c 0
 428 -168 452 -130 458 -130 c 0
 459 -130 463 -135 463 -143 c 0
 463 -148 461 -157 458 -161 c 0
 436 -190 398 -227 353 -227 c 0
 297 -227 282 -177 282 -150 c 0
 282 -107 338 -28 382 2 c 1
 365 -3 346 -8 346 -8 c 0
 341 -8 338 1 338 8 c 2
 338 59 l 2
 338 64 336 64 336 64 c 1
 308 34 256 -7 205 -7 c 0
 99 -7 80 109 80 179 c 2
 80 305 l 2
 80 313 79 345 66 359 c 1
 44 386 8 376 8 382 c 0
 8 383 9 406 14 407 c 0
 59 414 115 422 152 433 c 0
 153 433 156 434 157 434 c 0
 163 434 163 418 162 413 c 0
 158 381 156 373 156 339 c 2
 156 204 l 2
 156 103 184 54 254 54 c 0
 298 54 338 98 338 118 c 2
 338 305 l 2
 338 313 337 345 324 359 c 1
 302 386 266 376 266 382 c 0
 266 383 267 406 272 407 c 0
 317 414 373 422 410 433 c 0
 411 433 414 434 415 434 c 0
 421 434 421 418 420 413 c 0
 416 381 414 375 414 341 c 2xde
EndSplineSet
Validated: 1
Substitution2: "'smcp' Lowercase to Small Capitals lookup 2-1" uogonek.sc
EndChar

StartChar: uni0218
Encoding: 536 536 316
Width: 503
Flags: W
HStem: -227 181<215 283> -10 41<167.824 322.72> 625 41<181.362 317.749>
VStem: 44 41<119.3 183.72> 64 80<454.853 571.509> 241 64<-171.345 -91> 371 87<89.7983 213.651>
LayerCount: 2
Fore
SplineSet
204 -101 m 0xe6
 204 -76 223 -46 283 -46 c 1
 295 -56 305 -83 305 -99 c 0
 305 -168 253 -208 223 -225 c 0
 222 -226 219 -227 215 -227 c 0
 202 -227 195 -223 195 -220 c 0
 195 -215 241 -185 241 -161 c 0
 241 -134 204 -131 204 -101 c 0xe6
64 490 m 0xee
 64 596 160 666 260 666 c 0
 322 666 345 653 411 638 c 1
 423 585 423 522 423 495 c 0
 423 488 416 488 413 488 c 0
 409 488 389 488 387 498 c 0
 381 548 332 625 253 625 c 0
 165 625 144 569 144 521 c 0xee
 144 441 218 408 284 366 c 0
 350 324 458 272 458 173 c 0
 458 63 356 -10 249 -10 c 0
 181 -10 118 9 69 19 c 1
 57 78 44 166 44 178 c 0
 44 183 53 184 60 184 c 0
 71 184 82 179 85 175 c 1xf6
 92 145 119 31 251 31 c 0
 313 31 371 68 371 146 c 0
 371 229 307 250 238 290 c 0
 161 335 64 389 64 490 c 0xee
EndSplineSet
Validated: 1
EndChar

StartChar: uni0219
Encoding: 537 537 317
Width: 369
Flags: W
HStem: -227 181<141 209> -11 36<121.44 227.209> 402 35<140.116 239.962>
VStem: 41 28<81.3744 117.998> 46 77<294.31 381.036> 167 64<-171.345 -91> 248 81<55.7917 143.901> 277 28<317.037 357.157>
LayerCount: 2
Fore
SplineSet
130 -101 m 0xe4
 130 -76 149 -46 209 -46 c 1
 221 -56 231 -83 231 -99 c 0
 231 -168 179 -208 149 -225 c 0
 148 -226 145 -227 141 -227 c 0
 128 -227 121 -223 121 -220 c 0
 121 -215 167 -185 167 -161 c 0
 167 -134 130 -131 130 -101 c 0xe4
191 437 m 0
 230 437 249 429 293 424 c 1
 300 393 304 358 305 322 c 0
 305 318 297 317 292 317 c 0
 287 317 278 319 277 324 c 0
 271 358 238 402 195 402 c 0
 147 402 123 379 123 343 c 0xed
 123 291 174 276 219 249 c 0
 264 222 329 190 329 127 c 0
 329 46 256 -11 175 -11 c 0
 129 -11 102 0 58 8 c 1
 50 29 41 86 41 112 c 1
 45 115 48 118 53 118 c 0
 60 118 68 119 69 112 c 0xf6
 76 76 122 25 175 25 c 0
 216 25 248 47 248 93 c 0
 248 154 177 175 119 209 c 0
 79 232 46 262 46 315 c 0xee
 46 389 117 437 191 437 c 0
EndSplineSet
Validated: 1
Substitution2: "'smcp' Lowercase to Small Capitals lookup 2-1" uni0219.sc
EndChar

StartChar: uni021A
Encoding: 538 538 318
Width: 622
Flags: W
HStem: -227 181<301.63 369.63> -3 29<191.404 262.252 360.748 431.596> 624 37<92.4258 268 355 528.638>
VStem: 10 34<499.671 557.649> 268 87<32.7426 624> 327.63 64<-171.345 -91> 577 34<499.671 557.649>
LayerCount: 2
Fore
SplineSet
290.63 -101 m 0xf6
 290.63 -76 309.63 -46 369.63 -46 c 1
 381.63 -56 391.63 -83 391.63 -99 c 0
 391.63 -168 339.63 -208 309.63 -225 c 0
 308.63 -226 305.63 -227 301.63 -227 c 0
 288.63 -227 281.63 -223 281.63 -220 c 0
 281.63 -215 327.63 -185 327.63 -161 c 0
 327.63 -134 290.63 -131 290.63 -101 c 0xf6
EndSplineSet
Refer: 51 84 N 1 0 0 1 1 0 2
Validated: 1
EndChar

StartChar: uni021B
Encoding: 539 539 319
Width: 308
Flags: W
HStem: -227 181<130 198> -7 54<174.456 250.292> 391 41<25.9629 81 158 290.375>
VStem: 81 77<62.1149 391 432 519.684> 156 64<-171.345 -91>
LayerCount: 2
Fore
SplineSet
119 -101 m 0xe8
 119 -76 138 -46 198 -46 c 1
 210 -56 220 -83 220 -99 c 0
 220 -168 168 -208 138 -225 c 0
 137 -226 134 -227 130 -227 c 0
 117 -227 110 -223 110 -220 c 0
 110 -215 156 -185 156 -161 c 0
 156 -134 119 -131 119 -101 c 0xe8
EndSplineSet
Refer: 83 116 N 1 0 0 1 1 0 2
Validated: 1
Substitution2: "'smcp' Lowercase to Small Capitals lookup 2-1" uni021B.sc
EndChar

StartChar: uni0237
Encoding: 567 567 320
Width: 234
Flags: W
HStem: 414 20G<164.914 168.414>
VStem: 88.4141 77<-83.5328 366.601>
LayerCount: 2
Fore
SplineSet
88.4141 305 m 2
 88.4141 313 87.4141 345 74.4141 359 c 1
 52.4141 386 16.4141 376 16.4141 382 c 0
 16.4141 383 17.4141 406 22.4141 407 c 0
 67.4141 414 123.414 422 160.414 433 c 0
 161.414 433 164.414 434 165.414 434 c 0
 171.414 434 171.414 418 170.414 413 c 0
 166.414 381 165.414 375 165.414 341 c 2
 165.414 68 l 2
 165.414 32 161.414 -65 126.414 -120 c 0
 90.4141 -177 29.4141 -217 -7.58594 -231 c 1
 -12.5859 -228 -17.5859 -221 -19.5859 -216 c 0
 -20.5859 -214 -21.5859 -210 -20.5859 -209 c 0
 -18.5859 -203 88.4141 -183 88.4141 45 c 2
 88.4141 305 l 2
EndSplineSet
Validated: 1
EndChar

StartChar: uni02BB
Encoding: 699 699 321
Width: 495
Flags: W
HStem: 476 181<529 597>
VStem: 507 64<521 600.267>
LayerCount: 2
Fore
SplineSet
608 531 m 0
 608 506 589 476 529 476 c 1
 517 486 507 513 507 529 c 0
 507 598 564 642 589 655 c 0
 590 656 593 657 597 657 c 0
 610 657 617 653 617 650 c 0
 617 645 571 615 571 591 c 0
 571 564 608 561 608 531 c 0
EndSplineSet
Validated: 1
EndChar

StartChar: afii57929
Encoding: 700 700 322
Width: 143
Flags: W
HStem: 461 213
VStem: 54 58<529.479 628.5>
LayerCount: 2
Fore
SplineSet
76 674 m 4
 83 674 92 671 98 668 c 5
 104 658 112 645 112 612 c 4
 112 562 82 505 42 461 c 5
 36 461 23 467 23 472 c 5
 41 495 54 523 54 553 c 4
 54 600 26 598 26 632 c 4
 26 650 45 674 76 674 c 4
EndSplineSet
Validated: 1
EndChar

StartChar: uni02C0
Encoding: 704 704 323
Width: 490
Flags: W
HStem: 579 37<504.073 565.479>
VStem: 508 42<451.404 496.421> 569 52<518.671 576.434>
LayerCount: 2
Fore
SplineSet
535 579 m 4
 508 579 496 541 479 541 c 4
 464 541 461 556 461 562 c 5
 472 578 511 616 557 616 c 4
 592 616 621 597 621 560 c 4
 621 530 588 510 569 495 c 4
 559 487 550 482 550 472 c 4
 550 466 553 461 555 458 c 5
 555 455 546 450 539 450 c 4
 523 450 508 460 508 477 c 4
 508 488 533 503 550 517 c 4
 562 527 569 537 569 549 c 4
 569 565 553 579 535 579 c 4
EndSplineSet
Validated: 1
EndChar

StartChar: circumflex
Encoding: 710 710 324
Width: 484
Flags: W
HStem: 517 154
VStem: 548 210
LayerCount: 2
Fore
SplineSet
653 671 m 0
 657 671 661 667 664 662 c 0
 698 607 719 581 758 530 c 1
 758 523 752 517 747 517 c 1
 708 551 653 600 653 600 c 25
 653 600 598 551 559 517 c 1
 554 517 548 523 548 530 c 1
 587 581 608 607 642 662 c 0
 645 667 649 671 653 671 c 0
EndSplineSet
Validated: 1
EndChar

StartChar: caron
Encoding: 711 711 325
Width: 484
Flags: W
HStem: 492 154
VStem: 548 210
LayerCount: 2
Fore
SplineSet
653 492 m 0
 649 492 645 496 642 501 c 0
 608 556 587 582 548 633 c 1
 548 640 554 646 559 646 c 1
 598 612 653 563 653 563 c 25
 653 563 708 612 747 646 c 1
 752 646 758 640 758 633 c 1
 719 582 698 556 664 501 c 0
 661 496 657 492 653 492 c 0
EndSplineSet
Validated: 1
EndChar

StartChar: breve
Encoding: 728 728 326
Width: 484
Flags: W
HStem: 520.86 47.1396<540.905 662.832>
VStem: 694.266 19.6592<616.158 634.257>
LayerCount: 2
Fore
SplineSet
694.266 639.97 m 1
 700.731 639.97 713.925 630.571 713.925 624.786 c 3
 713.925 623.133 713.395 620.853 713 619 c 0
 700 558 654 520.86 601.732 520.86 c 0
 549 520.86 504 558 491 619 c 0
 490.605 620.853 490.075 623.133 490.075 624.786 c 3
 490.075 630.571 503.269 639.97 509.734 639.97 c 1
 516 612 544 568 602 568 c 0
 660 568 688 612 694.266 639.97 c 1
EndSplineSet
Validated: 1
EndChar

StartChar: dotaccent
Encoding: 729 729 327
Width: 495
Flags: W
HStem: 495 100<557.438 640.562>
VStem: 549 100<503.438 586.562>
LayerCount: 2
Fore
SplineSet
549 545 m 0
 549 573 571 595 599 595 c 0
 627 595 649 573 649 545 c 0
 649 517 627 495 599 495 c 0
 571 495 549 517 549 545 c 0
EndSplineSet
Validated: 1
EndChar

StartChar: ring
Encoding: 730 730 328
Width: 488
Flags: W
HStem: 502 34<564.68 640.973> 647 34<563.263 641.425>
VStem: 515 33<552.832 630.822> 657 33<552.832 630.822>
LayerCount: 2
Fore
SplineSet
548 592 m 0
 548 561 573 536 603 536 c 0
 633 536 657 561 657 592 c 0
 657 623 633 647 603 647 c 0
 573 647 548 623 548 592 c 0
515 592 m 0
 515 641 555 681 603 681 c 0
 651 681 690 641 690 592 c 0
 690 543 651 502 603 502 c 0
 555 502 515 543 515 592 c 0
EndSplineSet
Validated: 1
EndChar

StartChar: ogonek
Encoding: 731 731 329
Width: 487
Flags: W
HStem: -218 59<547.505 620.133>
VStem: 489 54<-155.236 -80.9335>
LayerCount: 2
Fore
SplineSet
643 42 m 0
 660 42 684 37 672 25 c 0
 649 3 543 -52 543 -116 c 0
 543 -131 550 -159 584 -159 c 0
 635 -159 659 -121 665 -121 c 0
 666 -121 670 -126 670 -134 c 0
 670 -139 668 -147 665 -151 c 0
 643 -180 605 -218 560 -218 c 0
 504 -218 489 -168 489 -141 c 0
 489 -75 614 42 643 42 c 0
EndSplineSet
Validated: 33
EndChar

StartChar: hungarumlaut
Encoding: 733 733 331
Width: 475
Flags: W
HStem: 527 160<653 670>
VStem: 521 295
LayerCount: 2
Fore
SplineSet
775 687 m 0
 810 687 816 668 816 663 c 0
 816 624 670 527 660 527 c 0
 653 527 648 534 648 540 c 0
 648 546 705 637 741 678 c 0
 746 683 761 687 775 687 c 0
648 687 m 0
 683 687 689 668 689 663 c 0
 689 624 543 527 533 527 c 0
 526 527 521 534 521 540 c 0
 521 546 578 637 614 678 c 0
 619 683 634 687 648 687 c 0
EndSplineSet
Validated: 1
EndChar

StartChar: gravecomb
Encoding: 768 768 332
Width: 254
Flags: W
HStem: 524 160
VStem: 48 168
LayerCount: 2
Fore
SplineSet
48 660 m 0
 48 665 54 684 89 684 c 0
 103 684 118 680 123 675 c 0
 160 632 216 542 216 537 c 0
 216 531 211 524 204 524 c 0
 194 524 48 621 48 660 c 0
EndSplineSet
Validated: 1
EndChar

StartChar: acutecomb
Encoding: 769 769 333
Width: 239
Flags: W
HStem: 524 160
VStem: 47 168
LayerCount: 2
Fore
SplineSet
174 684 m 0
 209 684 215 665 215 660 c 0
 215 621 69 524 59 524 c 0
 52 524 47 531 47 537 c 0
 47 543 104 634 140 675 c 0
 145 680 160 684 174 684 c 0
EndSplineSet
Validated: 1
EndChar

StartChar: uni0302
Encoding: 770 770 334
Width: 446
Flags: W
HStem: 492 149
VStem: 82 199
LayerCount: 2
Fore
SplineSet
274 492 m 0
 263 492 208 534 181 558 c 1
 154 532 102 492 91 492 c 0
 85 492 82 510 82 515 c 1
 89 525 112 548 136 578 c 0
 149 594 162 612 173 631 c 0
 177 638 177 641 181 641 c 0
 185 641 188 637 191 631 c 0
 202 613 214 593 227 576 c 0
 253 543 280 518 281 515 c 1
 281 506 279 492 274 492 c 0
EndSplineSet
Validated: 1
EndChar

StartChar: tildecomb
Encoding: 771 771 335
Width: 693
Flags: W
HStem: 504 45<183.642 274.434> 551 45<69.7853 160.438>
VStem: 46 255
LayerCount: 2
Fore
SplineSet
120 596 m 0
 145 596 163 584 181 573 c 0
 200 561 225 549 239 549 c 0
 275 549 288 584 295 588 c 1
 301 588 301 583 301 579 c 0
 301 566 293 550 287 541 c 0
 270 518 249 504 225 504 c 0
 200 504 183 515 165 526 c 0
 146 538 124 551 106 551 c 0
 70 551 61 516 54 512 c 1
 48 512 46 519 46 523 c 0
 46 536 52 551 58 560 c 0
 75 583 96 596 120 596 c 0
EndSplineSet
Validated: 1
EndChar

StartChar: uni0304
Encoding: 772 772 336
Width: 399
Flags: W
HStem: 550 46<83.2097 300.904>
VStem: 82 225<550.013 596>
LayerCount: 2
Fore
SplineSet
82 559 m 0
 82 561 83 596 94 596 c 2
 302 596 l 2
 304 596 307 595 307 589 c 0
 307 584 306 575 301 557 c 0
 299 551 294 550 294 550 c 1
 88 550 l 1
 88 550 82 549 82 559 c 0
EndSplineSet
Validated: 1
EndChar

StartChar: uni0305
Encoding: 773 773 337
Width: 560
Flags: W
HStem: 739 63<-11.4404 578.903>
LayerCount: 2
Fore
SplineSet
-15 749 m 0
 -15 751 -12 802 -1 802 c 2
 581 802 l 2
 583 802 587 801 587 793 c 0
 587 775 580 750 579 746 c 0
 577 740 571 739 571 739 c 1
 -9 739 l 1
 -9 739 -15 739 -15 749 c 0
EndSplineSet
Validated: 1
EndChar

StartChar: uni0306
Encoding: 774 774 338
Width: 255
Flags: W
HStem: 520 46<67.068 182.932> 621 20G<31 35 215 219>
VStem: 16 22<621.095 638.805> 212 22<620.096 638.805>
LayerCount: 2
Fore
SplineSet
125 566 m 0
 167 566 202 595 212 638 c 0
 212 640 214 641 216 641 c 0
 222 641 234 633 234 628 c 0
 234 627 233 622 233 620 c 0
 224 567 179 520 125 520 c 0
 71 520 26 564 17 621 c 0
 17 623 16 627 16 628 c 0
 16 633 28 641 34 641 c 0
 36 641 38 640 38 638 c 0
 48 595 83 566 125 566 c 0
EndSplineSet
Validated: 1
EndChar

StartChar: uni0307
Encoding: 775 775 339
Width: 277
Flags: W
HStem: 495 100<83.4375 166.562>
VStem: 75 100<503.438 586.562>
LayerCount: 2
Fore
SplineSet
75 545 m 0
 75 573 97 595 125 595 c 0
 153 595 175 573 175 545 c 0
 175 517 153 495 125 495 c 0
 97 495 75 517 75 545 c 0
EndSplineSet
Validated: 1
EndChar

StartChar: uni0308
Encoding: 776 776 340
Width: 337
Flags: W
HStem: 471 92<38.6421 117.358 221.642 300.358>
VStem: 31 94<478.646 555.037> 214 94<478.646 555.037>
LayerCount: 2
Fore
SplineSet
262 563 m 0
 287 563 308 541 308 516 c 0
 308 491 286 471 261 471 c 0
 236 471 214 492 214 517 c 0
 214 542 237 563 262 563 c 0
79 563 m 0
 104 563 125 541 125 516 c 0
 125 491 103 471 78 471 c 0
 53 471 31 492 31 517 c 0
 31 542 54 563 79 563 c 0
EndSplineSet
Validated: 1
EndChar

StartChar: hookabovecomb
Encoding: 777 777 341
Width: 182
Flags: W
HStem: 626 29<69.258 120.225>
VStem: 19 46<570.661 622.444> 49 42<490.096 536.298> 125 41<563.096 624.757>
LayerCount: 2
Fore
SplineSet
112 655 m 0xd0
 147 655 166 634 166 604 c 0
 166 571 138 548 115 538 c 0
 97 530 91 525 91 513 c 0
 91 505 96 497 99 494 c 1
 99 489 88 480 83 480 c 1
 77 482 49 493 49 513 c 0xb0
 49 538 79 550 94 557 c 0
 114 566 125 577 125 594 c 0
 125 610 115 626 97 626 c 0
 77 626 65 617 65 590 c 0
 65 575 47 570 35 570 c 0
 28 570 19 574 19 579 c 0
 19 613 69 655 112 655 c 0xd0
EndSplineSet
Validated: 1
EndChar

StartChar: uni030A
Encoding: 778 778 342
Width: 250
Flags: W
HStem: 502 34<90.6802 166.973> 647 34<89.263 167.425>
VStem: 41 33<552.832 630.822> 183 33<552.832 630.822>
LayerCount: 2
Fore
SplineSet
74 592 m 0
 74 561 99 536 129 536 c 0
 159 536 183 561 183 592 c 0
 183 623 159 647 129 647 c 0
 99 647 74 623 74 592 c 0
41 592 m 0
 41 641 81 681 129 681 c 0
 177 681 216 641 216 592 c 0
 216 543 177 502 129 502 c 0
 81 502 41 543 41 592 c 0
EndSplineSet
Validated: 1
EndChar

StartChar: uni030B
Encoding: 779 779 343
Width: 369
Flags: W
HStem: 527 160<179 196>
VStem: 47 295
LayerCount: 2
Fore
SplineSet
301 687 m 0
 336 687 342 668 342 663 c 0
 342 624 196 527 186 527 c 0
 179 527 174 534 174 540 c 0
 174 546 231 637 267 678 c 0
 272 683 287 687 301 687 c 0
174 687 m 0
 209 687 215 668 215 663 c 0
 215 624 69 527 59 527 c 0
 52 527 47 534 47 540 c 0
 47 546 104 637 140 678 c 0
 145 683 160 687 174 687 c 0
EndSplineSet
Validated: 1
EndChar

StartChar: uni030C
Encoding: 780 780 344
Width: 446
Flags: W
HStem: 493 148
VStem: 82 200
LayerCount: 2
Fore
SplineSet
181 575 m 1
 208 599 263 641 274 641 c 0
 279 641 282 627 282 618 c 1
 281 615 253 590 227 557 c 0
 214 540 202 520 191 502 c 0
 188 496 186 493 182 493 c 0
 179 493 177 495 173 502 c 0
 162 521 149 538 136 554 c 0
 112 584 89 608 82 618 c 1
 82 623 85 641 91 641 c 0
 102 641 154 601 181 575 c 1
EndSplineSet
Validated: 1
EndChar

StartChar: uni0312
Encoding: 786 786 345
Width: 225
Flags: W
HStem: 476 181<55 123>
VStem: 33 64<521 600.267>
LayerCount: 2
Fore
SplineSet
134 531 m 0
 134 506 115 476 55 476 c 1
 43 486 33 513 33 529 c 0
 33 598 90 642 115 655 c 0
 116 656 119 657 123 657 c 0
 136 657 143 653 143 650 c 0
 143 645 97 615 97 591 c 0
 97 564 134 561 134 531 c 0
EndSplineSet
Validated: 1
EndChar

StartChar: uni0315
Encoding: 789 789 346
Width: 165
Flags: W
HStem: 465 187<52 119>
VStem: 73 61<527.257 624.398>
LayerCount: 2
Fore
SplineSet
51 601 m 0
 51 632 77 652 119 652 c 1
 129 640 134 618 134 590 c 0
 134 545 83 480 59 466 c 0
 58 465 54 465 52 465 c 0
 47 465 38 473 38 478 c 0
 38 481 73 503 73 548 c 0
 73 562 51 575 51 601 c 0
EndSplineSet
Validated: 1
EndChar

StartChar: uni0323
Encoding: 803 803 347
Width: 277
Flags: W
HStem: -132 100<105.438 188.562>
VStem: 97 100<-123.562 -40.4375>
LayerCount: 2
Fore
SplineSet
97 -82 m 0
 97 -54 119 -32 147 -32 c 0
 175 -32 197 -54 197 -82 c 0
 197 -110 175 -132 147 -132 c 0
 119 -132 97 -110 97 -82 c 0
EndSplineSet
Validated: 1
EndChar

StartChar: uni0326
Encoding: 806 806 348
Width: 222
Flags: W
HStem: -229 183
VStem: 78 63<-164.919 -88.5>
LayerCount: 2
Fore
SplineSet
99 -46 m 4
 111 -46 123 -50 131 -55 c 5
 137 -64 141 -81 141 -96 c 4
 141 -155 93 -207 42 -229 c 5
 34 -227 26 -218 26 -214 c 5
 40 -207 78 -178 78 -148 c 4
 78 -127 43 -131 43 -90 c 4
 43 -81 54 -46 99 -46 c 4
EndSplineSet
Validated: 1
EndChar

StartChar: uni0327
Encoding: 807 807 349
Width: 474
Flags: W
HStem: -152 24<183.049 247.387> -61 34<225 252.414>
VStem: 257 37<-122.34 -64.0801>
LayerCount: 2
Fore
SplineSet
225 -27 m 1
 250 -27 l 2
 276 -27 294 -50 294 -76 c 0
 294 -123 252 -152 200 -152 c 0
 188 -152 172 -147 166 -143 c 1
 165 -138 163 -135 163 -129 c 0
 163 -122 171 -115 177 -115 c 0
 189 -115 198 -128 214 -128 c 0
 242 -128 257 -112 257 -95 c 0
 257 -71 239 -61 226 -61 c 0
 215 -61 210 -64 200 -68 c 0
 198 -68 188 -59 190 -55 c 0
 199 -40 214 -18 222 -4 c 1
 243 -4 l 1
 225 -27 l 1
EndSplineSet
Validated: 1
EndChar

StartChar: uni0328
Encoding: 808 808 350
Width: 220
Flags: W
HStem: -218 59<73.5049 146.133>
VStem: 15 54<-155.236 -80.9335>
LayerCount: 2
Fore
SplineSet
169 42 m 0
 186 42 210 37 198 25 c 0
 175 3 69 -52 69 -116 c 0
 69 -131 76 -159 110 -159 c 0
 161 -159 185 -121 191 -121 c 0
 192 -121 196 -126 196 -134 c 0
 196 -139 194 -147 191 -151 c 0
 169 -180 131 -218 86 -218 c 0
 30 -218 15 -168 15 -141 c 0
 15 -75 140 42 169 42 c 0
EndSplineSet
Validated: 33
EndChar

StartChar: alpha
Encoding: 945 945 351
Width: 501
Flags: W
HStem: -9 36<110.664 187.941> -3 75<362.063 450.184> 369 68<188.425 267.948>
VStem: 37 59<57.3161 225.373> 308 25<270 311.992> 397 56<377.756 403.439>
LayerCount: 2
Fore
SplineSet
342 133 m 1xbc
 352 78 372 72 397 72 c 0
 431 72 470 106 475 117 c 1
 483 114 488 99 488 94 c 0
 488 86 459 -3 409 -3 c 0x7c
 367 -3 325 54 320 103 c 1
 274 37 234 -9 171 -9 c 0
 92 -9 37 48 37 163 c 0
 37 235 89 437 217 437 c 0
 267 437 333 363 333 270 c 1
 360 336 386 407 397 436 c 1
 414 436 453 410 453 382 c 0
 453 355 432 302 415 266 c 0
 391 216 342 133 342 133 c 1xbc
235 369 m 0
 169 369 96 219 96 115 c 0
 96 53 113 27 143 27 c 0xbc
 213 27 308 186 308 219 c 1
 308 298 289 369 235 369 c 0
EndSplineSet
Validated: 1
EndChar

StartChar: beta
Encoding: 946 946 352
Width: 505
Flags: W
HStem: -228 21G<131 139> -6 61<233.668 334.016> 302 66<215.281 261.432> 638 55<209.048 319.107>
VStem: 74 63<-209.944 230.458> 74 51<155.054 522.18> 355 40<462.309 602.966> 394 65<120.159 275.16>
LayerCount: 2
Fore
SplineSet
394 215 m 0xf1
 394 276 372 337 318 337 c 0
 314 337 309 336 305 334 c 1
 279 311 255 302 243 302 c 1
 237 305 225 312 217 322 c 24
 210 331 206 338 206 350 c 0
 206 357 212 363 222 368 c 0
 304 406 355 455 355 545 c 0
 355 599 321 638 273 638 c 0
 175 638 125 520 125 376 c 0xf6
 125 330 136 59 137 0 c 0
 138 -70 151 -190 159 -211 c 1
 152 -221 144 -228 134 -228 c 0
 128 -228 74 -207 74 -192 c 2xf8
 74 401 l 2
 74 602 147 693 239 693 c 0
 360 693 395 581 395 508 c 0xf6
 395 461 365 405 336 368 c 1
 393 350 459 277 459 184 c 0
 459 68 387 -6 317 -6 c 0
 236 -6 193 45 178 69 c 1
 176 76 176 75 176 83 c 0
 176 87 179 94 181 94 c 0
 187 94 209 55 275 55 c 0
 325 55 394 103 394 215 c 0xf1
EndSplineSet
Validated: 1
EndChar

StartChar: gamma
Encoding: 947 947 353
Width: 466
Flags: W
HStem: -226 21G<211.5 227.5> 362 71<56.1115 153.629>
VStem: 170 81<-206.919 -74.4783> 230 26<83 167.384> 381 51<310.404 416.603>
LayerCount: 2
Fore
SplineSet
251 -197 m 0xe8
 248 -215 234 -226 221 -226 c 0
 202 -226 170 -183 170 -164 c 0xe8
 170 -146 201 -34 230 40 c 1
 230 83 224 93 222 123 c 0
 206 325 152 362 88 362 c 0
 62 362 38 341 31 332 c 1
 28 332 24 337 21 342 c 0
 19 346 18 350 18 353 c 1
 31 397 71 433 111 433 c 0
 200 432 244 288 253 155 c 0
 254 142 256 91 256 83 c 1xd8
 292 156 323 213 352 290 c 0
 381 367 381 395 381 422 c 0
 381 434 390 436 392 436 c 0
 406 436 432 373 432 355 c 0
 432 333 425 292 397 226 c 0
 361 142 276 6 266 -10 c 1
 263 -28 260 -138 251 -197 c 0xe8
EndSplineSet
Validated: 1
EndChar

StartChar: delta
Encoding: 948 948 354
Width: 468
Flags: W
HStem: -6 53<153.721 288.695> 376 46<218.182 260.059>
VStem: 59 54<103.029 257.856> 117 65<573.394 659> 360 62<123.166 264.221>
LayerCount: 2
Fore
SplineSet
117 650 m 0
 117 668 143 696 188 690 c 0
 257 681 368 566 388 534 c 0
 398 518 403 504 403 493 c 0
 403 489 395 479 393 482 c 1
 368 518 269 624 199 624 c 0
 186 624 182 617 182 607 c 0
 182 554 207 524 279 438 c 0
 335 372 422 262 422 186 c 0
 422 76 357 -6 234 -6 c 0
 109 -6 59 126 59 200 c 0
 59 340 132 392 193 422 c 1
 216 422 241 418 261 408 c 1
 192 492 117 576 117 650 c 0
282 376 m 1
 202 374 113 266 113 172 c 0
 113 101 141 47 220 47 c 0
 285 47 360 103 360 217 c 0
 360 289 321 335 282 376 c 1
EndSplineSet
Validated: 33
EndChar

StartChar: epsilon
Encoding: 949 949 355
Width: 360
Flags: W
HStem: -5 61<91.3197 270.34> 375 60<150.553 279.214>
VStem: 40 35<73.0939 144.275> 49 44<246.873 325.841>
LayerCount: 2
Fore
SplineSet
75 110 m 0xe0
 75 64 121 56 173 56 c 0
 262 56 334 106 339 106 c 0
 343 106 345 103 345 99 c 0
 345 90 344 83 342 77 c 1
 306 33 253 -5 188 -5 c 0
 101 -5 40 34 40 104 c 0xe0
 40 141 75 186 115 216 c 1
 78 226 49 257 49 292 c 0
 49 389 138 435 191 435 c 0
 267 435 304 396 312 387 c 0
 314 384 316 380 316 375 c 0
 316 369 313 361 310 358 c 1
 296 366 264 375 237 375 c 0
 153 375 93 320 93 280 c 0xd0
 93 249 133 235 150 235 c 1
 173 244 204 257 231 257 c 0
 237 257 245 255 251 253 c 1
 263 243 275 228 275 212 c 0
 275 209 276 198 267 198 c 0
 190 198 75 164 75 110 c 0xe0
EndSplineSet
Validated: 1
EndChar

StartChar: zeta
Encoding: 950 950 356
Width: 391
VWidth: 295
Flags: W
HStem: -3 71<91.2025 290.116> 12 74<155.638 320.255> 673 20G<335 355.5> 674 10<164.74 171.488>
VStem: 39 33<95.8492 246.304> 70 60<571.813 651.768> 321 48<-54.2165 30.5>
LayerCount: 2
Fore
SplineSet
293 -106 m 1x4a
 289 -106 272 -103 272 -93 c 1
 290 -83 321 -56 321 -17 c 0
 321 2 304 12 285 12 c 3x4a
 251 12 200 -3 150 -3 c 3
 64 -3 39 52 39 132 c 1x8a
 39 254 102 396 185 536 c 1
 185 536 70 544 70 606 c 0
 70 662 148 681 158 684 c 1
 168 684 172 679 172 674 c 1
 153 664 130 629 130 608 c 0x96
 130 567 180 559 201 559 c 1
 252 629 321 693 349 693 c 0
 362 693 379 656 379 645 c 0
 379 630 377 622 358 608 c 0
 342 596 299 566 273 546 c 0
 205 492 72 299 72 155 c 0
 72 74 123 68 157 68 c 3xaa
 198 68 253 86 299 86 c 3
 349 86 369 42 369 19 c 0
 369 -49 321 -88 293 -106 c 1x4a
EndSplineSet
Validated: 1
EndChar

StartChar: eta
Encoding: 951 951 357
Width: 541
Flags: W
HStem: -227 21G<434.5 443.5> -6 21G<177 188> 362 71<66.1115 146.056 287.295 386.139>
VStem: 126 80<9.07266 167.851> 403 38<81.9445 343.678>
LayerCount: 2
Fore
SplineSet
376 -182 m 0
 380 -110 403 87 403 266 c 0
 403 324 386 363 345 363 c 0
 278 363 230 278 206 207 c 5
 206 183 206 159 206 136 c 4
 206 123 205 52 206 14 c 1
 201 6 194 -6 182 -6 c 0
 172 -6 126 18 126 31 c 0
 126 49 133 99 152 188 c 4
 153 194 166 247 166 247 c 5
 166 328 144 362 98 362 c 0
 72 362 48 341 41 332 c 1
 38 332 34 337 31 342 c 0
 29 346 28 350 28 353 c 0
 41 397 81 433 121 433 c 0
 169 432 182 365 191 301 c 5
 221 371 271 440 341 440 c 0
 402 440 434 379 441 290 c 0
 450 171 442 -130 464 -209 c 1
 459 -217 448 -227 439 -227 c 0
 430 -227 375 -198 376 -182 c 0
EndSplineSet
Validated: 33
EndChar

StartChar: theta
Encoding: 952 952 358
Width: 474
VWidth: 390
Flags: W
HStem: -5 39<179.265 263.696> 330 48<125.592 351.678> 656 39<212.941 295.703>
VStem: 48 74<177.164 326.988 379.921 498.469> 353 71<185.398 325.659 380.806 509.843>
LayerCount: 2
Fore
SplineSet
235 378 m 1
 285 378 332 379 354 384 c 1
 351 500 336 656 254 656 c 0
 187 656 137 528 125 382 c 1
 137 379 189 378 235 378 c 1
238 695 m 0
 346 695 424 531 424 354 c 0
 424 161 346 -5 238 -5 c 0
 130 -5 48 147 48 340 c 0
 48 533 130 695 238 695 c 0
353 324 m 1
 325 326 284 330 235 330 c 0
 188 330 130 328 122 323 c 1
 122 321 122 320 122 318 c 0
 122 202 139 34 220 34 c 0
 293 34 345 163 353 324 c 1
EndSplineSet
Validated: 1
EndChar

